<?xml version="1.0" encoding="UTF-8" standalone="no"?><svg xmlns="http://www.w3.org/2000/svg" xmlns:xlink="http://www.w3.org/1999/xlink" clip-rule="evenodd" stroke-miterlimit="10" viewBox="0 0 215 34"><desc>SVG generated by Keynote</desc><defs></defs><g transform="matrix(1.00, 0.00, -0.00, -1.00, 0.0, 34.0)"><text xml:space="preserve" font-family="ArialMT,Arial" font-size="32.0" fill="#000000" transform="matrix(1.00, 0.00, -0.00, -1.00, 0.9, 8.3)">@</text><text xml:space="preserve" font-family="ArialMT,Arial" font-size="32.0" fill="#000000" transform="matrix(1.00, 0.00, -0.00, -1.00, 33.4, 8.3)">c</text><text xml:space="preserve" font-family="ArialMT,Arial" font-size="32.0" fill="#000000" transform="matrix(1.00, 0.00, -0.00, -1.00, 49.4, 8.3)">o</text><text xml:space="preserve" font-family="ArialMT,Arial" font-size="32.0" fill="#000000" transform="matrix(1.00, 0.00, -0.00, -1.00, 67.2, 8.3)">r</text><text xml:space="preserve" font-family="ArialMT,Arial" font-size="32.0" fill="#000000" transform="matrix(1.00, 0.00, -0.00, -1.00, 77.8, 8.3)">i</text><text xml:space="preserve" font-family="ArialMT,Arial" font-size="32.0" fill="#000000" transform="matrix(1.00, 0.00, -0.00, -1.00, 84.9, 8.3)">n</text><text xml:space="preserve" font-family="ArialMT,Arial" font-size="32.0" fill="#000000" transform="matrix(1.00, 0.00, -0.00, -1.00, 102.7, 8.3)">n</text><text xml:space="preserve" font-family="ArialMT,Arial" font-size="32.0" fill="#000000" transform="matrix(1.00, 0.00, -0.00, -1.00, 120.5, 8.3)">e</text><text xml:space="preserve" font-family="ArialMT,Arial" font-size="32.0" fill="#000000" transform="matrix(1.00, 0.00, -0.00, -1.00, 138.3, 8.3)">k</text><text xml:space="preserve" font-family="ArialMT,Arial" font-size="32.0" fill="#000000" transform="matrix(1.00, 0.00, -0.00, -1.00, 154.3, 8.3)">r</text><text xml:space="preserve" font-family="ArialMT,Arial" font-size="32.0" fill="#000000" transform="matrix(1.00, 0.00, -0.00, -1.00, 165.0, 8.3)">y</text><text xml:space="preserve" font-family="ArialMT,Arial" font-size="32.0" fill="#000000" transform="matrix(1.00, 0.00, -0.00, -1.00, 181.0, 8.3)">c</text><text xml:space="preserve" font-family="ArialMT,Arial" font-size="32.0" fill="#000000" transform="matrix(1.00, 0.00, -0.00, -1.00, 197.0, 8.3)">h</text></g></svg>