<?xml version="1.0" encoding="UTF-8" standalone="no"?><svg xmlns="http://www.w3.org/2000/svg" xmlns:xlink="http://www.w3.org/1999/xlink" clip-rule="evenodd" stroke-miterlimit="10" viewBox="0 0 1280 720"><desc>SVG generated by Keynote</desc><defs></defs><g transform="matrix(1.00, 0.00, -0.00, -1.00, 0.0, 720.0)"><path d="M 0.0 720.0 L 1280.0 720.0 L 1280.0 0.0 L 0.0 0.0 Z M 0.0 720.0 " fill="#FFFFFF"></path><path d="M -12.0 721.0 L 1279.0 721.0 L 1279.0 592.0 L -12.0 592.0 Z M -12.0 721.0 " fill="#FFFFFF"></path><image xlink:href="../../51C09A98-96B9-4111-8917-4A6A011BFB10/assets/41194C9459DB3CBFD690A61B4CFF6222.png" width="647.00" height="120.00" transform="matrix(0.00, 1.00, 1.00, -0.00, -10.5, 54.5)"></image><path d="M 0.0 49.0 L 1289.0 49.0 L 1289.0 0.0 L 0.0 0.0 Z M 0.0 49.0 " fill="#F4AE33"></path><text xml:space="preserve" font-family="ArialMT,Arial" font-size="32.0" fill="#000000" transform="matrix(1.00, 0.00, -0.00, -1.00, 12.0, 12.3)">#</text><text xml:space="preserve" font-family="ArialMT,Arial" font-size="32.0" fill="#000000" transform="matrix(1.00, 0.00, -0.00, -1.00, 29.8, 12.3)">D</text><text xml:space="preserve" font-family="ArialMT,Arial" font-size="32.0" fill="#000000" transform="matrix(1.00, 0.00, -0.00, -1.00, 52.9, 12.3)">V</text><text xml:space="preserve" font-family="ArialMT,Arial" font-size="32.0" fill="#000000" transform="matrix(1.00, 0.00, -0.00, -1.00, 74.3, 12.3)">1</text><text xml:space="preserve" font-family="ArialMT,Arial" font-size="32.0" fill="#000000" transform="matrix(1.00, 0.00, -0.00, -1.00, 92.1, 12.3)">4</text><text xml:space="preserve" font-family="ArialMT,Arial" font-size="32.0" fill="#000000" transform="matrix(1.00, 0.00, -0.00, -1.00, 109.9, 12.3)"> </text><text xml:space="preserve" font-family="ArialMT,Arial" font-size="32.0" fill="#000000" transform="matrix(1.00, 0.00, -0.00, -1.00, 118.8, 12.3)"> </text><text xml:space="preserve" font-family="ArialMT,Arial" font-size="32.0" fill="#000000" transform="matrix(1.00, 0.00, -0.00, -1.00, 127.6, 12.3)">#</text><text xml:space="preserve" font-family="ArialMT,Arial" font-size="32.0" fill="#000000" transform="matrix(1.00, 0.00, -0.00, -1.00, 145.4, 12.3)">O</text><text xml:space="preserve" font-family="ArialMT,Arial" font-size="32.0" fill="#000000" transform="matrix(1.00, 0.00, -0.00, -1.00, 170.3, 12.3)">A</text><text xml:space="preserve" font-family="ArialMT,Arial" font-size="32.0" fill="#000000" transform="matrix(1.00, 0.00, -0.00, -1.00, 191.6, 12.3)">u</text><text xml:space="preserve" font-family="ArialMT,Arial" font-size="32.0" fill="#000000" transform="matrix(1.00, 0.00, -0.00, -1.00, 209.5, 12.3)">t</text><text xml:space="preserve" font-family="ArialMT,Arial" font-size="32.0" fill="#000000" transform="matrix(1.00, 0.00, -0.00, -1.00, 218.3, 12.3)">h</text><text xml:space="preserve" font-family="ArialMT,Arial" font-size="32.0" fill="#000000" transform="matrix(1.00, 0.00, -0.00, -1.00, 236.1, 12.3)">2</text><text xml:space="preserve" font-family="ArialMT,Arial" font-size="32.0" fill="#000000" transform="matrix(1.00, 0.00, -0.00, -1.00, 253.9, 12.3)"> </text><text xml:space="preserve" font-family="ArialMT,Arial" font-size="32.0" fill="#000000" transform="matrix(1.00, 0.00, -0.00, -1.00, 262.8, 12.3)">#</text><text xml:space="preserve" font-family="ArialMT,Arial" font-size="32.0" fill="#000000" transform="matrix(1.00, 0.00, -0.00, -1.00, 280.6, 12.3)">M</text><text xml:space="preserve" font-family="ArialMT,Arial" font-size="32.0" fill="#000000" transform="matrix(1.00, 0.00, -0.00, -1.00, 307.3, 12.3)">o</text><text xml:space="preserve" font-family="ArialMT,Arial" font-size="32.0" fill="#000000" transform="matrix(1.00, 0.00, -0.00, -1.00, 325.1, 12.3)">b</text><text xml:space="preserve" font-family="ArialMT,Arial" font-size="32.0" fill="#000000" transform="matrix(1.00, 0.00, -0.00, -1.00, 342.9, 12.3)">i</text><text xml:space="preserve" font-family="ArialMT,Arial" font-size="32.0" fill="#000000" transform="matrix(1.00, 0.00, -0.00, -1.00, 350.0, 12.3)">l</text><text xml:space="preserve" font-family="ArialMT,Arial" font-size="32.0" fill="#000000" transform="matrix(1.00, 0.00, -0.00, -1.00, 357.1, 12.3)">e</text><text xml:space="preserve" font-family="ArialMT,Arial" font-size="32.0" fill="#000000" transform="matrix(1.00, 0.00, -0.00, -1.00, 1045.9, 12.3)">@</text><text xml:space="preserve" font-family="ArialMT,Arial" font-size="32.0" fill="#000000" transform="matrix(1.00, 0.00, -0.00, -1.00, 1078.4, 12.3)">c</text><text xml:space="preserve" font-family="ArialMT,Arial" font-size="32.0" fill="#000000" transform="matrix(1.00, 0.00, -0.00, -1.00, 1094.4, 12.3)">o</text><text xml:space="preserve" font-family="ArialMT,Arial" font-size="32.0" fill="#000000" transform="matrix(1.00, 0.00, -0.00, -1.00, 1112.2, 12.3)">r</text><text xml:space="preserve" font-family="ArialMT,Arial" font-size="32.0" fill="#000000" transform="matrix(1.00, 0.00, -0.00, -1.00, 1122.8, 12.3)">i</text><text xml:space="preserve" font-family="ArialMT,Arial" font-size="32.0" fill="#000000" transform="matrix(1.00, 0.00, -0.00, -1.00, 1129.9, 12.3)">n</text><text xml:space="preserve" font-family="ArialMT,Arial" font-size="32.0" fill="#000000" transform="matrix(1.00, 0.00, -0.00, -1.00, 1147.7, 12.3)">n</text><text xml:space="preserve" font-family="ArialMT,Arial" font-size="32.0" fill="#000000" transform="matrix(1.00, 0.00, -0.00, -1.00, 1165.5, 12.3)">e</text><text xml:space="preserve" font-family="ArialMT,Arial" font-size="32.0" fill="#000000" transform="matrix(1.00, 0.00, -0.00, -1.00, 1183.3, 12.3)">k</text><text xml:space="preserve" font-family="ArialMT,Arial" font-size="32.0" fill="#000000" transform="matrix(1.00, 0.00, -0.00, -1.00, 1199.3, 12.3)">r</text><text xml:space="preserve" font-family="ArialMT,Arial" font-size="32.0" fill="#000000" transform="matrix(1.00, 0.00, -0.00, -1.00, 1210.0, 12.3)">y</text><text xml:space="preserve" font-family="ArialMT,Arial" font-size="32.0" fill="#000000" transform="matrix(1.00, 0.00, -0.00, -1.00, 1226.0, 12.3)">c</text><text xml:space="preserve" font-family="ArialMT,Arial" font-size="32.0" fill="#000000" transform="matrix(1.00, 0.00, -0.00, -1.00, 1242.0, 12.3)">h</text><text xml:space="preserve" font-family="Helvetica-Light,Helvetica" font-size="60.0" fill="#000000" transform="matrix(1.00, 0.00, -0.00, -1.00, 387.7, 629.6)">K</text><text xml:space="preserve" font-family="Helvetica-Light,Helvetica" font-size="60.0" fill="#000000" transform="matrix(1.00, 0.00, -0.00, -1.00, 427.7, 629.6)">e</text><text xml:space="preserve" font-family="Helvetica-Light,Helvetica" font-size="60.0" fill="#000000" transform="matrix(1.00, 0.00, -0.00, -1.00, 461.1, 629.6)">y</text><text xml:space="preserve" font-family="Helvetica-Light,Helvetica" font-size="60.0" fill="#000000" transform="matrix(1.00, 0.00, -0.00, -1.00, 491.1, 629.6)">c</text><text xml:space="preserve" font-family="Helvetica-Light,Helvetica" font-size="60.0" fill="#000000" transform="matrix(1.00, 0.00, -0.00, -1.00, 524.4, 629.6)">l</text><text xml:space="preserve" font-family="Helvetica-Light,Helvetica" font-size="60.0" fill="#000000" transform="matrix(1.00, 0.00, -0.00, -1.00, 537.8, 629.6)">o</text><text xml:space="preserve" font-family="Helvetica-Light,Helvetica" font-size="60.0" fill="#000000" transform="matrix(1.00, 0.00, -0.00, -1.00, 571.1, 629.6)">a</text><text xml:space="preserve" font-family="Helvetica-Light,Helvetica" font-size="60.0" fill="#000000" transform="matrix(1.00, 0.00, -0.00, -1.00, 604.5, 629.6)">k</text><text xml:space="preserve" font-family="Helvetica-Light,Helvetica" font-size="60.0" fill="#000000" transform="matrix(1.00, 0.00, -0.00, -1.00, 634.5, 629.6)"> </text><text xml:space="preserve" font-family="Helvetica-Light,Helvetica" font-size="60.0" fill="#000000" transform="matrix(1.00, 0.00, -0.00, -1.00, 651.2, 629.6)">c</text><text xml:space="preserve" font-family="Helvetica-Light,Helvetica" font-size="60.0" fill="#000000" transform="matrix(1.00, 0.00, -0.00, -1.00, 684.5, 629.6)">o</text><text xml:space="preserve" font-family="Helvetica-Light,Helvetica" font-size="60.0" fill="#000000" transform="matrix(1.00, 0.00, -0.00, -1.00, 717.9, 629.6)">n</text><text xml:space="preserve" font-family="Helvetica-Light,Helvetica" font-size="60.0" fill="#000000" transform="matrix(1.00, 0.00, -0.00, -1.00, 751.2, 629.6)">c</text><text xml:space="preserve" font-family="Helvetica-Light,Helvetica" font-size="60.0" fill="#000000" transform="matrix(1.00, 0.00, -0.00, -1.00, 784.6, 629.6)">e</text><text xml:space="preserve" font-family="Helvetica-Light,Helvetica" font-size="60.0" fill="#000000" transform="matrix(1.00, 0.00, -0.00, -1.00, 818.0, 629.6)">p</text><text xml:space="preserve" font-family="Helvetica-Light,Helvetica" font-size="60.0" fill="#000000" transform="matrix(1.00, 0.00, -0.00, -1.00, 854.6, 629.6)">t</text><text xml:space="preserve" font-family="Helvetica-Light,Helvetica" font-size="60.0" fill="#000000" transform="matrix(1.00, 0.00, -0.00, -1.00, 871.3, 629.6)">s</text><path d="M -0.4 0.0 L 897.6 0.0 " fill="none" stroke="#000000" stroke-width="2.00" transform="matrix(1.00, 0.00, 0.00, -1.00, 255.4, 569.0)"></path><text xml:space="preserve" font-family="Helvetica-Light,Helvetica" font-size="30.0" fill="#0000FF" transform="matrix(1.00, 0.00, -0.00, -1.00, 629.7, 572.5)">K</text><text xml:space="preserve" font-family="Helvetica-Light,Helvetica" font-size="30.0" fill="#0000FF" transform="matrix(1.00, 0.00, -0.00, -1.00, 649.7, 572.5)">e</text><text xml:space="preserve" font-family="Helvetica-Light,Helvetica" font-size="30.0" fill="#0000FF" transform="matrix(1.00, 0.00, -0.00, -1.00, 666.4, 572.5)">y</text><text xml:space="preserve" font-family="Helvetica-Light,Helvetica" font-size="30.0" fill="#0000FF" transform="matrix(1.00, 0.00, -0.00, -1.00, 681.4, 572.5)">c</text><text xml:space="preserve" font-family="Helvetica-Light,Helvetica" font-size="30.0" fill="#0000FF" transform="matrix(1.00, 0.00, -0.00, -1.00, 698.1, 572.5)">l</text><text xml:space="preserve" font-family="Helvetica-Light,Helvetica" font-size="30.0" fill="#0000FF" transform="matrix(1.00, 0.00, -0.00, -1.00, 704.8, 572.5)">o</text><text xml:space="preserve" font-family="Helvetica-Light,Helvetica" font-size="30.0" fill="#0000FF" transform="matrix(1.00, 0.00, -0.00, -1.00, 721.4, 572.5)">a</text><text xml:space="preserve" font-family="Helvetica-Light,Helvetica" font-size="30.0" fill="#0000FF" transform="matrix(1.00, 0.00, -0.00, -1.00, 738.1, 572.5)">k</text><text xml:space="preserve" font-family="Helvetica-Light,Helvetica" font-size="30.0" fill="#0000FF" transform="matrix(1.00, 0.00, -0.00, -1.00, 753.1, 572.5)"> </text><text xml:space="preserve" font-family="Helvetica-Light,Helvetica" font-size="30.0" fill="#0000FF" transform="matrix(1.00, 0.00, -0.00, -1.00, 761.5, 572.5)">d</text><text xml:space="preserve" font-family="Helvetica-Light,Helvetica" font-size="30.0" fill="#0000FF" transform="matrix(1.00, 0.00, -0.00, -1.00, 779.8, 572.5)">o</text><text xml:space="preserve" font-family="Helvetica-Light,Helvetica" font-size="30.0" fill="#0000FF" transform="matrix(1.00, 0.00, -0.00, -1.00, 796.5, 572.5)">c</text><text xml:space="preserve" font-family="Helvetica-Light,Helvetica" font-size="30.0" fill="#0000FF" transform="matrix(1.00, 0.00, -0.00, -1.00, 813.1, 572.5)">u</text><text xml:space="preserve" font-family="Helvetica-Light,Helvetica" font-size="30.0" fill="#0000FF" transform="matrix(1.00, 0.00, -0.00, -1.00, 829.8, 572.5)">m</text><text xml:space="preserve" font-family="Helvetica-Light,Helvetica" font-size="30.0" fill="#0000FF" transform="matrix(1.00, 0.00, -0.00, -1.00, 854.8, 572.5)">e</text><text xml:space="preserve" font-family="Helvetica-Light,Helvetica" font-size="30.0" fill="#0000FF" transform="matrix(1.00, 0.00, -0.00, -1.00, 871.5, 572.5)">n</text><text xml:space="preserve" font-family="Helvetica-Light,Helvetica" font-size="30.0" fill="#0000FF" transform="matrix(1.00, 0.00, -0.00, -1.00, 888.2, 572.5)">t</text><text xml:space="preserve" font-family="Helvetica-Light,Helvetica" font-size="30.0" fill="#0000FF" transform="matrix(1.00, 0.00, -0.00, -1.00, 896.5, 572.5)">a</text><text xml:space="preserve" font-family="Helvetica-Light,Helvetica" font-size="30.0" fill="#0000FF" transform="matrix(1.00, 0.00, -0.00, -1.00, 913.2, 572.5)">t</text><text xml:space="preserve" font-family="Helvetica-Light,Helvetica" font-size="30.0" fill="#0000FF" transform="matrix(1.00, 0.00, -0.00, -1.00, 921.5, 572.5)">i</text><text xml:space="preserve" font-family="Helvetica-Light,Helvetica" font-size="30.0" fill="#0000FF" transform="matrix(1.00, 0.00, -0.00, -1.00, 928.2, 572.5)">o</text><text xml:space="preserve" font-family="Helvetica-Light,Helvetica" font-size="30.0" fill="#0000FF" transform="matrix(1.00, 0.00, -0.00, -1.00, 944.9, 572.5)">n</text><g><clipPath id="clip0x610000ca5100"><path d="M 628.7 568.5 L 961.6 568.5 L 961.6 572.0 L 628.7 572.0 Z M 628.7 568.5 "></path></clipPath><g clip-path="url(#clip0x610000ca5100)"><path d="M 4.5 35.4 L 336.3 35.4 " fill="none" stroke="#0000FF" stroke-width="1.50" transform="matrix(1.00, 0.00, 0.00, -1.00, 625.2, 605.6)"></path></g></g><image xlink:href="4020EAC0E5C727A32CADD5DA807F2785.png" width="827.00" height="603.00" transform="matrix(1.00, 0.00, -0.00, -1.00, 207.8, 659.1)"></image><path d="M 248.0 526.0 L 995.0 526.0 L 995.0 200.0 L 248.0 200.0 Z M 247.8 526.2 " fill="#9AC7E7"></path><image xlink:href="E5C4D6E054758C153ED80AE1BB4D2DFF.png" width="210.00" height="236.00" transform="matrix(1.00, 0.00, -0.00, -1.00, 289.5, 458.2)" opacity="0.50"></image><path d="M 292.0 457.0 L 496.0 457.0 L 496.0 227.0 L 292.0 227.0 Z M 292.5 457.2 " fill="#CCE2EE"></path><text xml:space="preserve" font-family="Helvetica-Light,Helvetica" font-size="24.0" fill="#000000" transform="matrix(1.00, 0.00, -0.00, -1.00, 310.2, 389.7)">u</text><text xml:space="preserve" font-family="Helvetica-Light,Helvetica" font-size="24.0" fill="#000000" transform="matrix(1.00, 0.00, -0.00, -1.00, 323.5, 389.7)">s</text><text xml:space="preserve" font-family="Helvetica-Light,Helvetica" font-size="24.0" fill="#000000" transform="matrix(1.00, 0.00, -0.00, -1.00, 335.5, 389.7)">e</text><text xml:space="preserve" font-family="Helvetica-Light,Helvetica" font-size="24.0" fill="#000000" transform="matrix(1.00, 0.00, -0.00, -1.00, 348.9, 389.7)">r</text><text xml:space="preserve" font-family="Helvetica-Light,Helvetica" font-size="24.0" fill="#000000" transform="matrix(1.00, 0.00, -0.00, -1.00, 356.9, 389.7)">/</text><text xml:space="preserve" font-family="Helvetica-Light,Helvetica" font-size="24.0" fill="#000000" transform="matrix(1.00, 0.00, -0.00, -1.00, 363.6, 389.7)">p</text><text xml:space="preserve" font-family="Helvetica-Light,Helvetica" font-size="24.0" fill="#000000" transform="matrix(1.00, 0.00, -0.00, -1.00, 378.2, 389.7)">a</text><text xml:space="preserve" font-family="Helvetica-Light,Helvetica" font-size="24.0" fill="#000000" transform="matrix(1.00, 0.00, -0.00, -1.00, 391.6, 389.7)">s</text><text xml:space="preserve" font-family="Helvetica-Light,Helvetica" font-size="24.0" fill="#000000" transform="matrix(1.00, 0.00, -0.00, -1.00, 403.6, 389.7)">s</text><text xml:space="preserve" font-family="Helvetica-Light,Helvetica" font-size="24.0" fill="#000000" transform="matrix(1.00, 0.00, -0.00, -1.00, 415.6, 389.7)">w</text><text xml:space="preserve" font-family="Helvetica-Light,Helvetica" font-size="24.0" fill="#000000" transform="matrix(1.00, 0.00, -0.00, -1.00, 432.9, 389.7)">o</text><text xml:space="preserve" font-family="Helvetica-Light,Helvetica" font-size="24.0" fill="#000000" transform="matrix(1.00, 0.00, -0.00, -1.00, 446.2, 389.7)">r</text><text xml:space="preserve" font-family="Helvetica-Light,Helvetica" font-size="24.0" fill="#000000" transform="matrix(1.00, 0.00, -0.00, -1.00, 453.8, 389.7)">d</text><text xml:space="preserve" font-family="Helvetica-Light,Helvetica" font-size="31.0" fill="#000000" transform="matrix(1.00, 0.00, -0.00, -1.00, 373.8, 343.6)">…</text><image xlink:href="E46D208ECC01A2A5FC30068D641CE586.png" width="74.00" height="43.00" transform="matrix(1.00, 0.00, -0.00, -1.00, 352.5, 468.0)" opacity="0.50"></image><g><clipPath id="clip0x600000cab460"><path d="M 355.0 467.0 L 423.0 467.0 L 423.0 430.0 L 355.0 430.0 Z M 355.5 467.0 "></path></clipPath><g clip-path="url(#clip0x600000cab460)"><image xlink:href="8571D34485008A2B4E76C6C919FEC199.png" width="600.00" height="600.00" transform="matrix(0.50, 0.00, -0.00, -0.50, 355.0, 467.0)"></image></g></g><g><clipPath id="clip0x608000cb7220"><path d="M 353.5 428.0 L 425.2 428.0 L 425.2 469.0 L 353.5 469.0 Z M 353.5 428.0 "></path></clipPath><g clip-path="url(#clip0x608000cb7220)"><text xml:space="preserve" font-family="Helvetica-Light,Helvetica" font-size="24.0" fill="#FEFFFE" transform="matrix(1.00, 0.00, -0.00, -1.00, 360.0, 439.5)">u</text><text xml:space="preserve" font-family="Helvetica-Light,Helvetica" font-size="24.0" fill="#FEFFFE" transform="matrix(1.00, 0.00, -0.00, -1.00, 373.3, 439.5)">s</text><text xml:space="preserve" font-family="Helvetica-Light,Helvetica" font-size="24.0" fill="#FEFFFE" transform="matrix(1.00, 0.00, -0.00, -1.00, 385.3, 439.5)">e</text><text xml:space="preserve" font-family="Helvetica-Light,Helvetica" font-size="24.0" fill="#FEFFFE" transform="matrix(1.00, 0.00, -0.00, -1.00, 398.7, 439.5)">r</text><text xml:space="preserve" font-family="Helvetica-Light,Helvetica" font-size="24.0" fill="#FEFFFE" transform="matrix(1.00, 0.00, -0.00, -1.00, 406.7, 439.5)">s</text></g></g><image xlink:href="F3763A89B33B99812DCE0243D659EFB6.png" width="210.00" height="236.00" transform="matrix(1.00, 0.00, -0.00, -1.00, 516.5, 458.2)" opacity="0.50"></image><path d="M 520.0 457.0 L 723.0 457.0 L 723.0 227.0 L 520.0 227.0 Z M 519.5 457.2 " fill="#CCE2EE"></path><image xlink:href="3B1178574D7ACE9A61296078D8BA8890.png" width="146.00" height="43.00" transform="matrix(1.00, 0.00, -0.00, -1.00, 548.4, 477.3)" opacity="0.50"></image><g><clipPath id="clip0x600000cab160"><path d="M 551.0 476.0 L 691.0 476.0 L 691.0 439.0 L 551.0 439.0 Z M 551.4 476.3 "></path></clipPath><g clip-path="url(#clip0x600000cab160)"><image xlink:href="../../3F69B0A0-68DD-4DA4-9442-12FEC826F1F1/assets/8571D34485008A2B4E76C6C919FEC199.png" width="600.00" height="600.00" transform="matrix(0.50, 0.00, -0.00, -0.50, 551.0, 476.0)"></image></g></g><g><clipPath id="clip0x600000cacde0"><path d="M 549.4 437.3 L 693.1 437.3 L 693.1 478.3 L 549.4 478.3 Z M 549.4 437.3 "></path></clipPath><g clip-path="url(#clip0x600000cacde0)"><text xml:space="preserve" font-family="Helvetica-Light,Helvetica" font-size="24.0" fill="#FEFFFE" transform="matrix(1.00, 0.00, -0.00, -1.00, 555.9, 448.8)">a</text><text xml:space="preserve" font-family="Helvetica-Light,Helvetica" font-size="24.0" fill="#FEFFFE" transform="matrix(1.00, 0.00, -0.00, -1.00, 569.3, 448.8)">p</text><text xml:space="preserve" font-family="Helvetica-Light,Helvetica" font-size="24.0" fill="#FEFFFE" transform="matrix(1.00, 0.00, -0.00, -1.00, 583.9, 448.8)">p</text><text xml:space="preserve" font-family="Helvetica-Light,Helvetica" font-size="24.0" fill="#FEFFFE" transform="matrix(1.00, 0.00, -0.00, -1.00, 598.6, 448.8)">l</text><text xml:space="preserve" font-family="Helvetica-Light,Helvetica" font-size="24.0" fill="#FEFFFE" transform="matrix(1.00, 0.00, -0.00, -1.00, 603.9, 448.8)">i</text><text xml:space="preserve" font-family="Helvetica-Light,Helvetica" font-size="24.0" fill="#FEFFFE" transform="matrix(1.00, 0.00, -0.00, -1.00, 609.3, 448.8)">c</text><text xml:space="preserve" font-family="Helvetica-Light,Helvetica" font-size="24.0" fill="#FEFFFE" transform="matrix(1.00, 0.00, -0.00, -1.00, 622.6, 448.8)">a</text><text xml:space="preserve" font-family="Helvetica-Light,Helvetica" font-size="24.0" fill="#FEFFFE" transform="matrix(1.00, 0.00, -0.00, -1.00, 636.0, 448.8)">t</text><text xml:space="preserve" font-family="Helvetica-Light,Helvetica" font-size="24.0" fill="#FEFFFE" transform="matrix(1.00, 0.00, -0.00, -1.00, 642.6, 448.8)">i</text><text xml:space="preserve" font-family="Helvetica-Light,Helvetica" font-size="24.0" fill="#FEFFFE" transform="matrix(1.00, 0.00, -0.00, -1.00, 648.0, 448.8)">o</text><text xml:space="preserve" font-family="Helvetica-Light,Helvetica" font-size="24.0" fill="#FEFFFE" transform="matrix(1.00, 0.00, -0.00, -1.00, 661.3, 448.8)">n</text><text xml:space="preserve" font-family="Helvetica-Light,Helvetica" font-size="24.0" fill="#FEFFFE" transform="matrix(1.00, 0.00, -0.00, -1.00, 674.6, 448.8)">s</text></g></g><image xlink:href="DC81913680F4A40890364BA6EBF0823A.png" width="170.00" height="72.00" transform="matrix(1.00, 0.00, -0.00, -1.00, 536.4, 389.8)" opacity="0.50"></image><g><clipPath id="clip0x600000cac660"><path d="M 539.0 389.0 L 703.0 389.0 L 703.0 323.0 L 539.0 323.0 Z M 539.4 388.8 "></path></clipPath><g clip-path="url(#clip0x600000cac660)"><image xlink:href="79559B53344726561A56900E5F7EFED3.png" width="600.00" height="600.00" transform="matrix(0.50, 0.00, -0.00, -0.50, 539.0, 389.0)"></image></g></g><g><clipPath id="clip0x618000ab1ac0"><path d="M 537.4 320.8 L 830.3 320.8 L 830.3 390.8 L 537.4 390.8 Z M 537.4 320.8 "></path></clipPath><g clip-path="url(#clip0x618000ab1ac0)"><text xml:space="preserve" font-family="Helvetica-Bold,Helvetica" font-weight="bold" font-size="24.0" fill="#FEFFFE" transform="matrix(1.00, 0.00, -0.00, -1.00, 561.3, 361.3)">s</text><text xml:space="preserve" font-family="Helvetica-Bold,Helvetica" font-weight="bold" font-size="24.0" fill="#FEFFFE" transform="matrix(1.00, 0.00, -0.00, -1.00, 574.6, 361.3)">h</text><text xml:space="preserve" font-family="Helvetica-Bold,Helvetica" font-weight="bold" font-size="24.0" fill="#FEFFFE" transform="matrix(1.00, 0.00, -0.00, -1.00, 589.3, 361.3)">o</text><text xml:space="preserve" font-family="Helvetica-Bold,Helvetica" font-weight="bold" font-size="24.0" fill="#FEFFFE" transform="matrix(1.00, 0.00, -0.00, -1.00, 604.0, 361.3)">o</text><text xml:space="preserve" font-family="Helvetica-Bold,Helvetica" font-weight="bold" font-size="24.0" fill="#FEFFFE" transform="matrix(1.00, 0.00, -0.00, -1.00, 618.6, 361.3)">t</text><text xml:space="preserve" font-family="Helvetica-Bold,Helvetica" font-weight="bold" font-size="24.0" fill="#FEFFFE" transform="matrix(1.00, 0.00, -0.00, -1.00, 626.6, 361.3)">-</text><text xml:space="preserve" font-family="Helvetica-Bold,Helvetica" font-weight="bold" font-size="24.0" fill="#FEFFFE" transform="matrix(1.00, 0.00, -0.00, -1.00, 634.6, 361.3)">w</text><text xml:space="preserve" font-family="Helvetica-Bold,Helvetica" font-weight="bold" font-size="24.0" fill="#FEFFFE" transform="matrix(1.00, 0.00, -0.00, -1.00, 653.3, 361.3)">e</text><text xml:space="preserve" font-family="Helvetica-Bold,Helvetica" font-weight="bold" font-size="24.0" fill="#FEFFFE" transform="matrix(1.00, 0.00, -0.00, -1.00, 666.6, 361.3)">b</text><text xml:space="preserve" font-family="Helvetica-Light,Helvetica" font-size="24.0" fill="#FEFFFE" transform="matrix(1.00, 0.00, -0.00, -1.00, 543.9, 332.3)">a</text><text xml:space="preserve" font-family="Helvetica-Light,Helvetica" font-size="24.0" fill="#FEFFFE" transform="matrix(1.00, 0.00, -0.00, -1.00, 557.3, 332.3)">n</text><text xml:space="preserve" font-family="Helvetica-Light,Helvetica" font-size="24.0" fill="#FEFFFE" transform="matrix(1.00, 0.00, -0.00, -1.00, 570.6, 332.3)">g</text><text xml:space="preserve" font-family="Helvetica-Light,Helvetica" font-size="24.0" fill="#FEFFFE" transform="matrix(1.00, 0.00, -0.00, -1.00, 585.3, 332.3)">u</text><text xml:space="preserve" font-family="Helvetica-Light,Helvetica" font-size="24.0" fill="#FEFFFE" transform="matrix(1.00, 0.00, -0.00, -1.00, 598.6, 332.3)">l</text><text xml:space="preserve" font-family="Helvetica-Light,Helvetica" font-size="24.0" fill="#FEFFFE" transform="matrix(1.00, 0.00, -0.00, -1.00, 604.0, 332.3)">a</text><text xml:space="preserve" font-family="Helvetica-Light,Helvetica" font-size="24.0" fill="#FEFFFE" transform="matrix(1.00, 0.00, -0.00, -1.00, 617.3, 332.3)">r</text><text xml:space="preserve" font-family="Helvetica-Light,Helvetica" font-size="24.0" fill="#FEFFFE" transform="matrix(1.00, 0.00, -0.00, -1.00, 624.0, 332.3)">-</text><text xml:space="preserve" font-family="Helvetica-Light,Helvetica" font-size="24.0" fill="#FEFFFE" transform="matrix(1.00, 0.00, -0.00, -1.00, 632.0, 332.3)">j</text><text xml:space="preserve" font-family="Helvetica-Light,Helvetica" font-size="24.0" fill="#FEFFFE" transform="matrix(1.00, 0.00, -0.00, -1.00, 637.3, 332.3)">s</text><text xml:space="preserve" font-family="Helvetica-Light,Helvetica" font-size="24.0" fill="#FEFFFE" transform="matrix(1.00, 0.00, -0.00, -1.00, 649.3, 332.3)"> </text><text xml:space="preserve" font-family="Helvetica-Light,Helvetica" font-size="24.0" fill="#FEFFFE" transform="matrix(1.00, 0.00, -0.00, -1.00, 656.0, 332.3)">a</text><text xml:space="preserve" font-family="Helvetica-Light,Helvetica" font-size="24.0" fill="#FEFFFE" transform="matrix(1.00, 0.00, -0.00, -1.00, 669.3, 332.3)">p</text><text xml:space="preserve" font-family="Helvetica-Light,Helvetica" font-size="24.0" fill="#FEFFFE" transform="matrix(1.00, 0.00, -0.00, -1.00, 684.0, 332.3)">p</text></g></g><image xlink:href="15AF0F5AD066E7343647C88F88546BCE.png" width="210.00" height="236.00" transform="matrix(1.00, 0.00, -0.00, -1.00, 743.6, 458.2)" opacity="0.50"></image><path d="M 747.0 457.0 L 950.0 457.0 L 950.0 227.0 L 747.0 227.0 Z M 746.6 457.2 " fill="#CCE2EE"></path><image xlink:href="DB27B82F53DE7E9EA266D693E5DA57C4.png" width="139.00" height="43.00" transform="matrix(1.00, 0.00, -0.00, -1.00, 778.8, 477.3)" opacity="0.50"></image><g><clipPath id="clip0x600000cac480"><path d="M 782.0 476.0 L 915.0 476.0 L 915.0 439.0 L 782.0 439.0 Z M 781.8 476.3 "></path></clipPath><g clip-path="url(#clip0x600000cac480)"><image xlink:href="../../3F69B0A0-68DD-4DA4-9442-12FEC826F1F1/assets/8571D34485008A2B4E76C6C919FEC199.png" width="600.00" height="600.00" transform="matrix(0.50, 0.00, -0.00, -0.50, 782.0, 476.0)"></image></g></g><g><clipPath id="clip0x600000cac180"><path d="M 779.8 437.3 L 916.9 437.3 L 916.9 478.3 L 779.8 478.3 Z M 779.8 437.3 "></path></clipPath><g clip-path="url(#clip0x600000cac180)"><text xml:space="preserve" font-family="Helvetica-Light,Helvetica" font-size="24.0" fill="#FEFFFE" transform="matrix(1.00, 0.00, -0.00, -1.00, 786.3, 448.8)">o</text><text xml:space="preserve" font-family="Helvetica-Light,Helvetica" font-size="24.0" fill="#FEFFFE" transform="matrix(1.00, 0.00, -0.00, -1.00, 799.6, 448.8)">a</text><text xml:space="preserve" font-family="Helvetica-Light,Helvetica" font-size="24.0" fill="#FEFFFE" transform="matrix(1.00, 0.00, -0.00, -1.00, 813.0, 448.8)">u</text><text xml:space="preserve" font-family="Helvetica-Light,Helvetica" font-size="24.0" fill="#FEFFFE" transform="matrix(1.00, 0.00, -0.00, -1.00, 826.3, 448.8)">t</text><text xml:space="preserve" font-family="Helvetica-Light,Helvetica" font-size="24.0" fill="#FEFFFE" transform="matrix(1.00, 0.00, -0.00, -1.00, 833.0, 448.8)">h</text><text xml:space="preserve" font-family="Helvetica-Light,Helvetica" font-size="24.0" fill="#FEFFFE" transform="matrix(1.00, 0.00, -0.00, -1.00, 846.4, 448.8)"> </text><text xml:space="preserve" font-family="Helvetica-Light,Helvetica" font-size="24.0" fill="#FEFFFE" transform="matrix(1.00, 0.00, -0.00, -1.00, 853.0, 448.8)">c</text><text xml:space="preserve" font-family="Helvetica-Light,Helvetica" font-size="24.0" fill="#FEFFFE" transform="matrix(1.00, 0.00, -0.00, -1.00, 866.4, 448.8)">l</text><text xml:space="preserve" font-family="Helvetica-Light,Helvetica" font-size="24.0" fill="#FEFFFE" transform="matrix(1.00, 0.00, -0.00, -1.00, 871.7, 448.8)">i</text><text xml:space="preserve" font-family="Helvetica-Light,Helvetica" font-size="24.0" fill="#FEFFFE" transform="matrix(1.00, 0.00, -0.00, -1.00, 877.0, 448.8)">e</text><text xml:space="preserve" font-family="Helvetica-Light,Helvetica" font-size="24.0" fill="#FEFFFE" transform="matrix(1.00, 0.00, -0.00, -1.00, 890.4, 448.8)">n</text><text xml:space="preserve" font-family="Helvetica-Light,Helvetica" font-size="24.0" fill="#FEFFFE" transform="matrix(1.00, 0.00, -0.00, -1.00, 903.7, 448.8)">t</text></g></g><image xlink:href="61EF7C25FEA33DFB7F51BD5C6EE08153.png" width="193.00" height="74.00" transform="matrix(1.00, 0.00, -0.00, -1.00, 525.8, 312.2)" opacity="0.50"></image><g><clipPath id="clip0x608000cb95c0"><path d="M 529.0 308.0 L 714.0 308.0 L 714.0 242.0 L 529.0 242.0 Z M 528.8 308.2 "></path></clipPath><g clip-path="url(#clip0x608000cb95c0)"><image xlink:href="54AAA609FA4289ED6813ACB24DD77507.png" width="600.00" height="600.00" transform="matrix(0.50, 0.00, -0.00, -0.50, 529.0, 308.0)"></image></g></g><g><clipPath id="clip0x608000cb9d40"><path d="M 526.8 240.2 L 890.4 240.2 L 890.4 310.2 L 526.8 310.2 Z M 526.8 240.2 "></path></clipPath><g clip-path="url(#clip0x608000cb9d40)"><text xml:space="preserve" font-family="Helvetica-Bold,Helvetica" font-weight="bold" font-size="24.0" fill="#FEFFFE" transform="matrix(1.00, 0.00, -0.00, -1.00, 536.6, 280.7)">s</text><text xml:space="preserve" font-family="Helvetica-Bold,Helvetica" font-weight="bold" font-size="24.0" fill="#FEFFFE" transform="matrix(1.00, 0.00, -0.00, -1.00, 549.9, 280.7)">h</text><text xml:space="preserve" font-family="Helvetica-Bold,Helvetica" font-weight="bold" font-size="24.0" fill="#FEFFFE" transform="matrix(1.00, 0.00, -0.00, -1.00, 564.6, 280.7)">o</text><text xml:space="preserve" font-family="Helvetica-Bold,Helvetica" font-weight="bold" font-size="24.0" fill="#FEFFFE" transform="matrix(1.00, 0.00, -0.00, -1.00, 579.2, 280.7)">o</text><text xml:space="preserve" font-family="Helvetica-Bold,Helvetica" font-weight="bold" font-size="24.0" fill="#FEFFFE" transform="matrix(1.00, 0.00, -0.00, -1.00, 593.9, 280.7)">t</text><text xml:space="preserve" font-family="Helvetica-Bold,Helvetica" font-weight="bold" font-size="24.0" fill="#FEFFFE" transform="matrix(1.00, 0.00, -0.00, -1.00, 601.9, 280.7)">-</text><text xml:space="preserve" font-family="Helvetica-Bold,Helvetica" font-weight="bold" font-size="24.0" fill="#FEFFFE" transform="matrix(1.00, 0.00, -0.00, -1.00, 609.9, 280.7)">s</text><text xml:space="preserve" font-family="Helvetica-Bold,Helvetica" font-weight="bold" font-size="24.0" fill="#FEFFFE" transform="matrix(1.00, 0.00, -0.00, -1.00, 623.2, 280.7)">e</text><text xml:space="preserve" font-family="Helvetica-Bold,Helvetica" font-weight="bold" font-size="24.0" fill="#FEFFFE" transform="matrix(1.00, 0.00, -0.00, -1.00, 636.6, 280.7)">r</text><text xml:space="preserve" font-family="Helvetica-Bold,Helvetica" font-weight="bold" font-size="24.0" fill="#FEFFFE" transform="matrix(1.00, 0.00, -0.00, -1.00, 645.9, 280.7)">v</text><text xml:space="preserve" font-family="Helvetica-Bold,Helvetica" font-weight="bold" font-size="24.0" fill="#FEFFFE" transform="matrix(1.00, 0.00, -0.00, -1.00, 659.3, 280.7)">i</text><text xml:space="preserve" font-family="Helvetica-Bold,Helvetica" font-weight="bold" font-size="24.0" fill="#FEFFFE" transform="matrix(1.00, 0.00, -0.00, -1.00, 666.0, 280.7)">c</text><text xml:space="preserve" font-family="Helvetica-Bold,Helvetica" font-weight="bold" font-size="24.0" fill="#FEFFFE" transform="matrix(1.00, 0.00, -0.00, -1.00, 679.3, 280.7)">e</text><text xml:space="preserve" font-family="Helvetica-Bold,Helvetica" font-weight="bold" font-size="24.0" fill="#FEFFFE" transform="matrix(1.00, 0.00, -0.00, -1.00, 692.7, 280.7)">s</text><text xml:space="preserve" font-family="Helvetica-Light,Helvetica" font-size="24.0" fill="#FEFFFE" transform="matrix(1.00, 0.00, -0.00, -1.00, 582.6, 251.7)">s</text><text xml:space="preserve" font-family="Helvetica-Light,Helvetica" font-size="24.0" fill="#FEFFFE" transform="matrix(1.00, 0.00, -0.00, -1.00, 594.6, 251.7)">e</text><text xml:space="preserve" font-family="Helvetica-Light,Helvetica" font-size="24.0" fill="#FEFFFE" transform="matrix(1.00, 0.00, -0.00, -1.00, 608.0, 251.7)">r</text><text xml:space="preserve" font-family="Helvetica-Light,Helvetica" font-size="24.0" fill="#FEFFFE" transform="matrix(1.00, 0.00, -0.00, -1.00, 615.9, 251.7)">v</text><text xml:space="preserve" font-family="Helvetica-Light,Helvetica" font-size="24.0" fill="#FEFFFE" transform="matrix(1.00, 0.00, -0.00, -1.00, 627.9, 251.7)">i</text><text xml:space="preserve" font-family="Helvetica-Light,Helvetica" font-size="24.0" fill="#FEFFFE" transform="matrix(1.00, 0.00, -0.00, -1.00, 633.3, 251.7)">c</text><text xml:space="preserve" font-family="Helvetica-Light,Helvetica" font-size="24.0" fill="#FEFFFE" transform="matrix(1.00, 0.00, -0.00, -1.00, 646.6, 251.7)">e</text></g></g><image xlink:href="FE09E759231677CF27B766F1E5A1C3C3.png" width="190.00" height="41.00" transform="matrix(1.00, 0.00, -0.00, -1.00, 754.7, 382.3)" opacity="0.79"></image><g><clipPath id="clip0x600000cad140"><path d="M 755.0 382.0 L 942.0 382.0 L 942.0 345.0 L 755.0 345.0 Z M 755.2 381.6 "></path></clipPath><g clip-path="url(#clip0x600000cad140)"><image xlink:href="80178DB44A976F13345376CE634CB034.png" width="600.00" height="600.00" transform="matrix(0.50, 0.00, -0.00, -0.50, 755.0, 382.0)"></image></g></g><g><clipPath id="clip0x618000ab1640"><path d="M 753.2 342.6 L 943.5 342.6 L 943.5 383.6 L 753.2 383.6 Z M 753.2 342.6 "></path></clipPath><g clip-path="url(#clip0x618000ab1640)"><text xml:space="preserve" font-family="Helvetica-Light,Helvetica" font-size="24.0" fill="#FEFFFE" transform="matrix(1.00, 0.00, -0.00, -1.00, 759.7, 354.1)">s</text><text xml:space="preserve" font-family="Helvetica-Light,Helvetica" font-size="24.0" fill="#FEFFFE" transform="matrix(1.00, 0.00, -0.00, -1.00, 771.7, 354.1)">h</text><text xml:space="preserve" font-family="Helvetica-Light,Helvetica" font-size="24.0" fill="#FEFFFE" transform="matrix(1.00, 0.00, -0.00, -1.00, 785.0, 354.1)">o</text><text xml:space="preserve" font-family="Helvetica-Light,Helvetica" font-size="24.0" fill="#FEFFFE" transform="matrix(1.00, 0.00, -0.00, -1.00, 798.4, 354.1)">o</text><text xml:space="preserve" font-family="Helvetica-Light,Helvetica" font-size="24.0" fill="#FEFFFE" transform="matrix(1.00, 0.00, -0.00, -1.00, 811.7, 354.1)">t</text><text xml:space="preserve" font-family="Helvetica-Light,Helvetica" font-size="24.0" fill="#FEFFFE" transform="matrix(1.00, 0.00, -0.00, -1.00, 818.4, 354.1)">-</text><text xml:space="preserve" font-family="Helvetica-Light,Helvetica" font-size="24.0" fill="#FEFFFE" transform="matrix(1.00, 0.00, -0.00, -1.00, 826.4, 354.1)">t</text><text xml:space="preserve" font-family="Helvetica-Light,Helvetica" font-size="24.0" fill="#FEFFFE" transform="matrix(1.00, 0.00, -0.00, -1.00, 833.0, 354.1)">h</text><text xml:space="preserve" font-family="Helvetica-Light,Helvetica" font-size="24.0" fill="#FEFFFE" transform="matrix(1.00, 0.00, -0.00, -1.00, 846.4, 354.1)">i</text><text xml:space="preserve" font-family="Helvetica-Light,Helvetica" font-size="24.0" fill="#FEFFFE" transform="matrix(1.00, 0.00, -0.00, -1.00, 851.7, 354.1)">r</text><text xml:space="preserve" font-family="Helvetica-Light,Helvetica" font-size="24.0" fill="#FEFFFE" transform="matrix(1.00, 0.00, -0.00, -1.00, 859.3, 354.1)">d</text><text xml:space="preserve" font-family="Helvetica-Light,Helvetica" font-size="24.0" fill="#FEFFFE" transform="matrix(1.00, 0.00, -0.00, -1.00, 873.9, 354.1)">-</text><text xml:space="preserve" font-family="Helvetica-Light,Helvetica" font-size="24.0" fill="#FEFFFE" transform="matrix(1.00, 0.00, -0.00, -1.00, 881.9, 354.1)">p</text><text xml:space="preserve" font-family="Helvetica-Light,Helvetica" font-size="24.0" fill="#FEFFFE" transform="matrix(1.00, 0.00, -0.00, -1.00, 896.6, 354.1)">a</text><text xml:space="preserve" font-family="Helvetica-Light,Helvetica" font-size="24.0" fill="#FEFFFE" transform="matrix(1.00, 0.00, -0.00, -1.00, 909.9, 354.1)">r</text><text xml:space="preserve" font-family="Helvetica-Light,Helvetica" font-size="24.0" fill="#FEFFFE" transform="matrix(1.00, 0.00, -0.00, -1.00, 918.4, 354.1)">t</text><text xml:space="preserve" font-family="Helvetica-Light,Helvetica" font-size="24.0" fill="#FEFFFE" transform="matrix(1.00, 0.00, -0.00, -1.00, 925.0, 354.1)">y</text></g></g><image xlink:href="4EF087E65D661D036EAA917F1C6A23B1.png" width="187.00" height="74.00" transform="matrix(1.00, 0.00, -0.00, -1.00, 269.8, 182.6)" opacity="0.50"></image><g><clipPath id="clip0x608000cb9140"><path d="M 273.0 179.0 L 452.0 179.0 L 452.0 113.0 L 273.0 113.0 Z M 272.8 178.6 "></path></clipPath><g clip-path="url(#clip0x608000cb9140)"><image xlink:href="../../3F69B0A0-68DD-4DA4-9442-12FEC826F1F1/assets/54AAA609FA4289ED6813ACB24DD77507.png" width="600.00" height="600.00" transform="matrix(0.50, 0.00, -0.00, -0.50, 273.0, 179.0)"></image></g></g><g><clipPath id="clip0x608000cb8f00"><path d="M 270.8 110.6 L 623.3 110.6 L 623.3 180.6 L 270.8 180.6 Z M 270.8 110.6 "></path></clipPath><g clip-path="url(#clip0x608000cb8f00)"><text xml:space="preserve" font-family="Helvetica-Bold,Helvetica" font-weight="bold" font-size="24.0" fill="#FEFFFE" transform="matrix(1.00, 0.00, -0.00, -1.00, 284.0, 151.1)">J</text><text xml:space="preserve" font-family="Helvetica-Bold,Helvetica" font-weight="bold" font-size="24.0" fill="#FEFFFE" transform="matrix(1.00, 0.00, -0.00, -1.00, 297.3, 151.1)">B</text><text xml:space="preserve" font-family="Helvetica-Bold,Helvetica" font-weight="bold" font-size="24.0" fill="#FEFFFE" transform="matrix(1.00, 0.00, -0.00, -1.00, 314.7, 151.1)">o</text><text xml:space="preserve" font-family="Helvetica-Bold,Helvetica" font-weight="bold" font-size="24.0" fill="#FEFFFE" transform="matrix(1.00, 0.00, -0.00, -1.00, 329.3, 151.1)">s</text><text xml:space="preserve" font-family="Helvetica-Bold,Helvetica" font-weight="bold" font-size="24.0" fill="#FEFFFE" transform="matrix(1.00, 0.00, -0.00, -1.00, 342.7, 151.1)">s</text><text xml:space="preserve" font-family="Helvetica-Bold,Helvetica" font-weight="bold" font-size="24.0" fill="#FEFFFE" transform="matrix(1.00, 0.00, -0.00, -1.00, 356.0, 151.1)">/</text><text xml:space="preserve" font-family="Helvetica-Bold,Helvetica" font-weight="bold" font-size="24.0" fill="#FEFFFE" transform="matrix(1.00, 0.00, -0.00, -1.00, 362.7, 151.1)">W</text><text xml:space="preserve" font-family="Helvetica-Bold,Helvetica" font-weight="bold" font-size="24.0" fill="#FEFFFE" transform="matrix(1.00, 0.00, -0.00, -1.00, 385.1, 151.1)">i</text><text xml:space="preserve" font-family="Helvetica-Bold,Helvetica" font-weight="bold" font-size="24.0" fill="#FEFFFE" transform="matrix(1.00, 0.00, -0.00, -1.00, 391.8, 151.1)">l</text><text xml:space="preserve" font-family="Helvetica-Bold,Helvetica" font-weight="bold" font-size="24.0" fill="#FEFFFE" transform="matrix(1.00, 0.00, -0.00, -1.00, 398.5, 151.1)">d</text><text xml:space="preserve" font-family="Helvetica-Bold,Helvetica" font-weight="bold" font-size="24.0" fill="#FEFFFE" transform="matrix(1.00, 0.00, -0.00, -1.00, 413.1, 151.1)">ﬂ</text><text xml:space="preserve" font-family="Helvetica-Bold,Helvetica" font-weight="bold" font-size="24.0" fill="#FEFFFE" transform="matrix(1.00, 0.00, -0.00, -1.00, 427.8, 151.1)">y</text><text xml:space="preserve" font-family="Helvetica-Bold,Helvetica" font-weight="bold" font-size="24.0" fill="#FEFFFE" transform="matrix(1.00, 0.00, -0.00, -1.00, 441.2, 151.1)"> </text><text xml:space="preserve" font-family="Helvetica-Light,Helvetica" font-size="24.0" fill="#FEFFFE" transform="matrix(1.00, 0.00, -0.00, -1.00, 320.5, 122.1)">a</text><text xml:space="preserve" font-family="Helvetica-Light,Helvetica" font-size="24.0" fill="#FEFFFE" transform="matrix(1.00, 0.00, -0.00, -1.00, 333.9, 122.1)">d</text><text xml:space="preserve" font-family="Helvetica-Light,Helvetica" font-size="24.0" fill="#FEFFFE" transform="matrix(1.00, 0.00, -0.00, -1.00, 348.5, 122.1)">a</text><text xml:space="preserve" font-family="Helvetica-Light,Helvetica" font-size="24.0" fill="#FEFFFE" transform="matrix(1.00, 0.00, -0.00, -1.00, 361.9, 122.1)">p</text><text xml:space="preserve" font-family="Helvetica-Light,Helvetica" font-size="24.0" fill="#FEFFFE" transform="matrix(1.00, 0.00, -0.00, -1.00, 376.5, 122.1)">t</text><text xml:space="preserve" font-family="Helvetica-Light,Helvetica" font-size="24.0" fill="#FEFFFE" transform="matrix(1.00, 0.00, -0.00, -1.00, 383.2, 122.1)">e</text><text xml:space="preserve" font-family="Helvetica-Light,Helvetica" font-size="24.0" fill="#FEFFFE" transform="matrix(1.00, 0.00, -0.00, -1.00, 396.6, 122.1)">r</text></g></g><text xml:space="preserve" font-family="Helvetica-Bold,Helvetica" font-weight="bold" font-size="24.0" fill="#FEFFFE" transform="matrix(1.00, 0.00, -0.00, -1.00, 134.2, 115.3)">w</text><image xlink:href="284BD4A0AE700BB6E7C6C57281A7591A.png" width="143.00" height="72.00" transform="matrix(1.00, 0.00, -0.00, -1.00, 475.1, 179.6)" opacity="0.50"></image><g><clipPath id="clip0x600000cae040"><path d="M 478.0 179.0 L 615.0 179.0 L 615.0 113.0 L 478.0 113.0 Z M 478.1 178.6 "></path></clipPath><g clip-path="url(#clip0x600000cae040)"><image xlink:href="../../3F69B0A0-68DD-4DA4-9442-12FEC826F1F1/assets/79559B53344726561A56900E5F7EFED3.png" width="600.00" height="600.00" transform="matrix(0.50, 0.00, -0.00, -0.50, 478.0, 179.0)"></image></g></g><g><clipPath id="clip0x600000cadf80"><path d="M 476.1 110.6 L 743.8 110.6 L 743.8 180.6 L 476.1 180.6 Z M 476.1 110.6 "></path></clipPath><g clip-path="url(#clip0x600000cadf80)"><text xml:space="preserve" font-family="Helvetica-Bold,Helvetica" font-weight="bold" font-size="24.0" fill="#FEFFFE" transform="matrix(1.00, 0.00, -0.00, -1.00, 486.0, 151.1)">J</text><text xml:space="preserve" font-family="Helvetica-Bold,Helvetica" font-weight="bold" font-size="24.0" fill="#FEFFFE" transform="matrix(1.00, 0.00, -0.00, -1.00, 499.3, 151.1)">a</text><text xml:space="preserve" font-family="Helvetica-Bold,Helvetica" font-weight="bold" font-size="24.0" fill="#FEFFFE" transform="matrix(1.00, 0.00, -0.00, -1.00, 512.7, 151.1)">v</text><text xml:space="preserve" font-family="Helvetica-Bold,Helvetica" font-weight="bold" font-size="24.0" fill="#FEFFFE" transform="matrix(1.00, 0.00, -0.00, -1.00, 526.0, 151.1)">a</text><text xml:space="preserve" font-family="Helvetica-Bold,Helvetica" font-weight="bold" font-size="24.0" fill="#FEFFFE" transform="matrix(1.00, 0.00, -0.00, -1.00, 539.4, 151.1)">S</text><text xml:space="preserve" font-family="Helvetica-Bold,Helvetica" font-weight="bold" font-size="24.0" fill="#FEFFFE" transform="matrix(1.00, 0.00, -0.00, -1.00, 555.4, 151.1)">c</text><text xml:space="preserve" font-family="Helvetica-Bold,Helvetica" font-weight="bold" font-size="24.0" fill="#FEFFFE" transform="matrix(1.00, 0.00, -0.00, -1.00, 568.7, 151.1)">r</text><text xml:space="preserve" font-family="Helvetica-Bold,Helvetica" font-weight="bold" font-size="24.0" fill="#FEFFFE" transform="matrix(1.00, 0.00, -0.00, -1.00, 578.1, 151.1)">i</text><text xml:space="preserve" font-family="Helvetica-Bold,Helvetica" font-weight="bold" font-size="24.0" fill="#FEFFFE" transform="matrix(1.00, 0.00, -0.00, -1.00, 584.8, 151.1)">p</text><text xml:space="preserve" font-family="Helvetica-Bold,Helvetica" font-weight="bold" font-size="24.0" fill="#FEFFFE" transform="matrix(1.00, 0.00, -0.00, -1.00, 599.4, 151.1)">t</text><text xml:space="preserve" font-family="Helvetica-Light,Helvetica" font-size="24.0" fill="#FEFFFE" transform="matrix(1.00, 0.00, -0.00, -1.00, 504.7, 122.1)">a</text><text xml:space="preserve" font-family="Helvetica-Light,Helvetica" font-size="24.0" fill="#FEFFFE" transform="matrix(1.00, 0.00, -0.00, -1.00, 518.0, 122.1)">d</text><text xml:space="preserve" font-family="Helvetica-Light,Helvetica" font-size="24.0" fill="#FEFFFE" transform="matrix(1.00, 0.00, -0.00, -1.00, 532.7, 122.1)">a</text><text xml:space="preserve" font-family="Helvetica-Light,Helvetica" font-size="24.0" fill="#FEFFFE" transform="matrix(1.00, 0.00, -0.00, -1.00, 546.0, 122.1)">p</text><text xml:space="preserve" font-family="Helvetica-Light,Helvetica" font-size="24.0" fill="#FEFFFE" transform="matrix(1.00, 0.00, -0.00, -1.00, 560.7, 122.1)">t</text><text xml:space="preserve" font-family="Helvetica-Light,Helvetica" font-size="24.0" fill="#FEFFFE" transform="matrix(1.00, 0.00, -0.00, -1.00, 567.4, 122.1)">e</text><text xml:space="preserve" font-family="Helvetica-Light,Helvetica" font-size="24.0" fill="#FEFFFE" transform="matrix(1.00, 0.00, -0.00, -1.00, 580.7, 122.1)">r</text></g></g><image xlink:href="419DFB584E85904FF1B0AC47D4515FBC.png" width="141.00" height="43.00" transform="matrix(1.00, 0.00, -0.00, -1.00, 258.3, 517.8)" opacity="0.50"></image><g><clipPath id="clip0x600000cade60"><path d="M 261.0 517.0 L 397.0 517.0 L 397.0 480.0 L 261.0 480.0 Z M 261.3 516.8 "></path></clipPath><g clip-path="url(#clip0x600000cade60)"><image xlink:href="../../3F69B0A0-68DD-4DA4-9442-12FEC826F1F1/assets/8571D34485008A2B4E76C6C919FEC199.png" width="600.00" height="600.00" transform="matrix(0.50, 0.00, -0.00, -0.50, 261.0, 517.0)"></image></g></g><g><clipPath id="clip0x600000cae220"><path d="M 259.3 477.8 L 398.5 477.8 L 398.5 518.8 L 259.3 518.8 Z M 259.3 477.8 "></path></clipPath><g clip-path="url(#clip0x600000cae220)"><text xml:space="preserve" font-family="Helvetica-Light,Helvetica" font-size="24.0" fill="#FEFFFE" transform="matrix(1.00, 0.00, -0.00, -1.00, 265.8, 489.3)">s</text><text xml:space="preserve" font-family="Helvetica-Light,Helvetica" font-size="24.0" fill="#FEFFFE" transform="matrix(1.00, 0.00, -0.00, -1.00, 277.8, 489.3)">h</text><text xml:space="preserve" font-family="Helvetica-Light,Helvetica" font-size="24.0" fill="#FEFFFE" transform="matrix(1.00, 0.00, -0.00, -1.00, 291.1, 489.3)">o</text><text xml:space="preserve" font-family="Helvetica-Light,Helvetica" font-size="24.0" fill="#FEFFFE" transform="matrix(1.00, 0.00, -0.00, -1.00, 304.4, 489.3)">o</text><text xml:space="preserve" font-family="Helvetica-Light,Helvetica" font-size="24.0" fill="#FEFFFE" transform="matrix(1.00, 0.00, -0.00, -1.00, 317.8, 489.3)">t</text><text xml:space="preserve" font-family="Helvetica-Light,Helvetica" font-size="24.0" fill="#FEFFFE" transform="matrix(1.00, 0.00, -0.00, -1.00, 324.5, 489.3)">-</text><text xml:space="preserve" font-family="Helvetica-Light,Helvetica" font-size="24.0" fill="#FEFFFE" transform="matrix(1.00, 0.00, -0.00, -1.00, 332.5, 489.3)">r</text><text xml:space="preserve" font-family="Helvetica-Light,Helvetica" font-size="24.0" fill="#FEFFFE" transform="matrix(1.00, 0.00, -0.00, -1.00, 340.0, 489.3)">e</text><text xml:space="preserve" font-family="Helvetica-Light,Helvetica" font-size="24.0" fill="#FEFFFE" transform="matrix(1.00, 0.00, -0.00, -1.00, 353.4, 489.3)">a</text><text xml:space="preserve" font-family="Helvetica-Light,Helvetica" font-size="24.0" fill="#FEFFFE" transform="matrix(1.00, 0.00, -0.00, -1.00, 366.7, 489.3)">l</text><text xml:space="preserve" font-family="Helvetica-Light,Helvetica" font-size="24.0" fill="#FEFFFE" transform="matrix(1.00, 0.00, -0.00, -1.00, 372.0, 489.3)">m</text></g></g></g></svg>