<?xml version="1.0" encoding="UTF-8" standalone="no"?><svg xmlns="http://www.w3.org/2000/svg" xmlns:xlink="http://www.w3.org/1999/xlink" clip-rule="evenodd" stroke-miterlimit="10" viewBox="0 0 699 217"><desc>SVG generated by Keynote</desc><defs></defs><g transform="matrix(1.00, 0.00, -0.00, -1.00, 0.0, 217.0)"><image xlink:href="../../271CDC57-B879-47F1-AF51-6EFA8A37D577/assets/2B1BE26AC41F003D2FF8D158ABB69E33.png" width="696.00" height="150.00" transform="matrix(1.00, 0.00, -0.00, -1.00, 1.9, 151.0)" opacity="0.51"></image><path d="M 128.5 214.5 C 125.1 214.9 122.5 212.2 122.5 208.9 L 122.5 122.6 C 122.5 119.2 125.1 116.5 128.5 116.5 L 208.4 116.5 L 216.6 1.1 L 224.7 116.5 L 571.0 116.5 C 574.3 116.5 577.5 119.2 577.5 122.6 L 577.5 208.9 C 577.5 212.2 574.3 214.5 571.0 214.5 L 128.5 214.5 Z M 128.5 214.9 " fill="#FEFFFE"></path><path d="M 6.1 0.4 C 2.7 0.0 0.1 2.7 0.1 6.1 L 0.1 92.4 C 0.1 95.7 2.7 98.4 6.1 98.4 L 86.0 98.4 L 94.2 213.9 L 102.3 98.4 L 448.6 98.4 C 451.9 98.4 455.1 95.7 455.1 92.4 L 455.1 6.1 C 455.1 2.7 451.9 0.4 448.6 0.4 L 6.1 0.4 Z M 6.1 0.0 " fill="none" stroke="#000000" stroke-width="1.00" transform="matrix(1.00, 0.00, 0.00, -1.00, 122.4, 214.9)"></path><g><clipPath id="clip0x608000caada0"><path d="M 118.5 116.5 L 580.9 116.5 L 580.9 214.9 L 118.5 214.9 Z M 118.5 116.5 "></path></clipPath><g clip-path="url(#clip0x608000caada0)"><text xml:space="preserve" font-family="ComicSansMS,Comic Sans MS" font-size="24.0" fill="#000000" transform="matrix(1.00, 0.00, -0.00, -1.00, 126.9, 172.8)">I</text><text xml:space="preserve" font-family="ComicSansMS,Comic Sans MS" font-size="24.0" fill="#000000" transform="matrix(1.00, 0.00, -0.00, -1.00, 140.0, 172.8)"> </text><text xml:space="preserve" font-family="ComicSansMS,Comic Sans MS" font-size="24.0" fill="#000000" transform="matrix(1.00, 0.00, -0.00, -1.00, 147.2, 172.8)">w</text><text xml:space="preserve" font-family="ComicSansMS,Comic Sans MS" font-size="24.0" fill="#000000" transform="matrix(1.00, 0.00, -0.00, -1.00, 163.6, 172.8)">o</text><text xml:space="preserve" font-family="ComicSansMS,Comic Sans MS" font-size="24.0" fill="#000000" transform="matrix(1.00, 0.00, -0.00, -1.00, 176.2, 172.8)">n</text><text xml:space="preserve" font-family="ComicSansMS,Comic Sans MS" font-size="24.0" fill="#000000" transform="matrix(1.00, 0.00, -0.00, -1.00, 188.8, 172.8)">d</text><text xml:space="preserve" font-family="ComicSansMS,Comic Sans MS" font-size="24.0" fill="#000000" transform="matrix(1.00, 0.00, -0.00, -1.00, 202.9, 172.8)">e</text><text xml:space="preserve" font-family="ComicSansMS,Comic Sans MS" font-size="24.0" fill="#000000" transform="matrix(1.00, 0.00, -0.00, -1.00, 216.1, 172.8)">r</text><text xml:space="preserve" font-family="ComicSansMS,Comic Sans MS" font-size="24.0" fill="#000000" transform="matrix(1.00, 0.00, -0.00, -1.00, 227.6, 172.8)"> </text><text xml:space="preserve" font-family="ComicSansMS,Comic Sans MS" font-size="24.0" fill="#000000" transform="matrix(1.00, 0.00, -0.00, -1.00, 234.8, 172.8)">h</text><text xml:space="preserve" font-family="ComicSansMS,Comic Sans MS" font-size="24.0" fill="#000000" transform="matrix(1.00, 0.00, -0.00, -1.00, 248.6, 172.8)">o</text><text xml:space="preserve" font-family="ComicSansMS,Comic Sans MS" font-size="24.0" fill="#000000" transform="matrix(1.00, 0.00, -0.00, -1.00, 261.2, 172.8)">w</text><text xml:space="preserve" font-family="ComicSansMS,Comic Sans MS" font-size="24.0" fill="#000000" transform="matrix(1.00, 0.00, -0.00, -1.00, 277.7, 172.8)"> </text><text xml:space="preserve" font-family="ComicSansMS,Comic Sans MS" font-size="24.0" fill="#000000" transform="matrix(1.00, 0.00, -0.00, -1.00, 284.8, 172.8)">y</text><text xml:space="preserve" font-family="ComicSansMS,Comic Sans MS" font-size="24.0" fill="#000000" transform="matrix(1.00, 0.00, -0.00, -1.00, 297.3, 172.8)">o</text><text xml:space="preserve" font-family="ComicSansMS,Comic Sans MS" font-size="24.0" fill="#000000" transform="matrix(1.00, 0.00, -0.00, -1.00, 309.9, 172.8)">u</text><text xml:space="preserve" font-family="ComicSansMS,Comic Sans MS" font-size="24.0" fill="#000000" transform="matrix(1.00, 0.00, -0.00, -1.00, 322.4, 172.8)"> </text><text xml:space="preserve" font-family="ComicSansMS,Comic Sans MS" font-size="24.0" fill="#000000" transform="matrix(1.00, 0.00, -0.00, -1.00, 329.6, 172.8)">c</text><text xml:space="preserve" font-family="ComicSansMS,Comic Sans MS" font-size="24.0" fill="#000000" transform="matrix(1.00, 0.00, -0.00, -1.00, 341.9, 172.8)">a</text><text xml:space="preserve" font-family="ComicSansMS,Comic Sans MS" font-size="24.0" fill="#000000" transform="matrix(1.00, 0.00, -0.00, -1.00, 354.2, 172.8)">n</text><text xml:space="preserve" font-family="ComicSansMS,Comic Sans MS" font-size="24.0" fill="#000000" transform="matrix(1.00, 0.00, -0.00, -1.00, 366.7, 172.8)"> </text><text xml:space="preserve" font-family="ComicSansMS,Comic Sans MS" font-size="24.0" fill="#000000" transform="matrix(1.00, 0.00, -0.00, -1.00, 373.9, 172.8)">p</text><text xml:space="preserve" font-family="ComicSansMS,Comic Sans MS" font-size="24.0" fill="#000000" transform="matrix(1.00, 0.00, -0.00, -1.00, 386.7, 172.8)">r</text><text xml:space="preserve" font-family="ComicSansMS,Comic Sans MS" font-size="24.0" fill="#000000" transform="matrix(1.00, 0.00, -0.00, -1.00, 398.3, 172.8)">o</text><text xml:space="preserve" font-family="ComicSansMS,Comic Sans MS" font-size="24.0" fill="#000000" transform="matrix(1.00, 0.00, -0.00, -1.00, 410.9, 172.8)">t</text><text xml:space="preserve" font-family="ComicSansMS,Comic Sans MS" font-size="24.0" fill="#000000" transform="matrix(1.00, 0.00, -0.00, -1.00, 422.2, 172.8)">e</text><text xml:space="preserve" font-family="ComicSansMS,Comic Sans MS" font-size="24.0" fill="#000000" transform="matrix(1.00, 0.00, -0.00, -1.00, 435.4, 172.8)">c</text><text xml:space="preserve" font-family="ComicSansMS,Comic Sans MS" font-size="24.0" fill="#000000" transform="matrix(1.00, 0.00, -0.00, -1.00, 447.7, 172.8)">t</text><text xml:space="preserve" font-family="ComicSansMS,Comic Sans MS" font-size="24.0" fill="#000000" transform="matrix(1.00, 0.00, -0.00, -1.00, 459.0, 172.8)"> </text><text xml:space="preserve" font-family="ComicSansMS,Comic Sans MS" font-size="24.0" fill="#000000" transform="matrix(1.00, 0.00, -0.00, -1.00, 466.2, 172.8)">y</text><text xml:space="preserve" font-family="ComicSansMS,Comic Sans MS" font-size="24.0" fill="#000000" transform="matrix(1.00, 0.00, -0.00, -1.00, 478.6, 172.8)">o</text><text xml:space="preserve" font-family="ComicSansMS,Comic Sans MS" font-size="24.0" fill="#000000" transform="matrix(1.00, 0.00, -0.00, -1.00, 491.3, 172.8)">u</text><text xml:space="preserve" font-family="ComicSansMS,Comic Sans MS" font-size="24.0" fill="#000000" transform="matrix(1.00, 0.00, -0.00, -1.00, 503.7, 172.8)">r</text><text xml:space="preserve" font-family="ComicSansMS,Comic Sans MS" font-size="24.0" fill="#000000" transform="matrix(1.00, 0.00, -0.00, -1.00, 515.3, 172.8)"> </text><text xml:space="preserve" font-family="ComicSansMS,Comic Sans MS" font-size="24.0" fill="#000000" transform="matrix(1.00, 0.00, -0.00, -1.00, 522.4, 172.8)">o</text><text xml:space="preserve" font-family="ComicSansMS,Comic Sans MS" font-size="24.0" fill="#000000" transform="matrix(1.00, 0.00, -0.00, -1.00, 535.1, 172.8)">w</text><text xml:space="preserve" font-family="ComicSansMS,Comic Sans MS" font-size="24.0" fill="#000000" transform="matrix(1.00, 0.00, -0.00, -1.00, 551.5, 172.8)">n</text><text xml:space="preserve" font-family="ComicSansMS,Comic Sans MS" font-size="24.0" fill="#000000" transform="matrix(1.00, 0.00, -0.00, -1.00, 564.1, 172.8)"> </text><text xml:space="preserve" font-family="ComicSansMS,Comic Sans MS" font-size="24.0" fill="#000000" transform="matrix(1.00, 0.00, -0.00, -1.00, 126.9, 139.8)">r</text><text xml:space="preserve" font-family="ComicSansMS,Comic Sans MS" font-size="24.0" fill="#000000" transform="matrix(1.00, 0.00, -0.00, -1.00, 138.4, 139.8)">e</text><text xml:space="preserve" font-family="ComicSansMS,Comic Sans MS" font-size="24.0" fill="#000000" transform="matrix(1.00, 0.00, -0.00, -1.00, 151.6, 139.8)">s</text><text xml:space="preserve" font-family="ComicSansMS,Comic Sans MS" font-size="24.0" fill="#000000" transform="matrix(1.00, 0.00, -0.00, -1.00, 163.3, 139.8)">o</text><text xml:space="preserve" font-family="ComicSansMS,Comic Sans MS" font-size="24.0" fill="#000000" transform="matrix(1.00, 0.00, -0.00, -1.00, 175.9, 139.8)">u</text><text xml:space="preserve" font-family="ComicSansMS,Comic Sans MS" font-size="24.0" fill="#000000" transform="matrix(1.00, 0.00, -0.00, -1.00, 188.4, 139.8)">r</text><text xml:space="preserve" font-family="ComicSansMS,Comic Sans MS" font-size="24.0" fill="#000000" transform="matrix(1.00, 0.00, -0.00, -1.00, 199.9, 139.8)">c</text><text xml:space="preserve" font-family="ComicSansMS,Comic Sans MS" font-size="24.0" fill="#000000" transform="matrix(1.00, 0.00, -0.00, -1.00, 212.2, 139.8)">e</text><text xml:space="preserve" font-family="ComicSansMS,Comic Sans MS" font-size="24.0" fill="#000000" transform="matrix(1.00, 0.00, -0.00, -1.00, 225.4, 139.8)">s</text><text xml:space="preserve" font-family="ComicSansMS,Comic Sans MS" font-size="24.0" fill="#000000" transform="matrix(1.00, 0.00, -0.00, -1.00, 237.1, 139.8)"> </text><text xml:space="preserve" font-family="ComicSansMS,Comic Sans MS" font-size="24.0" fill="#000000" transform="matrix(1.00, 0.00, -0.00, -1.00, 244.2, 139.8)">u</text><text xml:space="preserve" font-family="ComicSansMS,Comic Sans MS" font-size="24.0" fill="#000000" transform="matrix(1.00, 0.00, -0.00, -1.00, 256.7, 139.8)">s</text><text xml:space="preserve" font-family="ComicSansMS,Comic Sans MS" font-size="24.0" fill="#000000" transform="matrix(1.00, 0.00, -0.00, -1.00, 268.4, 139.8)">i</text><text xml:space="preserve" font-family="ComicSansMS,Comic Sans MS" font-size="24.0" fill="#000000" transform="matrix(1.00, 0.00, -0.00, -1.00, 275.1, 139.8)">n</text><text xml:space="preserve" font-family="ComicSansMS,Comic Sans MS" font-size="24.0" fill="#000000" transform="matrix(1.00, 0.00, -0.00, -1.00, 287.7, 139.8)">g</text><text xml:space="preserve" font-family="ComicSansMS,Comic Sans MS" font-size="24.0" fill="#000000" transform="matrix(1.00, 0.00, -0.00, -1.00, 300.4, 139.8)"> </text><text xml:space="preserve" font-family="ComicSansMS,Comic Sans MS" font-size="24.0" fill="#000000" transform="matrix(1.00, 0.00, -0.00, -1.00, 307.6, 139.8)">O</text><text xml:space="preserve" font-family="ComicSansMS,Comic Sans MS" font-size="24.0" fill="#000000" transform="matrix(1.00, 0.00, -0.00, -1.00, 326.8, 139.8)">A</text><text xml:space="preserve" font-family="ComicSansMS,Comic Sans MS" font-size="24.0" fill="#000000" transform="matrix(1.00, 0.00, -0.00, -1.00, 344.3, 139.8)">u</text><text xml:space="preserve" font-family="ComicSansMS,Comic Sans MS" font-size="24.0" fill="#000000" transform="matrix(1.00, 0.00, -0.00, -1.00, 356.8, 139.8)">t</text><text xml:space="preserve" font-family="ComicSansMS,Comic Sans MS" font-size="24.0" fill="#000000" transform="matrix(1.00, 0.00, -0.00, -1.00, 368.1, 139.8)">h</text><text xml:space="preserve" font-family="ComicSansMS,Comic Sans MS" font-size="24.0" fill="#000000" transform="matrix(1.00, 0.00, -0.00, -1.00, 382.0, 139.8)">2</text><text xml:space="preserve" font-family="ComicSansMS,Comic Sans MS" font-size="24.0" fill="#000000" transform="matrix(1.00, 0.00, -0.00, -1.00, 396.6, 139.8)">…</text></g></g></g></svg>