<?xml version="1.0" encoding="UTF-8" standalone="no"?><svg xmlns="http://www.w3.org/2000/svg" xmlns:xlink="http://www.w3.org/1999/xlink" clip-rule="evenodd" stroke-miterlimit="10" viewBox="0 0 1280 720"><desc>SVG generated by Keynote</desc><defs></defs><g transform="matrix(1.00, 0.00, -0.00, -1.00, 0.0, 720.0)"><path d="M 0.0 720.0 L 1280.0 720.0 L 1280.0 0.0 L 0.0 0.0 Z M 0.0 720.0 " fill="#FFFFFF"></path><path d="M -12.0 721.0 L 1279.0 721.0 L 1279.0 592.0 L -12.0 592.0 Z M -12.0 721.0 " fill="#FFFFFF"></path><image xlink:href="../../51C09A98-96B9-4111-8917-4A6A011BFB10/assets/41194C9459DB3CBFD690A61B4CFF6222.png" width="647.00" height="120.00" transform="matrix(0.00, 1.00, 1.00, -0.00, -10.5, 54.5)"></image><path d="M 0.0 49.0 L 1289.0 49.0 L 1289.0 0.0 L 0.0 0.0 Z M 0.0 49.0 " fill="#F4AE33"></path><text xml:space="preserve" font-family="ArialMT,Arial" font-size="32.0" fill="#000000" transform="matrix(1.00, 0.00, -0.00, -1.00, 12.0, 12.3)">#</text><text xml:space="preserve" font-family="ArialMT,Arial" font-size="32.0" fill="#000000" transform="matrix(1.00, 0.00, -0.00, -1.00, 29.8, 12.3)">D</text><text xml:space="preserve" font-family="ArialMT,Arial" font-size="32.0" fill="#000000" transform="matrix(1.00, 0.00, -0.00, -1.00, 52.9, 12.3)">V</text><text xml:space="preserve" font-family="ArialMT,Arial" font-size="32.0" fill="#000000" transform="matrix(1.00, 0.00, -0.00, -1.00, 74.3, 12.3)">1</text><text xml:space="preserve" font-family="ArialMT,Arial" font-size="32.0" fill="#000000" transform="matrix(1.00, 0.00, -0.00, -1.00, 92.1, 12.3)">4</text><text xml:space="preserve" font-family="ArialMT,Arial" font-size="32.0" fill="#000000" transform="matrix(1.00, 0.00, -0.00, -1.00, 109.9, 12.3)"> </text><text xml:space="preserve" font-family="ArialMT,Arial" font-size="32.0" fill="#000000" transform="matrix(1.00, 0.00, -0.00, -1.00, 118.8, 12.3)"> </text><text xml:space="preserve" font-family="ArialMT,Arial" font-size="32.0" fill="#000000" transform="matrix(1.00, 0.00, -0.00, -1.00, 127.6, 12.3)">#</text><text xml:space="preserve" font-family="ArialMT,Arial" font-size="32.0" fill="#000000" transform="matrix(1.00, 0.00, -0.00, -1.00, 145.4, 12.3)">O</text><text xml:space="preserve" font-family="ArialMT,Arial" font-size="32.0" fill="#000000" transform="matrix(1.00, 0.00, -0.00, -1.00, 170.3, 12.3)">A</text><text xml:space="preserve" font-family="ArialMT,Arial" font-size="32.0" fill="#000000" transform="matrix(1.00, 0.00, -0.00, -1.00, 191.6, 12.3)">u</text><text xml:space="preserve" font-family="ArialMT,Arial" font-size="32.0" fill="#000000" transform="matrix(1.00, 0.00, -0.00, -1.00, 209.5, 12.3)">t</text><text xml:space="preserve" font-family="ArialMT,Arial" font-size="32.0" fill="#000000" transform="matrix(1.00, 0.00, -0.00, -1.00, 218.3, 12.3)">h</text><text xml:space="preserve" font-family="ArialMT,Arial" font-size="32.0" fill="#000000" transform="matrix(1.00, 0.00, -0.00, -1.00, 236.1, 12.3)">2</text><text xml:space="preserve" font-family="ArialMT,Arial" font-size="32.0" fill="#000000" transform="matrix(1.00, 0.00, -0.00, -1.00, 253.9, 12.3)"> </text><text xml:space="preserve" font-family="ArialMT,Arial" font-size="32.0" fill="#000000" transform="matrix(1.00, 0.00, -0.00, -1.00, 262.8, 12.3)">#</text><text xml:space="preserve" font-family="ArialMT,Arial" font-size="32.0" fill="#000000" transform="matrix(1.00, 0.00, -0.00, -1.00, 280.6, 12.3)">M</text><text xml:space="preserve" font-family="ArialMT,Arial" font-size="32.0" fill="#000000" transform="matrix(1.00, 0.00, -0.00, -1.00, 307.3, 12.3)">o</text><text xml:space="preserve" font-family="ArialMT,Arial" font-size="32.0" fill="#000000" transform="matrix(1.00, 0.00, -0.00, -1.00, 325.1, 12.3)">b</text><text xml:space="preserve" font-family="ArialMT,Arial" font-size="32.0" fill="#000000" transform="matrix(1.00, 0.00, -0.00, -1.00, 342.9, 12.3)">i</text><text xml:space="preserve" font-family="ArialMT,Arial" font-size="32.0" fill="#000000" transform="matrix(1.00, 0.00, -0.00, -1.00, 350.0, 12.3)">l</text><text xml:space="preserve" font-family="ArialMT,Arial" font-size="32.0" fill="#000000" transform="matrix(1.00, 0.00, -0.00, -1.00, 357.1, 12.3)">e</text><text xml:space="preserve" font-family="ArialMT,Arial" font-size="32.0" fill="#000000" transform="matrix(1.00, 0.00, -0.00, -1.00, 1045.9, 12.3)">@</text><text xml:space="preserve" font-family="ArialMT,Arial" font-size="32.0" fill="#000000" transform="matrix(1.00, 0.00, -0.00, -1.00, 1078.4, 12.3)">c</text><text xml:space="preserve" font-family="ArialMT,Arial" font-size="32.0" fill="#000000" transform="matrix(1.00, 0.00, -0.00, -1.00, 1094.4, 12.3)">o</text><text xml:space="preserve" font-family="ArialMT,Arial" font-size="32.0" fill="#000000" transform="matrix(1.00, 0.00, -0.00, -1.00, 1112.2, 12.3)">r</text><text xml:space="preserve" font-family="ArialMT,Arial" font-size="32.0" fill="#000000" transform="matrix(1.00, 0.00, -0.00, -1.00, 1122.8, 12.3)">i</text><text xml:space="preserve" font-family="ArialMT,Arial" font-size="32.0" fill="#000000" transform="matrix(1.00, 0.00, -0.00, -1.00, 1129.9, 12.3)">n</text><text xml:space="preserve" font-family="ArialMT,Arial" font-size="32.0" fill="#000000" transform="matrix(1.00, 0.00, -0.00, -1.00, 1147.7, 12.3)">n</text><text xml:space="preserve" font-family="ArialMT,Arial" font-size="32.0" fill="#000000" transform="matrix(1.00, 0.00, -0.00, -1.00, 1165.5, 12.3)">e</text><text xml:space="preserve" font-family="ArialMT,Arial" font-size="32.0" fill="#000000" transform="matrix(1.00, 0.00, -0.00, -1.00, 1183.3, 12.3)">k</text><text xml:space="preserve" font-family="ArialMT,Arial" font-size="32.0" fill="#000000" transform="matrix(1.00, 0.00, -0.00, -1.00, 1199.3, 12.3)">r</text><text xml:space="preserve" font-family="ArialMT,Arial" font-size="32.0" fill="#000000" transform="matrix(1.00, 0.00, -0.00, -1.00, 1210.0, 12.3)">y</text><text xml:space="preserve" font-family="ArialMT,Arial" font-size="32.0" fill="#000000" transform="matrix(1.00, 0.00, -0.00, -1.00, 1226.0, 12.3)">c</text><text xml:space="preserve" font-family="ArialMT,Arial" font-size="32.0" fill="#000000" transform="matrix(1.00, 0.00, -0.00, -1.00, 1242.0, 12.3)">h</text><image xlink:href="../../073B0C8F-6C5A-4411-B804-14080CCF8C2E/assets/4B199B471D5C64AB4B5015EA2C126664.png" width="981.00" height="150.00" transform="matrix(1.00, 0.00, -0.00, -1.00, 369.4, 254.2)" opacity="0.62"></image><path d="M 608.4 677.0 C 601.1 676.9 595.0 671.0 595.0 663.7 L 595.0 484.3 L 489.6 466.4 L 595.0 448.5 L 595.0 193.5 C 595.0 186.1 601.1 180.0 608.4 180.0 L 1215.5 180.0 C 1222.8 180.0 1229.0 186.1 1229.0 193.5 L 1229.0 663.7 C 1229.0 671.0 1222.8 677.0 1215.5 677.0 L 608.4 677.0 Z M 608.4 676.9 " fill="#FEFFFE"></path><path d="M 13.3 -0.1 C 5.9 0.0 -0.1 5.9 -0.1 13.3 L -0.1 192.7 L -105.6 210.5 L -0.1 228.4 L -0.1 483.5 C -0.1 490.8 5.9 496.9 13.3 496.9 L 620.4 496.9 C 627.7 496.9 633.9 490.8 633.9 483.5 L 633.9 13.3 C 633.9 5.9 627.7 -0.1 620.4 -0.1 L 13.3 -0.1 Z M 13.3 0.0 " fill="none" stroke="#000000" stroke-width="2.00" transform="matrix(1.00, 0.00, 0.00, -1.00, 595.1, 676.9)"></path><g><clipPath id="clip0x7fa073a42f20"><path d="M 710.0 238.9 L 907.4 238.9 L 907.4 654.3 L 710.0 654.3 Z M 710.0 238.9 "></path></clipPath><g clip-path="url(#clip0x7fa073a42f20)"><image xlink:href="../../073B0C8F-6C5A-4411-B804-14080CCF8C2E/assets/BB86F9935117CF613B06E61826FEF143.png" width="758.00" height="1595.00" transform="matrix(0.26, 0.00, -0.00, -0.26, 710.0, 654.3)"></image></g></g><g><clipPath id="clip0x7fa073a44860"><path d="M 726.7 297.3 L 892.3 297.3 L 892.3 591.1 L 726.7 591.1 Z M 726.7 297.3 "></path></clipPath><g clip-path="url(#clip0x7fa073a44860)"><image xlink:href="../../073B0C8F-6C5A-4411-B804-14080CCF8C2E/assets/2745E647D57FD8C8371D4144B0166623.png" width="640.00" height="1136.00" transform="matrix(0.26, 0.00, -0.00, -0.26, 726.7, 591.1)"></image></g></g><image xlink:href="../../073B0C8F-6C5A-4411-B804-14080CCF8C2E/assets/C3FDCBDCE29272DA7F1F3BCD4B6A91F4.png" width="267.00" height="496.00" transform="matrix(0.78, 0.00, -0.00, -0.78, 947.9, 653.0)"></image><text xml:space="preserve" font-family="ComicSansMS,Comic Sans MS" font-size="20.0" fill="#000000" transform="matrix(1.00, 0.00, -0.00, -1.00, 735.0, 203.8)">S</text><text xml:space="preserve" font-family="ComicSansMS,Comic Sans MS" font-size="20.0" fill="#000000" transform="matrix(1.00, 0.00, -0.00, -1.00, 748.9, 203.8)">o</text><text xml:space="preserve" font-family="ComicSansMS,Comic Sans MS" font-size="20.0" fill="#000000" transform="matrix(1.00, 0.00, -0.00, -1.00, 759.4, 203.8)">c</text><text xml:space="preserve" font-family="ComicSansMS,Comic Sans MS" font-size="20.0" fill="#000000" transform="matrix(1.00, 0.00, -0.00, -1.00, 769.7, 203.8)">i</text><text xml:space="preserve" font-family="ComicSansMS,Comic Sans MS" font-size="20.0" fill="#000000" transform="matrix(1.00, 0.00, -0.00, -1.00, 775.3, 203.8)">a</text><text xml:space="preserve" font-family="ComicSansMS,Comic Sans MS" font-size="20.0" fill="#000000" transform="matrix(1.00, 0.00, -0.00, -1.00, 785.5, 203.8)">l</text><text xml:space="preserve" font-family="ComicSansMS,Comic Sans MS" font-size="20.0" fill="#000000" transform="matrix(1.00, 0.00, -0.00, -1.00, 791.0, 203.8)">.</text><text xml:space="preserve" font-family="ComicSansMS,Comic Sans MS" font-size="20.0" fill="#000000" transform="matrix(1.00, 0.00, -0.00, -1.00, 796.0, 203.8)">f</text><text xml:space="preserve" font-family="ComicSansMS,Comic Sans MS" font-size="20.0" fill="#000000" transform="matrix(1.00, 0.00, -0.00, -1.00, 806.1, 203.8)">r</text><text xml:space="preserve" font-family="ComicSansMS,Comic Sans MS" font-size="20.0" fill="#000000" transform="matrix(1.00, 0.00, -0.00, -1.00, 815.7, 203.8)">a</text><text xml:space="preserve" font-family="ComicSansMS,Comic Sans MS" font-size="20.0" fill="#000000" transform="matrix(1.00, 0.00, -0.00, -1.00, 826.0, 203.8)">m</text><text xml:space="preserve" font-family="ComicSansMS,Comic Sans MS" font-size="20.0" fill="#000000" transform="matrix(1.00, 0.00, -0.00, -1.00, 841.5, 203.8)">e</text><text xml:space="preserve" font-family="ComicSansMS,Comic Sans MS" font-size="20.0" fill="#000000" transform="matrix(1.00, 0.00, -0.00, -1.00, 852.5, 203.8)">w</text><text xml:space="preserve" font-family="ComicSansMS,Comic Sans MS" font-size="20.0" fill="#000000" transform="matrix(1.00, 0.00, -0.00, -1.00, 866.1, 203.8)">o</text><text xml:space="preserve" font-family="ComicSansMS,Comic Sans MS" font-size="20.0" fill="#000000" transform="matrix(1.00, 0.00, -0.00, -1.00, 876.7, 203.8)">r</text><text xml:space="preserve" font-family="ComicSansMS,Comic Sans MS" font-size="20.0" fill="#000000" transform="matrix(1.00, 0.00, -0.00, -1.00, 886.3, 203.8)">k</text><text xml:space="preserve" font-family="ComicSansMS,Comic Sans MS" font-size="20.0" fill="#000000" transform="matrix(1.00, 0.00, -0.00, -1.00, 970.5, 203.8)">F</text><text xml:space="preserve" font-family="ComicSansMS,Comic Sans MS" font-size="20.0" fill="#000000" transform="matrix(1.00, 0.00, -0.00, -1.00, 982.7, 203.8)">a</text><text xml:space="preserve" font-family="ComicSansMS,Comic Sans MS" font-size="20.0" fill="#000000" transform="matrix(1.00, 0.00, -0.00, -1.00, 992.9, 203.8)">c</text><text xml:space="preserve" font-family="ComicSansMS,Comic Sans MS" font-size="20.0" fill="#000000" transform="matrix(1.00, 0.00, -0.00, -1.00, 1003.2, 203.8)">e</text><text xml:space="preserve" font-family="ComicSansMS,Comic Sans MS" font-size="20.0" fill="#000000" transform="matrix(1.00, 0.00, -0.00, -1.00, 1014.1, 203.8)">b</text><text xml:space="preserve" font-family="ComicSansMS,Comic Sans MS" font-size="20.0" fill="#000000" transform="matrix(1.00, 0.00, -0.00, -1.00, 1026.0, 203.8)">o</text><text xml:space="preserve" font-family="ComicSansMS,Comic Sans MS" font-size="20.0" fill="#000000" transform="matrix(1.00, 0.00, -0.00, -1.00, 1036.5, 203.8)">o</text><text xml:space="preserve" font-family="ComicSansMS,Comic Sans MS" font-size="20.0" fill="#000000" transform="matrix(1.00, 0.00, -0.00, -1.00, 1047.0, 203.8)">k</text><text xml:space="preserve" font-family="ComicSansMS,Comic Sans MS" font-size="20.0" fill="#000000" transform="matrix(1.00, 0.00, -0.00, -1.00, 1057.8, 203.8)"> </text><text xml:space="preserve" font-family="ComicSansMS,Comic Sans MS" font-size="20.0" fill="#000000" transform="matrix(1.00, 0.00, -0.00, -1.00, 1063.8, 203.8)">S</text><text xml:space="preserve" font-family="ComicSansMS,Comic Sans MS" font-size="20.0" fill="#000000" transform="matrix(1.00, 0.00, -0.00, -1.00, 1077.7, 203.8)">D</text><text xml:space="preserve" font-family="ComicSansMS,Comic Sans MS" font-size="20.0" fill="#000000" transform="matrix(1.00, 0.00, -0.00, -1.00, 1092.1, 203.8)">K</text><image xlink:href="../../073B0C8F-6C5A-4411-B804-14080CCF8C2E/assets/A208FC752DE20F26ACB51DE2BCF99979.png" width="622.00" height="992.00" transform="matrix(0.50, 0.00, -0.00, -0.50, 166.0, 553.2)"></image><path d="M 132.4 675.0 C 128.9 675.0 126.0 672.1 126.0 668.6 L 126.0 573.3 C 126.0 569.8 128.9 567.0 132.4 567.0 L 243.2 567.0 L 251.7 538.1 L 260.2 567.0 L 567.5 567.0 C 571.0 567.0 574.0 569.8 574.0 573.3 L 574.0 668.6 C 574.0 672.1 571.0 675.0 567.5 675.0 L 132.4 675.0 Z M 132.4 675.0 " fill="#FEFFFE"></path><path d="M 6.3 -0.0 C 2.8 0.0 -0.0 2.8 -0.0 6.3 L -0.0 101.7 C -0.0 105.2 2.8 108.0 6.3 108.0 L 117.1 108.0 L 125.7 136.9 L 134.2 108.0 L 441.5 108.0 C 445.0 108.0 448.0 105.2 448.0 101.7 L 448.0 6.3 C 448.0 2.8 445.0 -0.0 441.5 -0.0 L 6.3 -0.0 Z M 6.3 0.0 " fill="none" stroke="#000000" stroke-width="2.00" transform="matrix(1.00, 0.00, 0.00, -1.00, 126.0, 675.0)"></path><g><clipPath id="clip0x7fa07383a6b0"><path d="M 124.1 567.0 L 575.8 567.0 L 575.8 675.0 L 124.1 675.0 Z M 124.1 567.0 "></path></clipPath><g clip-path="url(#clip0x7fa07383a6b0)"><text xml:space="preserve" font-family="ComicSansMS,Comic Sans MS" font-size="20.0" fill="#000000" transform="matrix(1.00, 0.00, -0.00, -1.00, 131.0, 640.9)">I</text><text xml:space="preserve" font-family="ComicSansMS,Comic Sans MS" font-size="20.0" fill="#000000" transform="matrix(1.00, 0.00, -0.00, -1.00, 142.0, 640.9)"> </text><text xml:space="preserve" font-family="ComicSansMS,Comic Sans MS" font-size="20.0" fill="#000000" transform="matrix(1.00, 0.00, -0.00, -1.00, 147.9, 640.9)">w</text><text xml:space="preserve" font-family="ComicSansMS,Comic Sans MS" font-size="20.0" fill="#000000" transform="matrix(1.00, 0.00, -0.00, -1.00, 161.6, 640.9)">o</text><text xml:space="preserve" font-family="ComicSansMS,Comic Sans MS" font-size="20.0" fill="#000000" transform="matrix(1.00, 0.00, -0.00, -1.00, 172.1, 640.9)">n</text><text xml:space="preserve" font-family="ComicSansMS,Comic Sans MS" font-size="20.0" fill="#000000" transform="matrix(1.00, 0.00, -0.00, -1.00, 182.6, 640.9)">d</text><text xml:space="preserve" font-family="ComicSansMS,Comic Sans MS" font-size="20.0" fill="#000000" transform="matrix(1.00, 0.00, -0.00, -1.00, 194.4, 640.9)">e</text><text xml:space="preserve" font-family="ComicSansMS,Comic Sans MS" font-size="20.0" fill="#000000" transform="matrix(1.00, 0.00, -0.00, -1.00, 205.3, 640.9)">r</text><text xml:space="preserve" font-family="ComicSansMS,Comic Sans MS" font-size="20.0" fill="#000000" transform="matrix(1.00, 0.00, -0.00, -1.00, 214.9, 640.9)">…</text><text xml:space="preserve" font-family="ComicSansMS,Comic Sans MS" font-size="20.0" fill="#000000" transform="matrix(1.00, 0.00, -0.00, -1.00, 228.5, 640.9)"> </text><text xml:space="preserve" font-family="ComicSansMS,Comic Sans MS" font-size="20.0" fill="#000000" transform="matrix(1.00, 0.00, -0.00, -1.00, 234.4, 640.9)"> </text><text xml:space="preserve" font-family="ComicSansMS,Comic Sans MS" font-size="20.0" fill="#000000" transform="matrix(1.00, 0.00, -0.00, -1.00, 131.0, 612.9)">W</text><text xml:space="preserve" font-family="ComicSansMS,Comic Sans MS" font-size="20.0" fill="#000000" transform="matrix(1.00, 0.00, -0.00, -1.00, 151.8, 612.9)">h</text><text xml:space="preserve" font-family="ComicSansMS,Comic Sans MS" font-size="20.0" fill="#000000" transform="matrix(1.00, 0.00, -0.00, -1.00, 163.4, 612.9)">a</text><text xml:space="preserve" font-family="ComicSansMS,Comic Sans MS" font-size="20.0" fill="#000000" transform="matrix(1.00, 0.00, -0.00, -1.00, 173.6, 612.9)">t</text><text xml:space="preserve" font-family="ComicSansMS,Comic Sans MS" font-size="20.0" fill="#000000" transform="matrix(1.00, 0.00, -0.00, -1.00, 183.0, 612.9)"> </text><text xml:space="preserve" font-family="ComicSansMS,Comic Sans MS" font-size="20.0" fill="#000000" transform="matrix(1.00, 0.00, -0.00, -1.00, 189.0, 612.9)">a</text><text xml:space="preserve" font-family="ComicSansMS,Comic Sans MS" font-size="20.0" fill="#000000" transform="matrix(1.00, 0.00, -0.00, -1.00, 199.2, 612.9)">r</text><text xml:space="preserve" font-family="ComicSansMS,Comic Sans MS" font-size="20.0" fill="#000000" transform="matrix(1.00, 0.00, -0.00, -1.00, 208.9, 612.9)">e</text><text xml:space="preserve" font-family="ComicSansMS,Comic Sans MS" font-size="20.0" fill="#000000" transform="matrix(1.00, 0.00, -0.00, -1.00, 219.8, 612.9)"> </text><text xml:space="preserve" font-family="ComicSansMS,Comic Sans MS" font-size="20.0" fill="#000000" transform="matrix(1.00, 0.00, -0.00, -1.00, 225.8, 612.9)">m</text><text xml:space="preserve" font-family="ComicSansMS,Comic Sans MS" font-size="20.0" fill="#000000" transform="matrix(1.00, 0.00, -0.00, -1.00, 241.3, 612.9)">y</text><text xml:space="preserve" font-family="ComicSansMS,Comic Sans MS" font-size="20.0" fill="#000000" transform="matrix(1.00, 0.00, -0.00, -1.00, 251.7, 612.9)"> </text><text xml:space="preserve" font-family="ComicSansMS,Comic Sans MS" font-size="20.0" fill="#000000" transform="matrix(1.00, 0.00, -0.00, -1.00, 257.7, 612.9)">o</text><text xml:space="preserve" font-family="ComicSansMS,Comic Sans MS" font-size="20.0" fill="#000000" transform="matrix(1.00, 0.00, -0.00, -1.00, 268.2, 612.9)">p</text><text xml:space="preserve" font-family="ComicSansMS,Comic Sans MS" font-size="20.0" fill="#000000" transform="matrix(1.00, 0.00, -0.00, -1.00, 278.9, 612.9)">t</text><text xml:space="preserve" font-family="ComicSansMS,Comic Sans MS" font-size="20.0" fill="#000000" transform="matrix(1.00, 0.00, -0.00, -1.00, 288.3, 612.9)">i</text><text xml:space="preserve" font-family="ComicSansMS,Comic Sans MS" font-size="20.0" fill="#000000" transform="matrix(1.00, 0.00, -0.00, -1.00, 293.9, 612.9)">o</text><text xml:space="preserve" font-family="ComicSansMS,Comic Sans MS" font-size="20.0" fill="#000000" transform="matrix(1.00, 0.00, -0.00, -1.00, 304.4, 612.9)">n</text><text xml:space="preserve" font-family="ComicSansMS,Comic Sans MS" font-size="20.0" fill="#000000" transform="matrix(1.00, 0.00, -0.00, -1.00, 314.9, 612.9)">s</text><text xml:space="preserve" font-family="ComicSansMS,Comic Sans MS" font-size="20.0" fill="#000000" transform="matrix(1.00, 0.00, -0.00, -1.00, 324.6, 612.9)"> </text><text xml:space="preserve" font-family="ComicSansMS,Comic Sans MS" font-size="20.0" fill="#000000" transform="matrix(1.00, 0.00, -0.00, -1.00, 330.6, 612.9)">i</text><text xml:space="preserve" font-family="ComicSansMS,Comic Sans MS" font-size="20.0" fill="#000000" transform="matrix(1.00, 0.00, -0.00, -1.00, 336.2, 612.9)">f</text><text xml:space="preserve" font-family="ComicSansMS,Comic Sans MS" font-size="20.0" fill="#000000" transform="matrix(1.00, 0.00, -0.00, -1.00, 346.4, 612.9)"> </text><text xml:space="preserve" font-family="ComicSansMS,Comic Sans MS" font-size="20.0" fill="#000000" transform="matrix(1.00, 0.00, -0.00, -1.00, 352.4, 612.9)">I</text><text xml:space="preserve" font-family="ComicSansMS,Comic Sans MS" font-size="20.0" fill="#000000" transform="matrix(1.00, 0.00, -0.00, -1.00, 363.3, 612.9)"> </text><text xml:space="preserve" font-family="ComicSansMS,Comic Sans MS" font-size="20.0" fill="#000000" transform="matrix(1.00, 0.00, -0.00, -1.00, 369.3, 612.9)">w</text><text xml:space="preserve" font-family="ComicSansMS,Comic Sans MS" font-size="20.0" fill="#000000" transform="matrix(1.00, 0.00, -0.00, -1.00, 383.0, 612.9)">a</text><text xml:space="preserve" font-family="ComicSansMS,Comic Sans MS" font-size="20.0" fill="#000000" transform="matrix(1.00, 0.00, -0.00, -1.00, 393.2, 612.9)">n</text><text xml:space="preserve" font-family="ComicSansMS,Comic Sans MS" font-size="20.0" fill="#000000" transform="matrix(1.00, 0.00, -0.00, -1.00, 403.7, 612.9)">t</text><text xml:space="preserve" font-family="ComicSansMS,Comic Sans MS" font-size="20.0" fill="#000000" transform="matrix(1.00, 0.00, -0.00, -1.00, 413.1, 612.9)"> </text><text xml:space="preserve" font-family="ComicSansMS,Comic Sans MS" font-size="20.0" fill="#000000" transform="matrix(1.00, 0.00, -0.00, -1.00, 419.1, 612.9)">t</text><text xml:space="preserve" font-family="ComicSansMS,Comic Sans MS" font-size="20.0" fill="#000000" transform="matrix(1.00, 0.00, -0.00, -1.00, 428.5, 612.9)">o</text><text xml:space="preserve" font-family="ComicSansMS,Comic Sans MS" font-size="20.0" fill="#000000" transform="matrix(1.00, 0.00, -0.00, -1.00, 439.0, 612.9)"> </text><text xml:space="preserve" font-family="ComicSansMS,Comic Sans MS" font-size="20.0" fill="#000000" transform="matrix(1.00, 0.00, -0.00, -1.00, 445.0, 612.9)">i</text><text xml:space="preserve" font-family="ComicSansMS,Comic Sans MS" font-size="20.0" fill="#000000" transform="matrix(1.00, 0.00, -0.00, -1.00, 450.6, 612.9)">m</text><text xml:space="preserve" font-family="ComicSansMS,Comic Sans MS" font-size="20.0" fill="#000000" transform="matrix(1.00, 0.00, -0.00, -1.00, 466.1, 612.9)">p</text><text xml:space="preserve" font-family="ComicSansMS,Comic Sans MS" font-size="20.0" fill="#000000" transform="matrix(1.00, 0.00, -0.00, -1.00, 476.8, 612.9)">l</text><text xml:space="preserve" font-family="ComicSansMS,Comic Sans MS" font-size="20.0" fill="#000000" transform="matrix(1.00, 0.00, -0.00, -1.00, 482.3, 612.9)">e</text><text xml:space="preserve" font-family="ComicSansMS,Comic Sans MS" font-size="20.0" fill="#000000" transform="matrix(1.00, 0.00, -0.00, -1.00, 493.3, 612.9)">m</text><text xml:space="preserve" font-family="ComicSansMS,Comic Sans MS" font-size="20.0" fill="#000000" transform="matrix(1.00, 0.00, -0.00, -1.00, 508.8, 612.9)">e</text><text xml:space="preserve" font-family="ComicSansMS,Comic Sans MS" font-size="20.0" fill="#000000" transform="matrix(1.00, 0.00, -0.00, -1.00, 519.7, 612.9)">n</text><text xml:space="preserve" font-family="ComicSansMS,Comic Sans MS" font-size="20.0" fill="#000000" transform="matrix(1.00, 0.00, -0.00, -1.00, 530.2, 612.9)">t</text><text xml:space="preserve" font-family="ComicSansMS,Comic Sans MS" font-size="20.0" fill="#000000" transform="matrix(1.00, 0.00, -0.00, -1.00, 539.6, 612.9)"> </text><text xml:space="preserve" font-family="ComicSansMS,Comic Sans MS" font-size="20.0" fill="#000000" transform="matrix(1.00, 0.00, -0.00, -1.00, 131.0, 584.9)">O</text><text xml:space="preserve" font-family="ComicSansMS,Comic Sans MS" font-size="20.0" fill="#000000" transform="matrix(1.00, 0.00, -0.00, -1.00, 147.0, 584.9)">A</text><text xml:space="preserve" font-family="ComicSansMS,Comic Sans MS" font-size="20.0" fill="#000000" transform="matrix(1.00, 0.00, -0.00, -1.00, 161.7, 584.9)">u</text><text xml:space="preserve" font-family="ComicSansMS,Comic Sans MS" font-size="20.0" fill="#000000" transform="matrix(1.00, 0.00, -0.00, -1.00, 172.1, 584.9)">t</text><text xml:space="preserve" font-family="ComicSansMS,Comic Sans MS" font-size="20.0" fill="#000000" transform="matrix(1.00, 0.00, -0.00, -1.00, 181.5, 584.9)">h</text><text xml:space="preserve" font-family="ComicSansMS,Comic Sans MS" font-size="20.0" fill="#000000" transform="matrix(1.00, 0.00, -0.00, -1.00, 193.0, 584.9)">2</text><text xml:space="preserve" font-family="ComicSansMS,Comic Sans MS" font-size="20.0" fill="#000000" transform="matrix(1.00, 0.00, -0.00, -1.00, 205.2, 584.9)"> </text><text xml:space="preserve" font-family="ComicSansMS,Comic Sans MS" font-size="20.0" fill="#000000" transform="matrix(1.00, 0.00, -0.00, -1.00, 211.2, 584.9)">w</text><text xml:space="preserve" font-family="ComicSansMS,Comic Sans MS" font-size="20.0" fill="#000000" transform="matrix(1.00, 0.00, -0.00, -1.00, 224.9, 584.9)">i</text><text xml:space="preserve" font-family="ComicSansMS,Comic Sans MS" font-size="20.0" fill="#000000" transform="matrix(1.00, 0.00, -0.00, -1.00, 230.5, 584.9)">t</text><text xml:space="preserve" font-family="ComicSansMS,Comic Sans MS" font-size="20.0" fill="#000000" transform="matrix(1.00, 0.00, -0.00, -1.00, 239.9, 584.9)">h</text><text xml:space="preserve" font-family="ComicSansMS,Comic Sans MS" font-size="20.0" fill="#000000" transform="matrix(1.00, 0.00, -0.00, -1.00, 251.5, 584.9)"> </text><text xml:space="preserve" font-family="ComicSansMS,Comic Sans MS" font-size="20.0" fill="#000000" transform="matrix(1.00, 0.00, -0.00, -1.00, 257.5, 584.9)">F</text><text xml:space="preserve" font-family="ComicSansMS,Comic Sans MS" font-size="20.0" fill="#000000" transform="matrix(1.00, 0.00, -0.00, -1.00, 269.6, 584.9)">a</text><text xml:space="preserve" font-family="ComicSansMS,Comic Sans MS" font-size="20.0" fill="#000000" transform="matrix(1.00, 0.00, -0.00, -1.00, 279.8, 584.9)">c</text><text xml:space="preserve" font-family="ComicSansMS,Comic Sans MS" font-size="20.0" fill="#000000" transform="matrix(1.00, 0.00, -0.00, -1.00, 290.1, 584.9)">e</text><text xml:space="preserve" font-family="ComicSansMS,Comic Sans MS" font-size="20.0" fill="#000000" transform="matrix(1.00, 0.00, -0.00, -1.00, 301.0, 584.9)">b</text><text xml:space="preserve" font-family="ComicSansMS,Comic Sans MS" font-size="20.0" fill="#000000" transform="matrix(1.00, 0.00, -0.00, -1.00, 312.9, 584.9)">o</text><text xml:space="preserve" font-family="ComicSansMS,Comic Sans MS" font-size="20.0" fill="#000000" transform="matrix(1.00, 0.00, -0.00, -1.00, 323.4, 584.9)">o</text><text xml:space="preserve" font-family="ComicSansMS,Comic Sans MS" font-size="20.0" fill="#000000" transform="matrix(1.00, 0.00, -0.00, -1.00, 333.9, 584.9)">k</text><text xml:space="preserve" font-family="ComicSansMS,Comic Sans MS" font-size="20.0" fill="#000000" transform="matrix(1.00, 0.00, -0.00, -1.00, 344.7, 584.9)"> </text><text xml:space="preserve" font-family="ComicSansMS,Comic Sans MS" font-size="20.0" fill="#000000" transform="matrix(1.00, 0.00, -0.00, -1.00, 350.7, 584.9)">o</text><text xml:space="preserve" font-family="ComicSansMS,Comic Sans MS" font-size="20.0" fill="#000000" transform="matrix(1.00, 0.00, -0.00, -1.00, 361.2, 584.9)">n</text><text xml:space="preserve" font-family="ComicSansMS,Comic Sans MS" font-size="20.0" fill="#000000" transform="matrix(1.00, 0.00, -0.00, -1.00, 371.7, 584.9)"> </text><text xml:space="preserve" font-family="ComicSansMS,Comic Sans MS" font-size="20.0" fill="#000000" transform="matrix(1.00, 0.00, -0.00, -1.00, 377.7, 584.9)">n</text><text xml:space="preserve" font-family="ComicSansMS,Comic Sans MS" font-size="20.0" fill="#000000" transform="matrix(1.00, 0.00, -0.00, -1.00, 388.2, 584.9)">a</text><text xml:space="preserve" font-family="ComicSansMS,Comic Sans MS" font-size="20.0" fill="#000000" transform="matrix(1.00, 0.00, -0.00, -1.00, 398.4, 584.9)">t</text><text xml:space="preserve" font-family="ComicSansMS,Comic Sans MS" font-size="20.0" fill="#000000" transform="matrix(1.00, 0.00, -0.00, -1.00, 407.8, 584.9)">i</text><text xml:space="preserve" font-family="ComicSansMS,Comic Sans MS" font-size="20.0" fill="#000000" transform="matrix(1.00, 0.00, -0.00, -1.00, 413.4, 584.9)">v</text><text xml:space="preserve" font-family="ComicSansMS,Comic Sans MS" font-size="20.0" fill="#000000" transform="matrix(1.00, 0.00, -0.00, -1.00, 423.2, 584.9)">e</text><text xml:space="preserve" font-family="ComicSansMS,Comic Sans MS" font-size="20.0" fill="#000000" transform="matrix(1.00, 0.00, -0.00, -1.00, 434.1, 584.9)">s</text><text xml:space="preserve" font-family="ComicSansMS,Comic Sans MS" font-size="20.0" fill="#000000" transform="matrix(1.00, 0.00, -0.00, -1.00, 443.9, 584.9)"> </text><text xml:space="preserve" font-family="ComicSansMS,Comic Sans MS" font-size="20.0" fill="#000000" transform="matrix(1.00, 0.00, -0.00, -1.00, 449.8, 584.9)">a</text><text xml:space="preserve" font-family="ComicSansMS,Comic Sans MS" font-size="20.0" fill="#000000" transform="matrix(1.00, 0.00, -0.00, -1.00, 460.1, 584.9)">p</text><text xml:space="preserve" font-family="ComicSansMS,Comic Sans MS" font-size="20.0" fill="#000000" transform="matrix(1.00, 0.00, -0.00, -1.00, 470.7, 584.9)">p</text><text xml:space="preserve" font-family="ComicSansMS,Comic Sans MS" font-size="20.0" fill="#000000" transform="matrix(1.00, 0.00, -0.00, -1.00, 481.4, 584.9)">?</text></g></g></g></svg>