<?xml version="1.0" encoding="UTF-8" standalone="no"?><svg xmlns="http://www.w3.org/2000/svg" xmlns:xlink="http://www.w3.org/1999/xlink" clip-rule="evenodd" stroke-miterlimit="10" viewBox="0 0 1280 720"><desc>SVG generated by Keynote</desc><defs></defs><g transform="matrix(1.00, 0.00, -0.00, -1.00, 0.0, 720.0)"><path d="M 0.0 720.0 L 1280.0 720.0 L 1280.0 0.0 L 0.0 0.0 Z M 0.0 720.0 " fill="#FFFFFF"></path><path d="M -12.0 721.0 L 1279.0 721.0 L 1279.0 592.0 L -12.0 592.0 Z M -12.0 721.0 " fill="#FFFFFF"></path><image xlink:href="../../51C09A98-96B9-4111-8917-4A6A011BFB10/assets/41194C9459DB3CBFD690A61B4CFF6222.png" width="647.00" height="120.00" transform="matrix(0.00, 1.00, 1.00, -0.00, -10.5, 54.5)"></image><path d="M 0.0 49.0 L 1289.0 49.0 L 1289.0 0.0 L 0.0 0.0 Z M 0.0 49.0 " fill="#F4AE33"></path><text xml:space="preserve" font-family="ArialMT,Arial" font-size="32.0" fill="#000000" transform="matrix(1.00, 0.00, -0.00, -1.00, 12.0, 12.3)">#</text><text xml:space="preserve" font-family="ArialMT,Arial" font-size="32.0" fill="#000000" transform="matrix(1.00, 0.00, -0.00, -1.00, 29.8, 12.3)">D</text><text xml:space="preserve" font-family="ArialMT,Arial" font-size="32.0" fill="#000000" transform="matrix(1.00, 0.00, -0.00, -1.00, 52.9, 12.3)">V</text><text xml:space="preserve" font-family="ArialMT,Arial" font-size="32.0" fill="#000000" transform="matrix(1.00, 0.00, -0.00, -1.00, 74.3, 12.3)">1</text><text xml:space="preserve" font-family="ArialMT,Arial" font-size="32.0" fill="#000000" transform="matrix(1.00, 0.00, -0.00, -1.00, 92.1, 12.3)">4</text><text xml:space="preserve" font-family="ArialMT,Arial" font-size="32.0" fill="#000000" transform="matrix(1.00, 0.00, -0.00, -1.00, 109.9, 12.3)"> </text><text xml:space="preserve" font-family="ArialMT,Arial" font-size="32.0" fill="#000000" transform="matrix(1.00, 0.00, -0.00, -1.00, 118.8, 12.3)"> </text><text xml:space="preserve" font-family="ArialMT,Arial" font-size="32.0" fill="#000000" transform="matrix(1.00, 0.00, -0.00, -1.00, 127.6, 12.3)">#</text><text xml:space="preserve" font-family="ArialMT,Arial" font-size="32.0" fill="#000000" transform="matrix(1.00, 0.00, -0.00, -1.00, 145.4, 12.3)">O</text><text xml:space="preserve" font-family="ArialMT,Arial" font-size="32.0" fill="#000000" transform="matrix(1.00, 0.00, -0.00, -1.00, 170.3, 12.3)">A</text><text xml:space="preserve" font-family="ArialMT,Arial" font-size="32.0" fill="#000000" transform="matrix(1.00, 0.00, -0.00, -1.00, 191.6, 12.3)">u</text><text xml:space="preserve" font-family="ArialMT,Arial" font-size="32.0" fill="#000000" transform="matrix(1.00, 0.00, -0.00, -1.00, 209.5, 12.3)">t</text><text xml:space="preserve" font-family="ArialMT,Arial" font-size="32.0" fill="#000000" transform="matrix(1.00, 0.00, -0.00, -1.00, 218.3, 12.3)">h</text><text xml:space="preserve" font-family="ArialMT,Arial" font-size="32.0" fill="#000000" transform="matrix(1.00, 0.00, -0.00, -1.00, 236.1, 12.3)">2</text><text xml:space="preserve" font-family="ArialMT,Arial" font-size="32.0" fill="#000000" transform="matrix(1.00, 0.00, -0.00, -1.00, 253.9, 12.3)"> </text><text xml:space="preserve" font-family="ArialMT,Arial" font-size="32.0" fill="#000000" transform="matrix(1.00, 0.00, -0.00, -1.00, 262.8, 12.3)">#</text><text xml:space="preserve" font-family="ArialMT,Arial" font-size="32.0" fill="#000000" transform="matrix(1.00, 0.00, -0.00, -1.00, 280.6, 12.3)">M</text><text xml:space="preserve" font-family="ArialMT,Arial" font-size="32.0" fill="#000000" transform="matrix(1.00, 0.00, -0.00, -1.00, 307.3, 12.3)">o</text><text xml:space="preserve" font-family="ArialMT,Arial" font-size="32.0" fill="#000000" transform="matrix(1.00, 0.00, -0.00, -1.00, 325.1, 12.3)">b</text><text xml:space="preserve" font-family="ArialMT,Arial" font-size="32.0" fill="#000000" transform="matrix(1.00, 0.00, -0.00, -1.00, 342.9, 12.3)">i</text><text xml:space="preserve" font-family="ArialMT,Arial" font-size="32.0" fill="#000000" transform="matrix(1.00, 0.00, -0.00, -1.00, 350.0, 12.3)">l</text><text xml:space="preserve" font-family="ArialMT,Arial" font-size="32.0" fill="#000000" transform="matrix(1.00, 0.00, -0.00, -1.00, 357.1, 12.3)">e</text><text xml:space="preserve" font-family="ArialMT,Arial" font-size="32.0" fill="#000000" transform="matrix(1.00, 0.00, -0.00, -1.00, 1045.9, 12.3)">@</text><text xml:space="preserve" font-family="ArialMT,Arial" font-size="32.0" fill="#000000" transform="matrix(1.00, 0.00, -0.00, -1.00, 1078.4, 12.3)">c</text><text xml:space="preserve" font-family="ArialMT,Arial" font-size="32.0" fill="#000000" transform="matrix(1.00, 0.00, -0.00, -1.00, 1094.4, 12.3)">o</text><text xml:space="preserve" font-family="ArialMT,Arial" font-size="32.0" fill="#000000" transform="matrix(1.00, 0.00, -0.00, -1.00, 1112.2, 12.3)">r</text><text xml:space="preserve" font-family="ArialMT,Arial" font-size="32.0" fill="#000000" transform="matrix(1.00, 0.00, -0.00, -1.00, 1122.8, 12.3)">i</text><text xml:space="preserve" font-family="ArialMT,Arial" font-size="32.0" fill="#000000" transform="matrix(1.00, 0.00, -0.00, -1.00, 1129.9, 12.3)">n</text><text xml:space="preserve" font-family="ArialMT,Arial" font-size="32.0" fill="#000000" transform="matrix(1.00, 0.00, -0.00, -1.00, 1147.7, 12.3)">n</text><text xml:space="preserve" font-family="ArialMT,Arial" font-size="32.0" fill="#000000" transform="matrix(1.00, 0.00, -0.00, -1.00, 1165.5, 12.3)">e</text><text xml:space="preserve" font-family="ArialMT,Arial" font-size="32.0" fill="#000000" transform="matrix(1.00, 0.00, -0.00, -1.00, 1183.3, 12.3)">k</text><text xml:space="preserve" font-family="ArialMT,Arial" font-size="32.0" fill="#000000" transform="matrix(1.00, 0.00, -0.00, -1.00, 1199.3, 12.3)">r</text><text xml:space="preserve" font-family="ArialMT,Arial" font-size="32.0" fill="#000000" transform="matrix(1.00, 0.00, -0.00, -1.00, 1210.0, 12.3)">y</text><text xml:space="preserve" font-family="ArialMT,Arial" font-size="32.0" fill="#000000" transform="matrix(1.00, 0.00, -0.00, -1.00, 1226.0, 12.3)">c</text><text xml:space="preserve" font-family="ArialMT,Arial" font-size="32.0" fill="#000000" transform="matrix(1.00, 0.00, -0.00, -1.00, 1242.0, 12.3)">h</text><image xlink:href="../../87CA5C3E-27E7-4E64-8BAD-90053A04924A/assets/00FF05B881B34C4AC5BC7E90DE6C9951.png" width="778.00" height="750.00" transform="matrix(0.90, 0.00, -0.00, -0.90, 327.9, 722.0)"></image><image xlink:href="../../87CA5C3E-27E7-4E64-8BAD-90053A04924A/assets/E51E51799C499B900D8CA03D0185398C.png" width="541.00" height="150.00" transform="matrix(1.00, 0.00, -0.00, -1.00, 218.1, 656.4)" opacity="0.62"></image><path d="M 353.4 709.5 C 350.2 709.8 347.5 707.1 347.5 703.9 L 347.5 614.0 L 338.9 582.2 L 364.3 592.5 L 632.5 592.5 C 635.8 592.5 638.5 595.6 638.5 598.8 L 638.5 703.9 C 638.5 707.1 635.8 709.5 632.5 709.5 L 353.4 709.5 Z M 353.4 709.8 " fill="#FEFFFE"></path><path d="M 5.8 0.3 C 2.6 0.0 -0.0 2.6 -0.0 5.8 L -0.0 95.8 L -8.7 127.5 L 16.7 117.3 L 285.0 117.3 C 288.2 117.3 291.0 114.1 291.0 110.9 L 291.0 5.8 C 291.0 2.6 288.2 0.3 285.0 0.3 L 5.8 0.3 Z M 5.8 0.0 " fill="none" stroke="#000000" stroke-width="1.00" transform="matrix(1.00, 0.00, 0.00, -1.00, 347.5, 709.8)"></path><g><clipPath id="clip0x6000008b3680"><path d="M 343.7 593.0 L 642.3 593.0 L 642.3 709.8 L 343.7 709.8 Z M 343.7 593.0 "></path></clipPath><g clip-path="url(#clip0x6000008b3680)"><text xml:space="preserve" font-family="ComicSansMS,Comic Sans MS" font-size="24.0" fill="#000000" transform="matrix(1.00, 0.00, -0.00, -1.00, 352.0, 674.5)">F</text><text xml:space="preserve" font-family="ComicSansMS,Comic Sans MS" font-size="24.0" fill="#000000" transform="matrix(1.00, 0.00, -0.00, -1.00, 366.6, 674.5)">i</text><text xml:space="preserve" font-family="ComicSansMS,Comic Sans MS" font-size="24.0" fill="#000000" transform="matrix(1.00, 0.00, -0.00, -1.00, 373.3, 674.5)">r</text><text xml:space="preserve" font-family="ComicSansMS,Comic Sans MS" font-size="24.0" fill="#000000" transform="matrix(1.00, 0.00, -0.00, -1.00, 384.9, 674.5)">s</text><text xml:space="preserve" font-family="ComicSansMS,Comic Sans MS" font-size="24.0" fill="#000000" transform="matrix(1.00, 0.00, -0.00, -1.00, 396.6, 674.5)">t</text><text xml:space="preserve" font-family="ComicSansMS,Comic Sans MS" font-size="24.0" fill="#000000" transform="matrix(1.00, 0.00, -0.00, -1.00, 407.9, 674.5)"> </text><text xml:space="preserve" font-family="ComicSansMS,Comic Sans MS" font-size="24.0" fill="#000000" transform="matrix(1.00, 0.00, -0.00, -1.00, 415.0, 674.5)">o</text><text xml:space="preserve" font-family="ComicSansMS,Comic Sans MS" font-size="24.0" fill="#000000" transform="matrix(1.00, 0.00, -0.00, -1.00, 427.7, 674.5)">f</text><text xml:space="preserve" font-family="ComicSansMS,Comic Sans MS" font-size="24.0" fill="#000000" transform="matrix(1.00, 0.00, -0.00, -1.00, 439.9, 674.5)"> </text><text xml:space="preserve" font-family="ComicSansMS,Comic Sans MS" font-size="24.0" fill="#000000" transform="matrix(1.00, 0.00, -0.00, -1.00, 447.0, 674.5)">a</text><text xml:space="preserve" font-family="ComicSansMS,Comic Sans MS" font-size="24.0" fill="#000000" transform="matrix(1.00, 0.00, -0.00, -1.00, 459.3, 674.5)">l</text><text xml:space="preserve" font-family="ComicSansMS,Comic Sans MS" font-size="24.0" fill="#000000" transform="matrix(1.00, 0.00, -0.00, -1.00, 465.9, 674.5)">l</text><text xml:space="preserve" font-family="ComicSansMS,Comic Sans MS" font-size="24.0" fill="#000000" transform="matrix(1.00, 0.00, -0.00, -1.00, 472.5, 674.5)">,</text><text xml:space="preserve" font-family="ComicSansMS,Comic Sans MS" font-size="24.0" fill="#000000" transform="matrix(1.00, 0.00, -0.00, -1.00, 479.1, 674.5)"> </text><text xml:space="preserve" font-family="ComicSansMS,Comic Sans MS" font-size="24.0" fill="#000000" transform="matrix(1.00, 0.00, -0.00, -1.00, 486.3, 674.5)">y</text><text xml:space="preserve" font-family="ComicSansMS,Comic Sans MS" font-size="24.0" fill="#000000" transform="matrix(1.00, 0.00, -0.00, -1.00, 498.7, 674.5)">o</text><text xml:space="preserve" font-family="ComicSansMS,Comic Sans MS" font-size="24.0" fill="#000000" transform="matrix(1.00, 0.00, -0.00, -1.00, 511.4, 674.5)">u</text><text xml:space="preserve" font-family="ComicSansMS,Comic Sans MS" font-size="24.0" fill="#000000" transform="matrix(1.00, 0.00, -0.00, -1.00, 523.8, 674.5)"> </text><text xml:space="preserve" font-family="ComicSansMS,Comic Sans MS" font-size="24.0" fill="#000000" transform="matrix(1.00, 0.00, -0.00, -1.00, 531.0, 674.5)">n</text><text xml:space="preserve" font-family="ComicSansMS,Comic Sans MS" font-size="24.0" fill="#000000" transform="matrix(1.00, 0.00, -0.00, -1.00, 543.6, 674.5)">e</text><text xml:space="preserve" font-family="ComicSansMS,Comic Sans MS" font-size="24.0" fill="#000000" transform="matrix(1.00, 0.00, -0.00, -1.00, 556.7, 674.5)">e</text><text xml:space="preserve" font-family="ComicSansMS,Comic Sans MS" font-size="24.0" fill="#000000" transform="matrix(1.00, 0.00, -0.00, -1.00, 569.9, 674.5)">d</text><text xml:space="preserve" font-family="ComicSansMS,Comic Sans MS" font-size="24.0" fill="#000000" transform="matrix(1.00, 0.00, -0.00, -1.00, 584.0, 674.5)"> </text><text xml:space="preserve" font-family="ComicSansMS,Comic Sans MS" font-size="24.0" fill="#000000" transform="matrix(1.00, 0.00, -0.00, -1.00, 591.2, 674.5)">t</text><text xml:space="preserve" font-family="ComicSansMS,Comic Sans MS" font-size="24.0" fill="#000000" transform="matrix(1.00, 0.00, -0.00, -1.00, 602.5, 674.5)">o</text><text xml:space="preserve" font-family="ComicSansMS,Comic Sans MS" font-size="24.0" fill="#000000" transform="matrix(1.00, 0.00, -0.00, -1.00, 615.1, 674.5)"> </text><text xml:space="preserve" font-family="ComicSansMS,Comic Sans MS" font-size="24.0" fill="#000000" transform="matrix(1.00, 0.00, -0.00, -1.00, 352.0, 641.5)">r</text><text xml:space="preserve" font-family="ComicSansMS,Comic Sans MS" font-size="24.0" fill="#000000" transform="matrix(1.00, 0.00, -0.00, -1.00, 363.6, 641.5)">e</text><text xml:space="preserve" font-family="ComicSansMS,Comic Sans MS" font-size="24.0" fill="#000000" transform="matrix(1.00, 0.00, -0.00, -1.00, 376.7, 641.5)">g</text><text xml:space="preserve" font-family="ComicSansMS,Comic Sans MS" font-size="24.0" fill="#000000" transform="matrix(1.00, 0.00, -0.00, -1.00, 389.5, 641.5)">i</text><text xml:space="preserve" font-family="ComicSansMS,Comic Sans MS" font-size="24.0" fill="#000000" transform="matrix(1.00, 0.00, -0.00, -1.00, 396.2, 641.5)">s</text><text xml:space="preserve" font-family="ComicSansMS,Comic Sans MS" font-size="24.0" fill="#000000" transform="matrix(1.00, 0.00, -0.00, -1.00, 407.9, 641.5)">t</text><text xml:space="preserve" font-family="ComicSansMS,Comic Sans MS" font-size="24.0" fill="#000000" transform="matrix(1.00, 0.00, -0.00, -1.00, 419.2, 641.5)">e</text><text xml:space="preserve" font-family="ComicSansMS,Comic Sans MS" font-size="24.0" fill="#000000" transform="matrix(1.00, 0.00, -0.00, -1.00, 432.3, 641.5)">r</text><text xml:space="preserve" font-family="ComicSansMS,Comic Sans MS" font-size="24.0" fill="#000000" transform="matrix(1.00, 0.00, -0.00, -1.00, 443.9, 641.5)"> </text><text xml:space="preserve" font-family="ComicSansMS,Comic Sans MS" font-size="24.0" fill="#000000" transform="matrix(1.00, 0.00, -0.00, -1.00, 451.1, 641.5)">y</text><text xml:space="preserve" font-family="ComicSansMS,Comic Sans MS" font-size="24.0" fill="#000000" transform="matrix(1.00, 0.00, -0.00, -1.00, 463.5, 641.5)">o</text><text xml:space="preserve" font-family="ComicSansMS,Comic Sans MS" font-size="24.0" fill="#000000" transform="matrix(1.00, 0.00, -0.00, -1.00, 476.2, 641.5)">u</text><text xml:space="preserve" font-family="ComicSansMS,Comic Sans MS" font-size="24.0" fill="#000000" transform="matrix(1.00, 0.00, -0.00, -1.00, 488.6, 641.5)">r</text><text xml:space="preserve" font-family="ComicSansMS,Comic Sans MS" font-size="24.0" fill="#000000" transform="matrix(1.00, 0.00, -0.00, -1.00, 500.2, 641.5)"> </text><text xml:space="preserve" font-family="ComicSansMS,Comic Sans MS" font-size="24.0" fill="#000000" transform="matrix(1.00, 0.00, -0.00, -1.00, 507.3, 641.5)">a</text><text xml:space="preserve" font-family="ComicSansMS,Comic Sans MS" font-size="24.0" fill="#000000" transform="matrix(1.00, 0.00, -0.00, -1.00, 519.6, 641.5)">p</text><text xml:space="preserve" font-family="ComicSansMS,Comic Sans MS" font-size="24.0" fill="#000000" transform="matrix(1.00, 0.00, -0.00, -1.00, 532.4, 641.5)">p</text><text xml:space="preserve" font-family="ComicSansMS,Comic Sans MS" font-size="24.0" fill="#000000" transform="matrix(1.00, 0.00, -0.00, -1.00, 545.3, 641.5)"> </text><text xml:space="preserve" font-family="ComicSansMS,Comic Sans MS" font-size="24.0" fill="#000000" transform="matrix(1.00, 0.00, -0.00, -1.00, 552.4, 641.5)">t</text><text xml:space="preserve" font-family="ComicSansMS,Comic Sans MS" font-size="24.0" fill="#000000" transform="matrix(1.00, 0.00, -0.00, -1.00, 563.7, 641.5)">o</text><text xml:space="preserve" font-family="ComicSansMS,Comic Sans MS" font-size="24.0" fill="#000000" transform="matrix(1.00, 0.00, -0.00, -1.00, 576.4, 641.5)"> </text><text xml:space="preserve" font-family="ComicSansMS,Comic Sans MS" font-size="24.0" fill="#000000" transform="matrix(1.00, 0.00, -0.00, -1.00, 583.5, 641.5)">y</text><text xml:space="preserve" font-family="ComicSansMS,Comic Sans MS" font-size="24.0" fill="#000000" transform="matrix(1.00, 0.00, -0.00, -1.00, 596.0, 641.5)">o</text><text xml:space="preserve" font-family="ComicSansMS,Comic Sans MS" font-size="24.0" fill="#000000" transform="matrix(1.00, 0.00, -0.00, -1.00, 608.6, 641.5)">u</text><text xml:space="preserve" font-family="ComicSansMS,Comic Sans MS" font-size="24.0" fill="#000000" transform="matrix(1.00, 0.00, -0.00, -1.00, 621.1, 641.5)">r</text><text xml:space="preserve" font-family="ComicSansMS,Comic Sans MS" font-size="24.0" fill="#000000" transform="matrix(1.00, 0.00, -0.00, -1.00, 632.7, 641.5)"> </text><text xml:space="preserve" font-family="ComicSansMS,Comic Sans MS" font-size="24.0" fill="#000000" transform="matrix(1.00, 0.00, -0.00, -1.00, 352.0, 608.5)">P</text><text xml:space="preserve" font-family="ComicSansMS,Comic Sans MS" font-size="24.0" fill="#000000" transform="matrix(1.00, 0.00, -0.00, -1.00, 364.5, 608.5)">r</text><text xml:space="preserve" font-family="ComicSansMS,Comic Sans MS" font-size="24.0" fill="#000000" transform="matrix(1.00, 0.00, -0.00, -1.00, 376.1, 608.5)">o</text><text xml:space="preserve" font-family="ComicSansMS,Comic Sans MS" font-size="24.0" fill="#000000" transform="matrix(1.00, 0.00, -0.00, -1.00, 388.7, 608.5)">v</text><text xml:space="preserve" font-family="ComicSansMS,Comic Sans MS" font-size="24.0" fill="#000000" transform="matrix(1.00, 0.00, -0.00, -1.00, 400.4, 608.5)">i</text><text xml:space="preserve" font-family="ComicSansMS,Comic Sans MS" font-size="24.0" fill="#000000" transform="matrix(1.00, 0.00, -0.00, -1.00, 407.1, 608.5)">d</text><text xml:space="preserve" font-family="ComicSansMS,Comic Sans MS" font-size="24.0" fill="#000000" transform="matrix(1.00, 0.00, -0.00, -1.00, 421.2, 608.5)">e</text><text xml:space="preserve" font-family="ComicSansMS,Comic Sans MS" font-size="24.0" fill="#000000" transform="matrix(1.00, 0.00, -0.00, -1.00, 434.3, 608.5)">r</text><text xml:space="preserve" font-family="ComicSansMS,Comic Sans MS" font-size="24.0" fill="#000000" transform="matrix(1.00, 0.00, -0.00, -1.00, 445.9, 608.5)"> </text><text xml:space="preserve" font-family="ComicSansMS,Comic Sans MS" font-size="24.0" fill="#000000" transform="matrix(1.00, 0.00, -0.00, -1.00, 453.1, 608.5)">a</text><text xml:space="preserve" font-family="ComicSansMS,Comic Sans MS" font-size="24.0" fill="#000000" transform="matrix(1.00, 0.00, -0.00, -1.00, 465.3, 608.5)">d</text><text xml:space="preserve" font-family="ComicSansMS,Comic Sans MS" font-size="24.0" fill="#000000" transform="matrix(1.00, 0.00, -0.00, -1.00, 479.4, 608.5)">m</text><text xml:space="preserve" font-family="ComicSansMS,Comic Sans MS" font-size="24.0" fill="#000000" transform="matrix(1.00, 0.00, -0.00, -1.00, 498.1, 608.5)">i</text><text xml:space="preserve" font-family="ComicSansMS,Comic Sans MS" font-size="24.0" fill="#000000" transform="matrix(1.00, 0.00, -0.00, -1.00, 504.8, 608.5)">n</text><text xml:space="preserve" font-family="ComicSansMS,Comic Sans MS" font-size="24.0" fill="#000000" transform="matrix(1.00, 0.00, -0.00, -1.00, 517.4, 608.5)"> </text><text xml:space="preserve" font-family="ComicSansMS,Comic Sans MS" font-size="24.0" fill="#000000" transform="matrix(1.00, 0.00, -0.00, -1.00, 524.5, 608.5)">c</text><text xml:space="preserve" font-family="ComicSansMS,Comic Sans MS" font-size="24.0" fill="#000000" transform="matrix(1.00, 0.00, -0.00, -1.00, 536.9, 608.5)">o</text><text xml:space="preserve" font-family="ComicSansMS,Comic Sans MS" font-size="24.0" fill="#000000" transform="matrix(1.00, 0.00, -0.00, -1.00, 549.5, 608.5)">n</text><text xml:space="preserve" font-family="ComicSansMS,Comic Sans MS" font-size="24.0" fill="#000000" transform="matrix(1.00, 0.00, -0.00, -1.00, 562.0, 608.5)">s</text><text xml:space="preserve" font-family="ComicSansMS,Comic Sans MS" font-size="24.0" fill="#000000" transform="matrix(1.00, 0.00, -0.00, -1.00, 573.7, 608.5)">o</text><text xml:space="preserve" font-family="ComicSansMS,Comic Sans MS" font-size="24.0" fill="#000000" transform="matrix(1.00, 0.00, -0.00, -1.00, 586.3, 608.5)">l</text><text xml:space="preserve" font-family="ComicSansMS,Comic Sans MS" font-size="24.0" fill="#000000" transform="matrix(1.00, 0.00, -0.00, -1.00, 592.9, 608.5)">e</text></g></g></g></svg>