<?xml version="1.0" encoding="UTF-8" standalone="no"?><svg xmlns="http://www.w3.org/2000/svg" xmlns:xlink="http://www.w3.org/1999/xlink" clip-rule="evenodd" stroke-miterlimit="10" viewBox="0 0 1280 720"><desc>SVG generated by Keynote</desc><defs></defs><g transform="matrix(1.00, 0.00, -0.00, -1.00, 0.0, 720.0)"><path d="M 0.0 720.0 L 1280.0 720.0 L 1280.0 0.0 L 0.0 0.0 Z M 0.0 720.0 " fill="#FFFFFF"></path><path d="M -12.0 721.0 L 1279.0 721.0 L 1279.0 592.0 L -12.0 592.0 Z M -12.0 721.0 " fill="#FFFFFF"></path><image xlink:href="../../51C09A98-96B9-4111-8917-4A6A011BFB10/assets/41194C9459DB3CBFD690A61B4CFF6222.png" width="647.00" height="120.00" transform="matrix(0.00, 1.00, 1.00, -0.00, -10.5, 54.5)"></image><path d="M 0.0 49.0 L 1289.0 49.0 L 1289.0 0.0 L 0.0 0.0 Z M 0.0 49.0 " fill="#F4AE33"></path><text xml:space="preserve" font-family="ArialMT,Arial" font-size="32.0" fill="#000000" transform="matrix(1.00, 0.00, -0.00, -1.00, 12.0, 12.3)">#</text><text xml:space="preserve" font-family="ArialMT,Arial" font-size="32.0" fill="#000000" transform="matrix(1.00, 0.00, -0.00, -1.00, 29.8, 12.3)">D</text><text xml:space="preserve" font-family="ArialMT,Arial" font-size="32.0" fill="#000000" transform="matrix(1.00, 0.00, -0.00, -1.00, 52.9, 12.3)">V</text><text xml:space="preserve" font-family="ArialMT,Arial" font-size="32.0" fill="#000000" transform="matrix(1.00, 0.00, -0.00, -1.00, 74.3, 12.3)">1</text><text xml:space="preserve" font-family="ArialMT,Arial" font-size="32.0" fill="#000000" transform="matrix(1.00, 0.00, -0.00, -1.00, 92.1, 12.3)">4</text><text xml:space="preserve" font-family="ArialMT,Arial" font-size="32.0" fill="#000000" transform="matrix(1.00, 0.00, -0.00, -1.00, 109.9, 12.3)"> </text><text xml:space="preserve" font-family="ArialMT,Arial" font-size="32.0" fill="#000000" transform="matrix(1.00, 0.00, -0.00, -1.00, 118.8, 12.3)"> </text><text xml:space="preserve" font-family="ArialMT,Arial" font-size="32.0" fill="#000000" transform="matrix(1.00, 0.00, -0.00, -1.00, 127.6, 12.3)">#</text><text xml:space="preserve" font-family="ArialMT,Arial" font-size="32.0" fill="#000000" transform="matrix(1.00, 0.00, -0.00, -1.00, 145.4, 12.3)">O</text><text xml:space="preserve" font-family="ArialMT,Arial" font-size="32.0" fill="#000000" transform="matrix(1.00, 0.00, -0.00, -1.00, 170.3, 12.3)">A</text><text xml:space="preserve" font-family="ArialMT,Arial" font-size="32.0" fill="#000000" transform="matrix(1.00, 0.00, -0.00, -1.00, 191.6, 12.3)">u</text><text xml:space="preserve" font-family="ArialMT,Arial" font-size="32.0" fill="#000000" transform="matrix(1.00, 0.00, -0.00, -1.00, 209.5, 12.3)">t</text><text xml:space="preserve" font-family="ArialMT,Arial" font-size="32.0" fill="#000000" transform="matrix(1.00, 0.00, -0.00, -1.00, 218.3, 12.3)">h</text><text xml:space="preserve" font-family="ArialMT,Arial" font-size="32.0" fill="#000000" transform="matrix(1.00, 0.00, -0.00, -1.00, 236.1, 12.3)">2</text><text xml:space="preserve" font-family="ArialMT,Arial" font-size="32.0" fill="#000000" transform="matrix(1.00, 0.00, -0.00, -1.00, 253.9, 12.3)"> </text><text xml:space="preserve" font-family="ArialMT,Arial" font-size="32.0" fill="#000000" transform="matrix(1.00, 0.00, -0.00, -1.00, 262.8, 12.3)">#</text><text xml:space="preserve" font-family="ArialMT,Arial" font-size="32.0" fill="#000000" transform="matrix(1.00, 0.00, -0.00, -1.00, 280.6, 12.3)">M</text><text xml:space="preserve" font-family="ArialMT,Arial" font-size="32.0" fill="#000000" transform="matrix(1.00, 0.00, -0.00, -1.00, 307.3, 12.3)">o</text><text xml:space="preserve" font-family="ArialMT,Arial" font-size="32.0" fill="#000000" transform="matrix(1.00, 0.00, -0.00, -1.00, 325.1, 12.3)">b</text><text xml:space="preserve" font-family="ArialMT,Arial" font-size="32.0" fill="#000000" transform="matrix(1.00, 0.00, -0.00, -1.00, 342.9, 12.3)">i</text><text xml:space="preserve" font-family="ArialMT,Arial" font-size="32.0" fill="#000000" transform="matrix(1.00, 0.00, -0.00, -1.00, 350.0, 12.3)">l</text><text xml:space="preserve" font-family="ArialMT,Arial" font-size="32.0" fill="#000000" transform="matrix(1.00, 0.00, -0.00, -1.00, 357.1, 12.3)">e</text><text xml:space="preserve" font-family="ArialMT,Arial" font-size="32.0" fill="#000000" transform="matrix(1.00, 0.00, -0.00, -1.00, 1045.9, 12.3)">@</text><text xml:space="preserve" font-family="ArialMT,Arial" font-size="32.0" fill="#000000" transform="matrix(1.00, 0.00, -0.00, -1.00, 1078.4, 12.3)">c</text><text xml:space="preserve" font-family="ArialMT,Arial" font-size="32.0" fill="#000000" transform="matrix(1.00, 0.00, -0.00, -1.00, 1094.4, 12.3)">o</text><text xml:space="preserve" font-family="ArialMT,Arial" font-size="32.0" fill="#000000" transform="matrix(1.00, 0.00, -0.00, -1.00, 1112.2, 12.3)">r</text><text xml:space="preserve" font-family="ArialMT,Arial" font-size="32.0" fill="#000000" transform="matrix(1.00, 0.00, -0.00, -1.00, 1122.8, 12.3)">i</text><text xml:space="preserve" font-family="ArialMT,Arial" font-size="32.0" fill="#000000" transform="matrix(1.00, 0.00, -0.00, -1.00, 1129.9, 12.3)">n</text><text xml:space="preserve" font-family="ArialMT,Arial" font-size="32.0" fill="#000000" transform="matrix(1.00, 0.00, -0.00, -1.00, 1147.7, 12.3)">n</text><text xml:space="preserve" font-family="ArialMT,Arial" font-size="32.0" fill="#000000" transform="matrix(1.00, 0.00, -0.00, -1.00, 1165.5, 12.3)">e</text><text xml:space="preserve" font-family="ArialMT,Arial" font-size="32.0" fill="#000000" transform="matrix(1.00, 0.00, -0.00, -1.00, 1183.3, 12.3)">k</text><text xml:space="preserve" font-family="ArialMT,Arial" font-size="32.0" fill="#000000" transform="matrix(1.00, 0.00, -0.00, -1.00, 1199.3, 12.3)">r</text><text xml:space="preserve" font-family="ArialMT,Arial" font-size="32.0" fill="#000000" transform="matrix(1.00, 0.00, -0.00, -1.00, 1210.0, 12.3)">y</text><text xml:space="preserve" font-family="ArialMT,Arial" font-size="32.0" fill="#000000" transform="matrix(1.00, 0.00, -0.00, -1.00, 1226.0, 12.3)">c</text><text xml:space="preserve" font-family="ArialMT,Arial" font-size="32.0" fill="#000000" transform="matrix(1.00, 0.00, -0.00, -1.00, 1242.0, 12.3)">h</text><text xml:space="preserve" font-family="Arial-BoldMT,Arial" font-weight="bold" font-size="32.0" fill="#000000" transform="matrix(0.00, 1.00, 1.00, -0.00, 143.2, 115.7)">D</text><text xml:space="preserve" font-family="Arial-BoldMT,Arial" font-weight="bold" font-size="32.0" fill="#000000" transform="matrix(0.00, 1.00, 1.00, -0.00, 143.2, 138.8)">e</text><text xml:space="preserve" font-family="Arial-BoldMT,Arial" font-weight="bold" font-size="32.0" fill="#000000" transform="matrix(0.00, 1.00, 1.00, -0.00, 143.2, 156.6)">l</text><text xml:space="preserve" font-family="Arial-BoldMT,Arial" font-weight="bold" font-size="32.0" fill="#000000" transform="matrix(0.00, 1.00, 1.00, -0.00, 143.2, 165.5)">v</text><text xml:space="preserve" font-family="Arial-BoldMT,Arial" font-weight="bold" font-size="32.0" fill="#000000" transform="matrix(0.00, 1.00, 1.00, -0.00, 143.2, 183.3)">i</text><text xml:space="preserve" font-family="Arial-BoldMT,Arial" font-weight="bold" font-size="32.0" fill="#000000" transform="matrix(0.00, 1.00, 1.00, -0.00, 143.2, 192.1)">n</text><text xml:space="preserve" font-family="Arial-BoldMT,Arial" font-weight="bold" font-size="32.0" fill="#000000" transform="matrix(0.00, 1.00, 1.00, -0.00, 143.2, 211.7)">g</text><text xml:space="preserve" font-family="Arial-BoldMT,Arial" font-weight="bold" font-size="32.0" fill="#000000" transform="matrix(0.00, 1.00, 1.00, -0.00, 143.2, 231.2)"> </text><text xml:space="preserve" font-family="Arial-BoldMT,Arial" font-weight="bold" font-size="32.0" fill="#000000" transform="matrix(0.00, 1.00, 1.00, -0.00, 143.2, 240.1)">d</text><text xml:space="preserve" font-family="Arial-BoldMT,Arial" font-weight="bold" font-size="32.0" fill="#000000" transform="matrix(0.00, 1.00, 1.00, -0.00, 143.2, 259.7)">e</text><text xml:space="preserve" font-family="Arial-BoldMT,Arial" font-weight="bold" font-size="32.0" fill="#000000" transform="matrix(0.00, 1.00, 1.00, -0.00, 143.2, 277.5)">e</text><text xml:space="preserve" font-family="Arial-BoldMT,Arial" font-weight="bold" font-size="32.0" fill="#000000" transform="matrix(0.00, 1.00, 1.00, -0.00, 143.2, 295.3)">p</text><text xml:space="preserve" font-family="Arial-BoldMT,Arial" font-weight="bold" font-size="32.0" fill="#000000" transform="matrix(0.00, 1.00, 1.00, -0.00, 143.2, 314.8)">e</text><text xml:space="preserve" font-family="Arial-BoldMT,Arial" font-weight="bold" font-size="32.0" fill="#000000" transform="matrix(0.00, 1.00, 1.00, -0.00, 143.2, 332.6)">r</text><text xml:space="preserve" font-family="Arial-BoldMT,Arial" font-weight="bold" font-size="32.0" fill="#000000" transform="matrix(0.00, 1.00, 1.00, -0.00, 143.2, 345.1)"> </text><text xml:space="preserve" font-family="Arial-BoldMT,Arial" font-weight="bold" font-size="32.0" fill="#000000" transform="matrix(0.00, 1.00, 1.00, -0.00, 143.2, 353.9)">i</text><text xml:space="preserve" font-family="Arial-BoldMT,Arial" font-weight="bold" font-size="32.0" fill="#000000" transform="matrix(0.00, 1.00, 1.00, -0.00, 143.2, 362.8)">n</text><text xml:space="preserve" font-family="Arial-BoldMT,Arial" font-weight="bold" font-size="32.0" fill="#000000" transform="matrix(0.00, 1.00, 1.00, -0.00, 143.2, 382.4)">t</text><text xml:space="preserve" font-family="Arial-BoldMT,Arial" font-weight="bold" font-size="32.0" fill="#000000" transform="matrix(0.00, 1.00, 1.00, -0.00, 143.2, 393.0)">o</text><text xml:space="preserve" font-family="Arial-BoldMT,Arial" font-weight="bold" font-size="32.0" fill="#000000" transform="matrix(0.00, 1.00, 1.00, -0.00, 143.2, 412.6)"> </text><text xml:space="preserve" font-family="Arial-BoldMT,Arial" font-weight="bold" font-size="32.0" fill="#000000" transform="matrix(0.00, 1.00, 1.00, -0.00, 143.2, 421.4)">a</text><text xml:space="preserve" font-family="Arial-BoldMT,Arial" font-weight="bold" font-size="32.0" fill="#000000" transform="matrix(0.00, 1.00, 1.00, -0.00, 143.2, 439.3)">u</text><text xml:space="preserve" font-family="Arial-BoldMT,Arial" font-weight="bold" font-size="32.0" fill="#000000" transform="matrix(0.00, 1.00, 1.00, -0.00, 143.2, 458.8)">t</text><text xml:space="preserve" font-family="Arial-BoldMT,Arial" font-weight="bold" font-size="32.0" fill="#000000" transform="matrix(0.00, 1.00, 1.00, -0.00, 143.2, 469.4)">h</text><text xml:space="preserve" font-family="Arial-BoldMT,Arial" font-weight="bold" font-size="32.0" fill="#000000" transform="matrix(0.00, 1.00, 1.00, -0.00, 143.2, 489.0)">z</text><text xml:space="preserve" font-family="Arial-BoldMT,Arial" font-weight="bold" font-size="32.0" fill="#000000" transform="matrix(0.00, 1.00, 1.00, -0.00, 143.2, 505.0)"> </text><text xml:space="preserve" font-family="Arial-BoldMT,Arial" font-weight="bold" font-size="32.0" fill="#000000" transform="matrix(0.00, 1.00, 1.00, -0.00, 143.2, 513.9)">c</text><text xml:space="preserve" font-family="Arial-BoldMT,Arial" font-weight="bold" font-size="32.0" fill="#000000" transform="matrix(0.00, 1.00, 1.00, -0.00, 143.2, 531.7)">o</text><text xml:space="preserve" font-family="Arial-BoldMT,Arial" font-weight="bold" font-size="32.0" fill="#000000" transform="matrix(0.00, 1.00, 1.00, -0.00, 143.2, 551.2)">d</text><text xml:space="preserve" font-family="Arial-BoldMT,Arial" font-weight="bold" font-size="32.0" fill="#000000" transform="matrix(0.00, 1.00, 1.00, -0.00, 143.2, 570.8)">e</text><text xml:space="preserve" font-family="Arial-BoldMT,Arial" font-weight="bold" font-size="32.0" fill="#000000" transform="matrix(0.00, 1.00, 1.00, -0.00, 143.2, 588.6)"> </text><text xml:space="preserve" font-family="Arial-BoldMT,Arial" font-weight="bold" font-size="32.0" fill="#000000" transform="matrix(0.00, 1.00, 1.00, -0.00, 143.2, 597.4)">f</text><text xml:space="preserve" font-family="Arial-BoldMT,Arial" font-weight="bold" font-size="32.0" fill="#000000" transform="matrix(0.00, 1.00, 1.00, -0.00, 143.2, 608.1)">l</text><text xml:space="preserve" font-family="Arial-BoldMT,Arial" font-weight="bold" font-size="32.0" fill="#000000" transform="matrix(0.00, 1.00, 1.00, -0.00, 143.2, 617.0)">o</text><text xml:space="preserve" font-family="Arial-BoldMT,Arial" font-weight="bold" font-size="32.0" fill="#000000" transform="matrix(0.00, 1.00, 1.00, -0.00, 143.2, 636.5)">w</text><text xml:space="preserve" font-family="Arial-BoldMT,Arial" font-weight="bold" font-size="32.0" fill="#0000FF" transform="matrix(1.00, 0.00, -0.00, -1.00, 423.1, 377.4)">I</text><text xml:space="preserve" font-family="Arial-BoldMT,Arial" font-weight="bold" font-size="32.0" fill="#0000FF" transform="matrix(1.00, 0.00, -0.00, -1.00, 432.0, 377.4)">n</text><text xml:space="preserve" font-family="Arial-BoldMT,Arial" font-weight="bold" font-size="32.0" fill="#0000FF" transform="matrix(1.00, 0.00, -0.00, -1.00, 451.5, 377.4)">s</text><text xml:space="preserve" font-family="Arial-BoldMT,Arial" font-weight="bold" font-size="32.0" fill="#0000FF" transform="matrix(1.00, 0.00, -0.00, -1.00, 469.3, 377.4)">p</text><text xml:space="preserve" font-family="Arial-BoldMT,Arial" font-weight="bold" font-size="32.0" fill="#0000FF" transform="matrix(1.00, 0.00, -0.00, -1.00, 488.9, 377.4)">e</text><text xml:space="preserve" font-family="Arial-BoldMT,Arial" font-weight="bold" font-size="32.0" fill="#0000FF" transform="matrix(1.00, 0.00, -0.00, -1.00, 506.7, 377.4)">c</text><text xml:space="preserve" font-family="Arial-BoldMT,Arial" font-weight="bold" font-size="32.0" fill="#0000FF" transform="matrix(1.00, 0.00, -0.00, -1.00, 524.5, 377.4)">t</text><text xml:space="preserve" font-family="Arial-BoldMT,Arial" font-weight="bold" font-size="32.0" fill="#0000FF" transform="matrix(1.00, 0.00, -0.00, -1.00, 535.1, 377.4)">i</text><text xml:space="preserve" font-family="Arial-BoldMT,Arial" font-weight="bold" font-size="32.0" fill="#0000FF" transform="matrix(1.00, 0.00, -0.00, -1.00, 544.0, 377.4)">n</text><text xml:space="preserve" font-family="Arial-BoldMT,Arial" font-weight="bold" font-size="32.0" fill="#0000FF" transform="matrix(1.00, 0.00, -0.00, -1.00, 563.5, 377.4)">g</text><text xml:space="preserve" font-family="Arial-BoldMT,Arial" font-weight="bold" font-size="32.0" fill="#0000FF" transform="matrix(1.00, 0.00, -0.00, -1.00, 583.1, 377.4)"> </text><text xml:space="preserve" font-family="Arial-BoldMT,Arial" font-weight="bold" font-size="32.0" fill="#0000FF" transform="matrix(1.00, 0.00, -0.00, -1.00, 592.0, 377.4)">O</text><text xml:space="preserve" font-family="Arial-BoldMT,Arial" font-weight="bold" font-size="32.0" fill="#0000FF" transform="matrix(1.00, 0.00, -0.00, -1.00, 616.9, 377.4)">A</text><text xml:space="preserve" font-family="Arial-BoldMT,Arial" font-weight="bold" font-size="32.0" fill="#0000FF" transform="matrix(1.00, 0.00, -0.00, -1.00, 640.0, 377.4)">u</text><text xml:space="preserve" font-family="Arial-BoldMT,Arial" font-weight="bold" font-size="32.0" fill="#0000FF" transform="matrix(1.00, 0.00, -0.00, -1.00, 659.5, 377.4)">t</text><text xml:space="preserve" font-family="Arial-BoldMT,Arial" font-weight="bold" font-size="32.0" fill="#0000FF" transform="matrix(1.00, 0.00, -0.00, -1.00, 670.2, 377.4)">h</text><text xml:space="preserve" font-family="Arial-BoldMT,Arial" font-weight="bold" font-size="32.0" fill="#0000FF" transform="matrix(1.00, 0.00, -0.00, -1.00, 689.7, 377.4)">2</text><text xml:space="preserve" font-family="Arial-BoldMT,Arial" font-weight="bold" font-size="32.0" fill="#0000FF" transform="matrix(1.00, 0.00, -0.00, -1.00, 707.5, 377.4)"> </text><text xml:space="preserve" font-family="Arial-BoldMT,Arial" font-weight="bold" font-size="32.0" fill="#0000FF" transform="matrix(1.00, 0.00, -0.00, -1.00, 716.4, 377.4)">h</text><text xml:space="preserve" font-family="Arial-BoldMT,Arial" font-weight="bold" font-size="32.0" fill="#0000FF" transform="matrix(1.00, 0.00, -0.00, -1.00, 735.9, 377.4)">t</text><text xml:space="preserve" font-family="Arial-BoldMT,Arial" font-weight="bold" font-size="32.0" fill="#0000FF" transform="matrix(1.00, 0.00, -0.00, -1.00, 746.6, 377.4)">t</text><text xml:space="preserve" font-family="Arial-BoldMT,Arial" font-weight="bold" font-size="32.0" fill="#0000FF" transform="matrix(1.00, 0.00, -0.00, -1.00, 757.3, 377.4)">p</text><text xml:space="preserve" font-family="Arial-BoldMT,Arial" font-weight="bold" font-size="32.0" fill="#0000FF" transform="matrix(1.00, 0.00, -0.00, -1.00, 776.8, 377.4)"> </text><text xml:space="preserve" font-family="Arial-BoldMT,Arial" font-weight="bold" font-size="32.0" fill="#0000FF" transform="matrix(1.00, 0.00, -0.00, -1.00, 785.7, 377.4)">c</text><text xml:space="preserve" font-family="Arial-BoldMT,Arial" font-weight="bold" font-size="32.0" fill="#0000FF" transform="matrix(1.00, 0.00, -0.00, -1.00, 803.5, 377.4)">a</text><text xml:space="preserve" font-family="Arial-BoldMT,Arial" font-weight="bold" font-size="32.0" fill="#0000FF" transform="matrix(1.00, 0.00, -0.00, -1.00, 821.3, 377.4)">l</text><text xml:space="preserve" font-family="Arial-BoldMT,Arial" font-weight="bold" font-size="32.0" fill="#0000FF" transform="matrix(1.00, 0.00, -0.00, -1.00, 830.2, 377.4)">l</text><text xml:space="preserve" font-family="Arial-BoldMT,Arial" font-weight="bold" font-size="32.0" fill="#0000FF" transform="matrix(1.00, 0.00, -0.00, -1.00, 839.1, 377.4)">s</text><g><clipPath id="clip0x610000ab41c0"><path d="M 422.1 371.3 L 856.9 371.3 L 856.9 376.7 L 422.1 376.7 Z M 422.1 371.3 "></path></clipPath><g clip-path="url(#clip0x610000ab41c0)"><path d="M 4.5 36.6 L 438.3 36.6 " fill="none" stroke="#0000FF" stroke-width="3.36" transform="matrix(1.00, 0.00, 0.00, -1.00, 418.6, 410.5)"></path></g></g></g></svg>