<?xml version="1.0" encoding="UTF-8" standalone="no"?><svg xmlns="http://www.w3.org/2000/svg" xmlns:xlink="http://www.w3.org/1999/xlink" clip-rule="evenodd" stroke-miterlimit="10" viewBox="0 0 1280 720"><desc>SVG generated by Keynote</desc><defs></defs><g transform="matrix(1.00, 0.00, -0.00, -1.00, 0.0, 720.0)"><path d="M 0.0 720.0 L 1280.0 720.0 L 1280.0 0.0 L 0.0 0.0 Z M 0.0 720.0 " fill="#FFFFFF"></path><path d="M -12.0 721.0 L 1279.0 721.0 L 1279.0 592.0 L -12.0 592.0 Z M -12.0 721.0 " fill="#FFFFFF"></path><image xlink:href="../../51C09A98-96B9-4111-8917-4A6A011BFB10/assets/41194C9459DB3CBFD690A61B4CFF6222.png" width="647.00" height="120.00" transform="matrix(0.00, 1.00, 1.00, -0.00, -10.5, 54.5)"></image><path d="M 0.0 49.0 L 1289.0 49.0 L 1289.0 0.0 L 0.0 0.0 Z M 0.0 49.0 " fill="#F4AE33"></path><text xml:space="preserve" font-family="ArialMT,Arial" font-size="32.0" fill="#000000" transform="matrix(1.00, 0.00, -0.00, -1.00, 12.0, 12.3)">#</text><text xml:space="preserve" font-family="ArialMT,Arial" font-size="32.0" fill="#000000" transform="matrix(1.00, 0.00, -0.00, -1.00, 29.8, 12.3)">D</text><text xml:space="preserve" font-family="ArialMT,Arial" font-size="32.0" fill="#000000" transform="matrix(1.00, 0.00, -0.00, -1.00, 52.9, 12.3)">V</text><text xml:space="preserve" font-family="ArialMT,Arial" font-size="32.0" fill="#000000" transform="matrix(1.00, 0.00, -0.00, -1.00, 74.3, 12.3)">1</text><text xml:space="preserve" font-family="ArialMT,Arial" font-size="32.0" fill="#000000" transform="matrix(1.00, 0.00, -0.00, -1.00, 92.1, 12.3)">4</text><text xml:space="preserve" font-family="ArialMT,Arial" font-size="32.0" fill="#000000" transform="matrix(1.00, 0.00, -0.00, -1.00, 109.9, 12.3)"> </text><text xml:space="preserve" font-family="ArialMT,Arial" font-size="32.0" fill="#000000" transform="matrix(1.00, 0.00, -0.00, -1.00, 118.8, 12.3)"> </text><text xml:space="preserve" font-family="ArialMT,Arial" font-size="32.0" fill="#000000" transform="matrix(1.00, 0.00, -0.00, -1.00, 127.6, 12.3)">#</text><text xml:space="preserve" font-family="ArialMT,Arial" font-size="32.0" fill="#000000" transform="matrix(1.00, 0.00, -0.00, -1.00, 145.4, 12.3)">O</text><text xml:space="preserve" font-family="ArialMT,Arial" font-size="32.0" fill="#000000" transform="matrix(1.00, 0.00, -0.00, -1.00, 170.3, 12.3)">A</text><text xml:space="preserve" font-family="ArialMT,Arial" font-size="32.0" fill="#000000" transform="matrix(1.00, 0.00, -0.00, -1.00, 191.6, 12.3)">u</text><text xml:space="preserve" font-family="ArialMT,Arial" font-size="32.0" fill="#000000" transform="matrix(1.00, 0.00, -0.00, -1.00, 209.5, 12.3)">t</text><text xml:space="preserve" font-family="ArialMT,Arial" font-size="32.0" fill="#000000" transform="matrix(1.00, 0.00, -0.00, -1.00, 218.3, 12.3)">h</text><text xml:space="preserve" font-family="ArialMT,Arial" font-size="32.0" fill="#000000" transform="matrix(1.00, 0.00, -0.00, -1.00, 236.1, 12.3)">2</text><text xml:space="preserve" font-family="ArialMT,Arial" font-size="32.0" fill="#000000" transform="matrix(1.00, 0.00, -0.00, -1.00, 253.9, 12.3)"> </text><text xml:space="preserve" font-family="ArialMT,Arial" font-size="32.0" fill="#000000" transform="matrix(1.00, 0.00, -0.00, -1.00, 262.8, 12.3)">#</text><text xml:space="preserve" font-family="ArialMT,Arial" font-size="32.0" fill="#000000" transform="matrix(1.00, 0.00, -0.00, -1.00, 280.6, 12.3)">M</text><text xml:space="preserve" font-family="ArialMT,Arial" font-size="32.0" fill="#000000" transform="matrix(1.00, 0.00, -0.00, -1.00, 307.3, 12.3)">o</text><text xml:space="preserve" font-family="ArialMT,Arial" font-size="32.0" fill="#000000" transform="matrix(1.00, 0.00, -0.00, -1.00, 325.1, 12.3)">b</text><text xml:space="preserve" font-family="ArialMT,Arial" font-size="32.0" fill="#000000" transform="matrix(1.00, 0.00, -0.00, -1.00, 342.9, 12.3)">i</text><text xml:space="preserve" font-family="ArialMT,Arial" font-size="32.0" fill="#000000" transform="matrix(1.00, 0.00, -0.00, -1.00, 350.0, 12.3)">l</text><text xml:space="preserve" font-family="ArialMT,Arial" font-size="32.0" fill="#000000" transform="matrix(1.00, 0.00, -0.00, -1.00, 357.1, 12.3)">e</text><text xml:space="preserve" font-family="ArialMT,Arial" font-size="32.0" fill="#000000" transform="matrix(1.00, 0.00, -0.00, -1.00, 1045.9, 12.3)">@</text><text xml:space="preserve" font-family="ArialMT,Arial" font-size="32.0" fill="#000000" transform="matrix(1.00, 0.00, -0.00, -1.00, 1078.4, 12.3)">c</text><text xml:space="preserve" font-family="ArialMT,Arial" font-size="32.0" fill="#000000" transform="matrix(1.00, 0.00, -0.00, -1.00, 1094.4, 12.3)">o</text><text xml:space="preserve" font-family="ArialMT,Arial" font-size="32.0" fill="#000000" transform="matrix(1.00, 0.00, -0.00, -1.00, 1112.2, 12.3)">r</text><text xml:space="preserve" font-family="ArialMT,Arial" font-size="32.0" fill="#000000" transform="matrix(1.00, 0.00, -0.00, -1.00, 1122.8, 12.3)">i</text><text xml:space="preserve" font-family="ArialMT,Arial" font-size="32.0" fill="#000000" transform="matrix(1.00, 0.00, -0.00, -1.00, 1129.9, 12.3)">n</text><text xml:space="preserve" font-family="ArialMT,Arial" font-size="32.0" fill="#000000" transform="matrix(1.00, 0.00, -0.00, -1.00, 1147.7, 12.3)">n</text><text xml:space="preserve" font-family="ArialMT,Arial" font-size="32.0" fill="#000000" transform="matrix(1.00, 0.00, -0.00, -1.00, 1165.5, 12.3)">e</text><text xml:space="preserve" font-family="ArialMT,Arial" font-size="32.0" fill="#000000" transform="matrix(1.00, 0.00, -0.00, -1.00, 1183.3, 12.3)">k</text><text xml:space="preserve" font-family="ArialMT,Arial" font-size="32.0" fill="#000000" transform="matrix(1.00, 0.00, -0.00, -1.00, 1199.3, 12.3)">r</text><text xml:space="preserve" font-family="ArialMT,Arial" font-size="32.0" fill="#000000" transform="matrix(1.00, 0.00, -0.00, -1.00, 1210.0, 12.3)">y</text><text xml:space="preserve" font-family="ArialMT,Arial" font-size="32.0" fill="#000000" transform="matrix(1.00, 0.00, -0.00, -1.00, 1226.0, 12.3)">c</text><text xml:space="preserve" font-family="ArialMT,Arial" font-size="32.0" fill="#000000" transform="matrix(1.00, 0.00, -0.00, -1.00, 1242.0, 12.3)">h</text><image xlink:href="46128456917F46772CC4C59E7EC455B0.png" width="1045.00" height="1042.00" transform="matrix(0.70, 0.00, -0.00, -0.70, 364.0, 775.5)"></image><path d="M 430.7 710.0 C 427.6 710.0 425.0 707.5 425.0 704.4 L 425.0 636.7 C 425.0 633.6 427.6 631.0 430.7 631.0 L 528.8 631.0 L 536.3 605.5 L 543.9 631.0 L 731.8 631.0 C 734.9 631.0 737.0 633.6 737.0 636.7 L 737.0 704.4 C 737.0 707.5 734.9 710.0 731.8 710.0 L 430.7 710.0 Z M 430.7 710.0 " fill="#FEFFFE"></path><path d="M 5.6 -0.0 C 2.5 0.0 -0.0 2.5 -0.0 5.6 L -0.0 73.2 C -0.0 76.4 2.5 79.0 5.6 79.0 L 103.7 79.0 L 111.3 104.4 L 118.8 79.0 L 306.7 79.0 C 309.8 79.0 312.0 76.4 312.0 73.2 L 312.0 5.6 C 312.0 2.5 309.8 -0.0 306.7 -0.0 L 5.6 -0.0 Z M 5.6 0.0 " fill="none" stroke="#000000" stroke-width="2.00" transform="matrix(1.00, 0.00, 0.00, -1.00, 425.0, 710.0)"></path><g><clipPath id="clip0x600000cbad00"><path d="M 423.4 631.1 L 739.0 631.1 L 739.0 710.0 L 423.4 710.0 Z M 423.4 631.1 "></path></clipPath><g clip-path="url(#clip0x600000cbad00)"><text xml:space="preserve" font-family="ComicSansMS,Comic Sans MS" font-size="20.0" fill="#000000" transform="matrix(1.00, 0.00, -0.00, -1.00, 430.6, 676.4)">T</text><text xml:space="preserve" font-family="ComicSansMS,Comic Sans MS" font-size="20.0" fill="#000000" transform="matrix(1.00, 0.00, -0.00, -1.00, 444.2, 676.4)">h</text><text xml:space="preserve" font-family="ComicSansMS,Comic Sans MS" font-size="20.0" fill="#000000" transform="matrix(1.00, 0.00, -0.00, -1.00, 455.7, 676.4)">a</text><text xml:space="preserve" font-family="ComicSansMS,Comic Sans MS" font-size="20.0" fill="#000000" transform="matrix(1.00, 0.00, -0.00, -1.00, 466.0, 676.4)">t</text><text xml:space="preserve" font-family="ComicSansMS,Comic Sans MS" font-size="20.0" fill="#000000" transform="matrix(1.00, 0.00, -0.00, -1.00, 475.4, 676.4)">’</text><text xml:space="preserve" font-family="ComicSansMS,Comic Sans MS" font-size="20.0" fill="#000000" transform="matrix(1.00, 0.00, -0.00, -1.00, 479.0, 676.4)">s</text><text xml:space="preserve" font-family="ComicSansMS,Comic Sans MS" font-size="20.0" fill="#000000" transform="matrix(1.00, 0.00, -0.00, -1.00, 488.7, 676.4)"> </text><text xml:space="preserve" font-family="ComicSansMS,Comic Sans MS" font-size="20.0" fill="#000000" transform="matrix(1.00, 0.00, -0.00, -1.00, 494.7, 676.4)">i</text><text xml:space="preserve" font-family="ComicSansMS,Comic Sans MS" font-size="20.0" fill="#000000" transform="matrix(1.00, 0.00, -0.00, -1.00, 500.3, 676.4)">t</text><text xml:space="preserve" font-family="ComicSansMS,Comic Sans MS" font-size="20.0" fill="#000000" transform="matrix(1.00, 0.00, -0.00, -1.00, 509.8, 676.4)">,</text><text xml:space="preserve" font-family="ComicSansMS,Comic Sans MS" font-size="20.0" fill="#000000" transform="matrix(1.00, 0.00, -0.00, -1.00, 515.3, 676.4)"> </text><text xml:space="preserve" font-family="ComicSansMS,Comic Sans MS" font-size="20.0" fill="#000000" transform="matrix(1.00, 0.00, -0.00, -1.00, 521.3, 676.4)">y</text><text xml:space="preserve" font-family="ComicSansMS,Comic Sans MS" font-size="20.0" fill="#000000" transform="matrix(1.00, 0.00, -0.00, -1.00, 531.7, 676.4)">o</text><text xml:space="preserve" font-family="ComicSansMS,Comic Sans MS" font-size="20.0" fill="#000000" transform="matrix(1.00, 0.00, -0.00, -1.00, 542.2, 676.4)">u</text><text xml:space="preserve" font-family="ComicSansMS,Comic Sans MS" font-size="20.0" fill="#000000" transform="matrix(1.00, 0.00, -0.00, -1.00, 552.6, 676.4)"> </text><text xml:space="preserve" font-family="ComicSansMS,Comic Sans MS" font-size="20.0" fill="#000000" transform="matrix(1.00, 0.00, -0.00, -1.00, 558.6, 676.4)">c</text><text xml:space="preserve" font-family="ComicSansMS,Comic Sans MS" font-size="20.0" fill="#000000" transform="matrix(1.00, 0.00, -0.00, -1.00, 568.8, 676.4)">a</text><text xml:space="preserve" font-family="ComicSansMS,Comic Sans MS" font-size="20.0" fill="#000000" transform="matrix(1.00, 0.00, -0.00, -1.00, 579.0, 676.4)">n</text><text xml:space="preserve" font-family="ComicSansMS,Comic Sans MS" font-size="20.0" fill="#000000" transform="matrix(1.00, 0.00, -0.00, -1.00, 589.5, 676.4)"> </text><text xml:space="preserve" font-family="ComicSansMS,Comic Sans MS" font-size="20.0" fill="#000000" transform="matrix(1.00, 0.00, -0.00, -1.00, 595.5, 676.4)">u</text><text xml:space="preserve" font-family="ComicSansMS,Comic Sans MS" font-size="20.0" fill="#000000" transform="matrix(1.00, 0.00, -0.00, -1.00, 605.9, 676.4)">s</text><text xml:space="preserve" font-family="ComicSansMS,Comic Sans MS" font-size="20.0" fill="#000000" transform="matrix(1.00, 0.00, -0.00, -1.00, 615.6, 676.4)">e</text><text xml:space="preserve" font-family="ComicSansMS,Comic Sans MS" font-size="20.0" fill="#000000" transform="matrix(1.00, 0.00, -0.00, -1.00, 626.6, 676.4)"> </text><text xml:space="preserve" font-family="ComicSansMS,Comic Sans MS" font-size="20.0" fill="#000000" transform="matrix(1.00, 0.00, -0.00, -1.00, 632.6, 676.4)">y</text><text xml:space="preserve" font-family="ComicSansMS,Comic Sans MS" font-size="20.0" fill="#000000" transform="matrix(1.00, 0.00, -0.00, -1.00, 643.0, 676.4)">o</text><text xml:space="preserve" font-family="ComicSansMS,Comic Sans MS" font-size="20.0" fill="#000000" transform="matrix(1.00, 0.00, -0.00, -1.00, 653.5, 676.4)">u</text><text xml:space="preserve" font-family="ComicSansMS,Comic Sans MS" font-size="20.0" fill="#000000" transform="matrix(1.00, 0.00, -0.00, -1.00, 663.9, 676.4)">r</text><text xml:space="preserve" font-family="ComicSansMS,Comic Sans MS" font-size="20.0" fill="#000000" transform="matrix(1.00, 0.00, -0.00, -1.00, 673.5, 676.4)"> </text><text xml:space="preserve" font-family="ComicSansMS,Comic Sans MS" font-size="20.0" fill="#000000" transform="matrix(1.00, 0.00, -0.00, -1.00, 679.5, 676.4)">t</text><text xml:space="preserve" font-family="ComicSansMS,Comic Sans MS" font-size="20.0" fill="#000000" transform="matrix(1.00, 0.00, -0.00, -1.00, 688.9, 676.4)">o</text><text xml:space="preserve" font-family="ComicSansMS,Comic Sans MS" font-size="20.0" fill="#000000" transform="matrix(1.00, 0.00, -0.00, -1.00, 699.4, 676.4)">k</text><text xml:space="preserve" font-family="ComicSansMS,Comic Sans MS" font-size="20.0" fill="#000000" transform="matrix(1.00, 0.00, -0.00, -1.00, 710.2, 676.4)">e</text><text xml:space="preserve" font-family="ComicSansMS,Comic Sans MS" font-size="20.0" fill="#000000" transform="matrix(1.00, 0.00, -0.00, -1.00, 721.2, 676.4)">n</text><text xml:space="preserve" font-family="ComicSansMS,Comic Sans MS" font-size="20.0" fill="#000000" transform="matrix(1.00, 0.00, -0.00, -1.00, 731.6, 676.4)"> </text><text xml:space="preserve" font-family="ComicSansMS,Comic Sans MS" font-size="20.0" fill="#000000" transform="matrix(1.00, 0.00, -0.00, -1.00, 430.4, 648.4)">f</text><text xml:space="preserve" font-family="ComicSansMS,Comic Sans MS" font-size="20.0" fill="#000000" transform="matrix(1.00, 0.00, -0.00, -1.00, 440.5, 648.4)">o</text><text xml:space="preserve" font-family="ComicSansMS,Comic Sans MS" font-size="20.0" fill="#000000" transform="matrix(1.00, 0.00, -0.00, -1.00, 451.0, 648.4)">r</text><text xml:space="preserve" font-family="ComicSansMS,Comic Sans MS" font-size="20.0" fill="#000000" transform="matrix(1.00, 0.00, -0.00, -1.00, 460.7, 648.4)"> </text><text xml:space="preserve" font-family="ComicSansMS,Comic Sans MS" font-size="20.0" fill="#000000" transform="matrix(1.00, 0.00, -0.00, -1.00, 466.6, 648.4)">a</text><text xml:space="preserve" font-family="ComicSansMS,Comic Sans MS" font-size="20.0" fill="#000000" transform="matrix(1.00, 0.00, -0.00, -1.00, 476.9, 648.4)">s</text><text xml:space="preserve" font-family="ComicSansMS,Comic Sans MS" font-size="20.0" fill="#000000" transform="matrix(1.00, 0.00, -0.00, -1.00, 486.6, 648.4)"> </text><text xml:space="preserve" font-family="ComicSansMS,Comic Sans MS" font-size="20.0" fill="#000000" transform="matrix(1.00, 0.00, -0.00, -1.00, 492.6, 648.4)">l</text><text xml:space="preserve" font-family="ComicSansMS,Comic Sans MS" font-size="20.0" fill="#000000" transform="matrix(1.00, 0.00, -0.00, -1.00, 498.0, 648.4)">o</text><text xml:space="preserve" font-family="ComicSansMS,Comic Sans MS" font-size="20.0" fill="#000000" transform="matrix(1.00, 0.00, -0.00, -1.00, 508.6, 648.4)">n</text><text xml:space="preserve" font-family="ComicSansMS,Comic Sans MS" font-size="20.0" fill="#000000" transform="matrix(1.00, 0.00, -0.00, -1.00, 519.0, 648.4)">g</text><text xml:space="preserve" font-family="ComicSansMS,Comic Sans MS" font-size="20.0" fill="#000000" transform="matrix(1.00, 0.00, -0.00, -1.00, 529.7, 648.4)"> </text><text xml:space="preserve" font-family="ComicSansMS,Comic Sans MS" font-size="20.0" fill="#000000" transform="matrix(1.00, 0.00, -0.00, -1.00, 535.6, 648.4)">a</text><text xml:space="preserve" font-family="ComicSansMS,Comic Sans MS" font-size="20.0" fill="#000000" transform="matrix(1.00, 0.00, -0.00, -1.00, 545.9, 648.4)">s</text><text xml:space="preserve" font-family="ComicSansMS,Comic Sans MS" font-size="20.0" fill="#000000" transform="matrix(1.00, 0.00, -0.00, -1.00, 555.6, 648.4)"> </text><text xml:space="preserve" font-family="ComicSansMS,Comic Sans MS" font-size="20.0" fill="#000000" transform="matrix(1.00, 0.00, -0.00, -1.00, 561.6, 648.4)">y</text><text xml:space="preserve" font-family="ComicSansMS,Comic Sans MS" font-size="20.0" fill="#000000" transform="matrix(1.00, 0.00, -0.00, -1.00, 572.0, 648.4)">o</text><text xml:space="preserve" font-family="ComicSansMS,Comic Sans MS" font-size="20.0" fill="#000000" transform="matrix(1.00, 0.00, -0.00, -1.00, 582.5, 648.4)">u</text><text xml:space="preserve" font-family="ComicSansMS,Comic Sans MS" font-size="20.0" fill="#000000" transform="matrix(1.00, 0.00, -0.00, -1.00, 592.9, 648.4)"> </text><text xml:space="preserve" font-family="ComicSansMS,Comic Sans MS" font-size="20.0" fill="#000000" transform="matrix(1.00, 0.00, -0.00, -1.00, 598.8, 648.4)">w</text><text xml:space="preserve" font-family="ComicSansMS,Comic Sans MS" font-size="20.0" fill="#000000" transform="matrix(1.00, 0.00, -0.00, -1.00, 612.5, 648.4)">i</text><text xml:space="preserve" font-family="ComicSansMS,Comic Sans MS" font-size="20.0" fill="#000000" transform="matrix(1.00, 0.00, -0.00, -1.00, 618.1, 648.4)">s</text><text xml:space="preserve" font-family="ComicSansMS,Comic Sans MS" font-size="20.0" fill="#000000" transform="matrix(1.00, 0.00, -0.00, -1.00, 627.9, 648.4)">h</text><text xml:space="preserve" font-family="ComicSansMS,Comic Sans MS" font-size="20.0" fill="#000000" transform="matrix(1.00, 0.00, -0.00, -1.00, 639.4, 648.4)">?</text></g></g><path d="M 925.7 682.0 C 923.2 682.2 921.0 680.1 921.0 677.6 L 921.0 588.9 L 883.6 562.8 L 957.7 575.0 L 1079.9 575.0 C 1082.4 575.0 1084.0 577.5 1084.0 580.0 L 1084.0 677.6 C 1084.0 680.1 1082.4 682.0 1079.9 682.0 L 925.7 682.0 Z M 925.7 682.2 " fill="#FEFFFE"></path><path d="M 4.6 0.2 C 2.1 0.0 -0.2 2.1 -0.2 4.6 L -0.2 93.2 L -37.6 119.3 L 36.5 107.2 L 158.8 107.2 C 161.3 107.2 162.8 104.6 162.8 102.1 L 162.8 4.6 C 162.8 2.1 161.3 0.2 158.8 0.2 L 4.6 0.2 Z M 4.6 0.0 " fill="none" stroke="#000000" stroke-width="2.00" transform="matrix(1.00, 0.00, 0.00, -1.00, 921.2, 682.2)"></path><g><clipPath id="clip0x6180008adf20"><path d="M 919.2 575.5 L 1086.4 575.5 L 1086.4 682.2 L 919.2 682.2 Z M 919.2 575.5 "></path></clipPath><g clip-path="url(#clip0x6180008adf20)"><text xml:space="preserve" font-family="ComicSansMS,Comic Sans MS" font-size="20.0" fill="#000000" transform="matrix(1.00, 0.00, -0.00, -1.00, 926.2, 648.9)">O</text><text xml:space="preserve" font-family="ComicSansMS,Comic Sans MS" font-size="20.0" fill="#000000" transform="matrix(1.00, 0.00, -0.00, -1.00, 942.1, 648.9)">o</text><text xml:space="preserve" font-family="ComicSansMS,Comic Sans MS" font-size="20.0" fill="#000000" transform="matrix(1.00, 0.00, -0.00, -1.00, 952.7, 648.9)">p</text><text xml:space="preserve" font-family="ComicSansMS,Comic Sans MS" font-size="20.0" fill="#000000" transform="matrix(1.00, 0.00, -0.00, -1.00, 963.3, 648.9)">s</text><text xml:space="preserve" font-family="ComicSansMS,Comic Sans MS" font-size="20.0" fill="#000000" transform="matrix(1.00, 0.00, -0.00, -1.00, 973.1, 648.9)">,</text><text xml:space="preserve" font-family="ComicSansMS,Comic Sans MS" font-size="20.0" fill="#000000" transform="matrix(1.00, 0.00, -0.00, -1.00, 978.6, 648.9)"> </text><text xml:space="preserve" font-family="ComicSansMS,Comic Sans MS" font-size="20.0" fill="#000000" transform="matrix(1.00, 0.00, -0.00, -1.00, 984.6, 648.9)">a</text><text xml:space="preserve" font-family="ComicSansMS,Comic Sans MS" font-size="20.0" fill="#000000" transform="matrix(1.00, 0.00, -0.00, -1.00, 994.8, 648.9)">l</text><text xml:space="preserve" font-family="ComicSansMS,Comic Sans MS" font-size="20.0" fill="#000000" transform="matrix(1.00, 0.00, -0.00, -1.00, 1000.3, 648.9)">m</text><text xml:space="preserve" font-family="ComicSansMS,Comic Sans MS" font-size="20.0" fill="#000000" transform="matrix(1.00, 0.00, -0.00, -1.00, 1015.8, 648.9)">o</text><text xml:space="preserve" font-family="ComicSansMS,Comic Sans MS" font-size="20.0" fill="#000000" transform="matrix(1.00, 0.00, -0.00, -1.00, 1026.3, 648.9)">s</text><text xml:space="preserve" font-family="ComicSansMS,Comic Sans MS" font-size="20.0" fill="#000000" transform="matrix(1.00, 0.00, -0.00, -1.00, 1036.1, 648.9)">t</text><text xml:space="preserve" font-family="ComicSansMS,Comic Sans MS" font-size="20.0" fill="#000000" transform="matrix(1.00, 0.00, -0.00, -1.00, 1045.5, 648.9)"> </text><text xml:space="preserve" font-family="ComicSansMS,Comic Sans MS" font-size="20.0" fill="#000000" transform="matrix(1.00, 0.00, -0.00, -1.00, 926.2, 620.9)">f</text><text xml:space="preserve" font-family="ComicSansMS,Comic Sans MS" font-size="20.0" fill="#000000" transform="matrix(1.00, 0.00, -0.00, -1.00, 936.3, 620.9)">o</text><text xml:space="preserve" font-family="ComicSansMS,Comic Sans MS" font-size="20.0" fill="#000000" transform="matrix(1.00, 0.00, -0.00, -1.00, 946.9, 620.9)">r</text><text xml:space="preserve" font-family="ComicSansMS,Comic Sans MS" font-size="20.0" fill="#000000" transform="matrix(1.00, 0.00, -0.00, -1.00, 956.5, 620.9)">g</text><text xml:space="preserve" font-family="ComicSansMS,Comic Sans MS" font-size="20.0" fill="#000000" transform="matrix(1.00, 0.00, -0.00, -1.00, 967.1, 620.9)">o</text><text xml:space="preserve" font-family="ComicSansMS,Comic Sans MS" font-size="20.0" fill="#000000" transform="matrix(1.00, 0.00, -0.00, -1.00, 977.6, 620.9)">t</text><text xml:space="preserve" font-family="ComicSansMS,Comic Sans MS" font-size="20.0" fill="#000000" transform="matrix(1.00, 0.00, -0.00, -1.00, 987.0, 620.9)">,</text><text xml:space="preserve" font-family="ComicSansMS,Comic Sans MS" font-size="20.0" fill="#000000" transform="matrix(1.00, 0.00, -0.00, -1.00, 992.6, 620.9)"> </text><text xml:space="preserve" font-family="ComicSansMS,Comic Sans MS" font-size="20.0" fill="#000000" transform="matrix(1.00, 0.00, -0.00, -1.00, 998.5, 620.9)">a</text><text xml:space="preserve" font-family="ComicSansMS,Comic Sans MS" font-size="20.0" fill="#000000" transform="matrix(1.00, 0.00, -0.00, -1.00, 1008.8, 620.9)">c</text><text xml:space="preserve" font-family="ComicSansMS,Comic Sans MS" font-size="20.0" fill="#000000" transform="matrix(1.00, 0.00, -0.00, -1.00, 1019.0, 620.9)">c</text><text xml:space="preserve" font-family="ComicSansMS,Comic Sans MS" font-size="20.0" fill="#000000" transform="matrix(1.00, 0.00, -0.00, -1.00, 1029.3, 620.9)">e</text><text xml:space="preserve" font-family="ComicSansMS,Comic Sans MS" font-size="20.0" fill="#000000" transform="matrix(1.00, 0.00, -0.00, -1.00, 1040.2, 620.9)">s</text><text xml:space="preserve" font-family="ComicSansMS,Comic Sans MS" font-size="20.0" fill="#000000" transform="matrix(1.00, 0.00, -0.00, -1.00, 1050.0, 620.9)">s</text><text xml:space="preserve" font-family="ComicSansMS,Comic Sans MS" font-size="20.0" fill="#000000" transform="matrix(1.00, 0.00, -0.00, -1.00, 1059.7, 620.9)"> </text><text xml:space="preserve" font-family="ComicSansMS,Comic Sans MS" font-size="20.0" fill="#000000" transform="matrix(1.00, 0.00, -0.00, -1.00, 926.2, 592.9)">t</text><text xml:space="preserve" font-family="ComicSansMS,Comic Sans MS" font-size="20.0" fill="#000000" transform="matrix(1.00, 0.00, -0.00, -1.00, 935.6, 592.9)">o</text><text xml:space="preserve" font-family="ComicSansMS,Comic Sans MS" font-size="20.0" fill="#000000" transform="matrix(1.00, 0.00, -0.00, -1.00, 946.1, 592.9)">k</text><text xml:space="preserve" font-family="ComicSansMS,Comic Sans MS" font-size="20.0" fill="#000000" transform="matrix(1.00, 0.00, -0.00, -1.00, 956.9, 592.9)">e</text><text xml:space="preserve" font-family="ComicSansMS,Comic Sans MS" font-size="20.0" fill="#000000" transform="matrix(1.00, 0.00, -0.00, -1.00, 967.9, 592.9)">n</text><text xml:space="preserve" font-family="ComicSansMS,Comic Sans MS" font-size="20.0" fill="#000000" transform="matrix(1.00, 0.00, -0.00, -1.00, 978.3, 592.9)"> </text><text xml:space="preserve" font-family="ComicSansMS,Comic Sans MS" font-size="20.0" fill="#000000" transform="matrix(1.00, 0.00, -0.00, -1.00, 984.3, 592.9)">e</text><text xml:space="preserve" font-family="ComicSansMS,Comic Sans MS" font-size="20.0" fill="#000000" transform="matrix(1.00, 0.00, -0.00, -1.00, 995.3, 592.9)">x</text><text xml:space="preserve" font-family="ComicSansMS,Comic Sans MS" font-size="20.0" fill="#000000" transform="matrix(1.00, 0.00, -0.00, -1.00, 1007.1, 592.9)">p</text><text xml:space="preserve" font-family="ComicSansMS,Comic Sans MS" font-size="20.0" fill="#000000" transform="matrix(1.00, 0.00, -0.00, -1.00, 1017.8, 592.9)">i</text><text xml:space="preserve" font-family="ComicSansMS,Comic Sans MS" font-size="20.0" fill="#000000" transform="matrix(1.00, 0.00, -0.00, -1.00, 1023.4, 592.9)">r</text><text xml:space="preserve" font-family="ComicSansMS,Comic Sans MS" font-size="20.0" fill="#000000" transform="matrix(1.00, 0.00, -0.00, -1.00, 1033.0, 592.9)">e</text><text xml:space="preserve" font-family="ComicSansMS,Comic Sans MS" font-size="20.0" fill="#000000" transform="matrix(1.00, 0.00, -0.00, -1.00, 1044.0, 592.9)">s</text></g></g></g></svg>