<?xml version="1.0" encoding="UTF-8" standalone="no"?><svg xmlns="http://www.w3.org/2000/svg" xmlns:xlink="http://www.w3.org/1999/xlink" clip-rule="evenodd" stroke-miterlimit="10" viewBox="0 0 1280 720"><desc>SVG generated by Keynote</desc><defs></defs><g transform="matrix(1.00, 0.00, -0.00, -1.00, 0.0, 720.0)"><path d="M 0.0 720.0 L 1280.0 720.0 L 1280.0 0.0 L 0.0 0.0 Z M 0.0 720.0 " fill="#FFFFFF"></path><path d="M -12.0 721.0 L 1279.0 721.0 L 1279.0 592.0 L -12.0 592.0 Z M -12.0 721.0 " fill="#FFFFFF"></path><image xlink:href="../../51C09A98-96B9-4111-8917-4A6A011BFB10/assets/41194C9459DB3CBFD690A61B4CFF6222.png" width="647.00" height="120.00" transform="matrix(0.00, 1.00, 1.00, -0.00, -10.5, 54.5)"></image><path d="M 0.0 49.0 L 1289.0 49.0 L 1289.0 0.0 L 0.0 0.0 Z M 0.0 49.0 " fill="#F4AE33"></path><text xml:space="preserve" font-family="ArialMT,Arial" font-size="32.0" fill="#000000" transform="matrix(1.00, 0.00, -0.00, -1.00, 12.0, 12.3)">#</text><text xml:space="preserve" font-family="ArialMT,Arial" font-size="32.0" fill="#000000" transform="matrix(1.00, 0.00, -0.00, -1.00, 29.8, 12.3)">D</text><text xml:space="preserve" font-family="ArialMT,Arial" font-size="32.0" fill="#000000" transform="matrix(1.00, 0.00, -0.00, -1.00, 52.9, 12.3)">V</text><text xml:space="preserve" font-family="ArialMT,Arial" font-size="32.0" fill="#000000" transform="matrix(1.00, 0.00, -0.00, -1.00, 74.3, 12.3)">1</text><text xml:space="preserve" font-family="ArialMT,Arial" font-size="32.0" fill="#000000" transform="matrix(1.00, 0.00, -0.00, -1.00, 92.1, 12.3)">4</text><text xml:space="preserve" font-family="ArialMT,Arial" font-size="32.0" fill="#000000" transform="matrix(1.00, 0.00, -0.00, -1.00, 109.9, 12.3)"> </text><text xml:space="preserve" font-family="ArialMT,Arial" font-size="32.0" fill="#000000" transform="matrix(1.00, 0.00, -0.00, -1.00, 118.8, 12.3)"> </text><text xml:space="preserve" font-family="ArialMT,Arial" font-size="32.0" fill="#000000" transform="matrix(1.00, 0.00, -0.00, -1.00, 127.6, 12.3)">#</text><text xml:space="preserve" font-family="ArialMT,Arial" font-size="32.0" fill="#000000" transform="matrix(1.00, 0.00, -0.00, -1.00, 145.4, 12.3)">O</text><text xml:space="preserve" font-family="ArialMT,Arial" font-size="32.0" fill="#000000" transform="matrix(1.00, 0.00, -0.00, -1.00, 170.3, 12.3)">A</text><text xml:space="preserve" font-family="ArialMT,Arial" font-size="32.0" fill="#000000" transform="matrix(1.00, 0.00, -0.00, -1.00, 191.6, 12.3)">u</text><text xml:space="preserve" font-family="ArialMT,Arial" font-size="32.0" fill="#000000" transform="matrix(1.00, 0.00, -0.00, -1.00, 209.5, 12.3)">t</text><text xml:space="preserve" font-family="ArialMT,Arial" font-size="32.0" fill="#000000" transform="matrix(1.00, 0.00, -0.00, -1.00, 218.3, 12.3)">h</text><text xml:space="preserve" font-family="ArialMT,Arial" font-size="32.0" fill="#000000" transform="matrix(1.00, 0.00, -0.00, -1.00, 236.1, 12.3)">2</text><text xml:space="preserve" font-family="ArialMT,Arial" font-size="32.0" fill="#000000" transform="matrix(1.00, 0.00, -0.00, -1.00, 253.9, 12.3)"> </text><text xml:space="preserve" font-family="ArialMT,Arial" font-size="32.0" fill="#000000" transform="matrix(1.00, 0.00, -0.00, -1.00, 262.8, 12.3)">#</text><text xml:space="preserve" font-family="ArialMT,Arial" font-size="32.0" fill="#000000" transform="matrix(1.00, 0.00, -0.00, -1.00, 280.6, 12.3)">M</text><text xml:space="preserve" font-family="ArialMT,Arial" font-size="32.0" fill="#000000" transform="matrix(1.00, 0.00, -0.00, -1.00, 307.3, 12.3)">o</text><text xml:space="preserve" font-family="ArialMT,Arial" font-size="32.0" fill="#000000" transform="matrix(1.00, 0.00, -0.00, -1.00, 325.1, 12.3)">b</text><text xml:space="preserve" font-family="ArialMT,Arial" font-size="32.0" fill="#000000" transform="matrix(1.00, 0.00, -0.00, -1.00, 342.9, 12.3)">i</text><text xml:space="preserve" font-family="ArialMT,Arial" font-size="32.0" fill="#000000" transform="matrix(1.00, 0.00, -0.00, -1.00, 350.0, 12.3)">l</text><text xml:space="preserve" font-family="ArialMT,Arial" font-size="32.0" fill="#000000" transform="matrix(1.00, 0.00, -0.00, -1.00, 357.1, 12.3)">e</text><text xml:space="preserve" font-family="ArialMT,Arial" font-size="32.0" fill="#000000" transform="matrix(1.00, 0.00, -0.00, -1.00, 1045.9, 12.3)">@</text><text xml:space="preserve" font-family="ArialMT,Arial" font-size="32.0" fill="#000000" transform="matrix(1.00, 0.00, -0.00, -1.00, 1078.4, 12.3)">c</text><text xml:space="preserve" font-family="ArialMT,Arial" font-size="32.0" fill="#000000" transform="matrix(1.00, 0.00, -0.00, -1.00, 1094.4, 12.3)">o</text><text xml:space="preserve" font-family="ArialMT,Arial" font-size="32.0" fill="#000000" transform="matrix(1.00, 0.00, -0.00, -1.00, 1112.2, 12.3)">r</text><text xml:space="preserve" font-family="ArialMT,Arial" font-size="32.0" fill="#000000" transform="matrix(1.00, 0.00, -0.00, -1.00, 1122.8, 12.3)">i</text><text xml:space="preserve" font-family="ArialMT,Arial" font-size="32.0" fill="#000000" transform="matrix(1.00, 0.00, -0.00, -1.00, 1129.9, 12.3)">n</text><text xml:space="preserve" font-family="ArialMT,Arial" font-size="32.0" fill="#000000" transform="matrix(1.00, 0.00, -0.00, -1.00, 1147.7, 12.3)">n</text><text xml:space="preserve" font-family="ArialMT,Arial" font-size="32.0" fill="#000000" transform="matrix(1.00, 0.00, -0.00, -1.00, 1165.5, 12.3)">e</text><text xml:space="preserve" font-family="ArialMT,Arial" font-size="32.0" fill="#000000" transform="matrix(1.00, 0.00, -0.00, -1.00, 1183.3, 12.3)">k</text><text xml:space="preserve" font-family="ArialMT,Arial" font-size="32.0" fill="#000000" transform="matrix(1.00, 0.00, -0.00, -1.00, 1199.3, 12.3)">r</text><text xml:space="preserve" font-family="ArialMT,Arial" font-size="32.0" fill="#000000" transform="matrix(1.00, 0.00, -0.00, -1.00, 1210.0, 12.3)">y</text><text xml:space="preserve" font-family="ArialMT,Arial" font-size="32.0" fill="#000000" transform="matrix(1.00, 0.00, -0.00, -1.00, 1226.0, 12.3)">c</text><text xml:space="preserve" font-family="ArialMT,Arial" font-size="32.0" fill="#000000" transform="matrix(1.00, 0.00, -0.00, -1.00, 1242.0, 12.3)">h</text><image xlink:href="../../5D0E17D9-DDA0-4D32-A4D3-491832859A2B/assets/3FEB1C8E6C0035FD05C03206A5A714A3.png" width="1178.00" height="1075.00" transform="matrix(0.62, 0.00, -0.00, -0.62, 325.9, 719.2)"></image><image xlink:href="../../5D0E17D9-DDA0-4D32-A4D3-491832859A2B/assets/A5E464996D247D0E4764E61D8D072BF8.png" width="551.00" height="150.00" transform="matrix(1.00, 0.00, -0.00, -1.00, 208.0, 690.6)" opacity="0.62"></image><path d="M 334.6 715.5 C 331.3 715.8 328.5 713.0 328.5 709.7 L 328.5 657.6 C 328.5 654.2 331.3 651.5 334.6 651.5 L 352.1 651.5 L 360.3 615.7 L 368.5 651.5 L 631.6 651.5 C 635.0 651.5 637.5 654.2 637.5 657.6 L 637.5 709.7 C 637.5 713.0 635.0 715.5 631.6 715.5 L 334.6 715.5 Z M 334.6 715.8 " fill="#FEFFFE"></path><path d="M 6.1 0.3 C 2.7 0.0 -0.0 2.7 -0.0 6.1 L -0.0 58.2 C -0.0 61.5 2.7 64.3 6.1 64.3 L 23.5 64.3 L 31.7 100.1 L 39.9 64.3 L 303.1 64.3 C 306.4 64.3 309.0 61.5 309.0 58.2 L 309.0 6.1 C 309.0 2.7 306.4 0.3 303.1 0.3 L 6.1 0.3 Z M 6.1 0.0 " fill="none" stroke="#000000" stroke-width="1.00" transform="matrix(1.00, 0.00, 0.00, -1.00, 328.5, 715.8)"></path><g><clipPath id="clip0x7fa08fbbf570"><path d="M 324.7 651.5 L 641.5 651.5 L 641.5 715.8 L 324.7 715.8 Z M 324.7 651.5 "></path></clipPath><g clip-path="url(#clip0x7fa08fbbf570)"><text xml:space="preserve" font-family="ComicSansMS,Comic Sans MS" font-size="24.0" fill="#000000" transform="matrix(1.00, 0.00, -0.00, -1.00, 333.0, 674.4)">S</text><text xml:space="preserve" font-family="ComicSansMS,Comic Sans MS" font-size="24.0" fill="#000000" transform="matrix(1.00, 0.00, -0.00, -1.00, 349.7, 674.4)">t</text><text xml:space="preserve" font-family="ComicSansMS,Comic Sans MS" font-size="24.0" fill="#000000" transform="matrix(1.00, 0.00, -0.00, -1.00, 361.0, 674.4)">e</text><text xml:space="preserve" font-family="ComicSansMS,Comic Sans MS" font-size="24.0" fill="#000000" transform="matrix(1.00, 0.00, -0.00, -1.00, 374.2, 674.4)">p</text><text xml:space="preserve" font-family="ComicSansMS,Comic Sans MS" font-size="24.0" fill="#000000" transform="matrix(1.00, 0.00, -0.00, -1.00, 387.0, 674.4)"> </text><text xml:space="preserve" font-family="ComicSansMS,Comic Sans MS" font-size="24.0" fill="#000000" transform="matrix(1.00, 0.00, -0.00, -1.00, 394.2, 674.4)">3</text><text xml:space="preserve" font-family="ComicSansMS,Comic Sans MS" font-size="24.0" fill="#000000" transform="matrix(1.00, 0.00, -0.00, -1.00, 408.8, 674.4)">:</text><text xml:space="preserve" font-family="ComicSansMS,Comic Sans MS" font-size="24.0" fill="#000000" transform="matrix(1.00, 0.00, -0.00, -1.00, 416.0, 674.4)"> </text><text xml:space="preserve" font-family="ComicSansMS,Comic Sans MS" font-size="24.0" fill="#000000" transform="matrix(1.00, 0.00, -0.00, -1.00, 423.1, 674.4)">G</text><text xml:space="preserve" font-family="ComicSansMS,Comic Sans MS" font-size="24.0" fill="#000000" transform="matrix(1.00, 0.00, -0.00, -1.00, 439.4, 674.4)">e</text><text xml:space="preserve" font-family="ComicSansMS,Comic Sans MS" font-size="24.0" fill="#000000" transform="matrix(1.00, 0.00, -0.00, -1.00, 452.6, 674.4)">t</text><text xml:space="preserve" font-family="ComicSansMS,Comic Sans MS" font-size="24.0" fill="#000000" transform="matrix(1.00, 0.00, -0.00, -1.00, 463.9, 674.4)"> </text><text xml:space="preserve" font-family="ComicSansMS,Comic Sans MS" font-size="24.0" fill="#000000" transform="matrix(1.00, 0.00, -0.00, -1.00, 471.1, 674.4)">t</text><text xml:space="preserve" font-family="ComicSansMS,Comic Sans MS" font-size="24.0" fill="#000000" transform="matrix(1.00, 0.00, -0.00, -1.00, 482.4, 674.4)">h</text><text xml:space="preserve" font-family="ComicSansMS,Comic Sans MS" font-size="24.0" fill="#000000" transform="matrix(1.00, 0.00, -0.00, -1.00, 496.2, 674.4)">e</text><text xml:space="preserve" font-family="ComicSansMS,Comic Sans MS" font-size="24.0" fill="#000000" transform="matrix(1.00, 0.00, -0.00, -1.00, 509.4, 674.4)"> </text><text xml:space="preserve" font-family="ComicSansMS,Comic Sans MS" font-size="24.0" fill="#000000" transform="matrix(1.00, 0.00, -0.00, -1.00, 516.6, 674.4)">r</text><text xml:space="preserve" font-family="ComicSansMS,Comic Sans MS" font-size="24.0" fill="#000000" transform="matrix(1.00, 0.00, -0.00, -1.00, 528.1, 674.4)">e</text><text xml:space="preserve" font-family="ComicSansMS,Comic Sans MS" font-size="24.0" fill="#000000" transform="matrix(1.00, 0.00, -0.00, -1.00, 541.2, 674.4)">s</text><text xml:space="preserve" font-family="ComicSansMS,Comic Sans MS" font-size="24.0" fill="#000000" transform="matrix(1.00, 0.00, -0.00, -1.00, 552.9, 674.4)">o</text><text xml:space="preserve" font-family="ComicSansMS,Comic Sans MS" font-size="24.0" fill="#000000" transform="matrix(1.00, 0.00, -0.00, -1.00, 565.5, 674.4)">u</text><text xml:space="preserve" font-family="ComicSansMS,Comic Sans MS" font-size="24.0" fill="#000000" transform="matrix(1.00, 0.00, -0.00, -1.00, 578.0, 674.4)">r</text><text xml:space="preserve" font-family="ComicSansMS,Comic Sans MS" font-size="24.0" fill="#000000" transform="matrix(1.00, 0.00, -0.00, -1.00, 589.6, 674.4)">c</text><text xml:space="preserve" font-family="ComicSansMS,Comic Sans MS" font-size="24.0" fill="#000000" transform="matrix(1.00, 0.00, -0.00, -1.00, 601.9, 674.4)">e</text><text xml:space="preserve" font-family="ComicSansMS,Comic Sans MS" font-size="24.0" fill="#000000" transform="matrix(1.00, 0.00, -0.00, -1.00, 615.0, 674.4)">s</text></g></g></g></svg>