<?xml version="1.0" encoding="UTF-8" standalone="no"?><svg xmlns="http://www.w3.org/2000/svg" xmlns:xlink="http://www.w3.org/1999/xlink" clip-rule="evenodd" stroke-miterlimit="10" viewBox="0 0 1280 720"><desc>SVG generated by Keynote</desc><defs></defs><g transform="matrix(1.00, 0.00, -0.00, -1.00, 0.0, 720.0)"><path d="M 0.0 720.0 L 1280.0 720.0 L 1280.0 0.0 L 0.0 0.0 Z M 0.0 720.0 " fill="#FFFFFF"></path><path d="M -12.0 721.0 L 1279.0 721.0 L 1279.0 592.0 L -12.0 592.0 Z M -12.0 721.0 " fill="#FFFFFF"></path><image xlink:href="../../51C09A98-96B9-4111-8917-4A6A011BFB10/assets/41194C9459DB3CBFD690A61B4CFF6222.png" width="647.00" height="120.00" transform="matrix(0.00, 1.00, 1.00, -0.00, -10.5, 54.5)"></image><path d="M 0.0 49.0 L 1289.0 49.0 L 1289.0 0.0 L 0.0 0.0 Z M 0.0 49.0 " fill="#F4AE33"></path><text xml:space="preserve" font-family="ArialMT,Arial" font-size="32.0" fill="#000000" transform="matrix(1.00, 0.00, -0.00, -1.00, 12.0, 12.3)">#</text><text xml:space="preserve" font-family="ArialMT,Arial" font-size="32.0" fill="#000000" transform="matrix(1.00, 0.00, -0.00, -1.00, 29.8, 12.3)">D</text><text xml:space="preserve" font-family="ArialMT,Arial" font-size="32.0" fill="#000000" transform="matrix(1.00, 0.00, -0.00, -1.00, 52.9, 12.3)">V</text><text xml:space="preserve" font-family="ArialMT,Arial" font-size="32.0" fill="#000000" transform="matrix(1.00, 0.00, -0.00, -1.00, 74.3, 12.3)">1</text><text xml:space="preserve" font-family="ArialMT,Arial" font-size="32.0" fill="#000000" transform="matrix(1.00, 0.00, -0.00, -1.00, 92.1, 12.3)">4</text><text xml:space="preserve" font-family="ArialMT,Arial" font-size="32.0" fill="#000000" transform="matrix(1.00, 0.00, -0.00, -1.00, 109.9, 12.3)"> </text><text xml:space="preserve" font-family="ArialMT,Arial" font-size="32.0" fill="#000000" transform="matrix(1.00, 0.00, -0.00, -1.00, 118.8, 12.3)"> </text><text xml:space="preserve" font-family="ArialMT,Arial" font-size="32.0" fill="#000000" transform="matrix(1.00, 0.00, -0.00, -1.00, 127.6, 12.3)">#</text><text xml:space="preserve" font-family="ArialMT,Arial" font-size="32.0" fill="#000000" transform="matrix(1.00, 0.00, -0.00, -1.00, 145.4, 12.3)">O</text><text xml:space="preserve" font-family="ArialMT,Arial" font-size="32.0" fill="#000000" transform="matrix(1.00, 0.00, -0.00, -1.00, 170.3, 12.3)">A</text><text xml:space="preserve" font-family="ArialMT,Arial" font-size="32.0" fill="#000000" transform="matrix(1.00, 0.00, -0.00, -1.00, 191.6, 12.3)">u</text><text xml:space="preserve" font-family="ArialMT,Arial" font-size="32.0" fill="#000000" transform="matrix(1.00, 0.00, -0.00, -1.00, 209.5, 12.3)">t</text><text xml:space="preserve" font-family="ArialMT,Arial" font-size="32.0" fill="#000000" transform="matrix(1.00, 0.00, -0.00, -1.00, 218.3, 12.3)">h</text><text xml:space="preserve" font-family="ArialMT,Arial" font-size="32.0" fill="#000000" transform="matrix(1.00, 0.00, -0.00, -1.00, 236.1, 12.3)">2</text><text xml:space="preserve" font-family="ArialMT,Arial" font-size="32.0" fill="#000000" transform="matrix(1.00, 0.00, -0.00, -1.00, 253.9, 12.3)"> </text><text xml:space="preserve" font-family="ArialMT,Arial" font-size="32.0" fill="#000000" transform="matrix(1.00, 0.00, -0.00, -1.00, 262.8, 12.3)">#</text><text xml:space="preserve" font-family="ArialMT,Arial" font-size="32.0" fill="#000000" transform="matrix(1.00, 0.00, -0.00, -1.00, 280.6, 12.3)">M</text><text xml:space="preserve" font-family="ArialMT,Arial" font-size="32.0" fill="#000000" transform="matrix(1.00, 0.00, -0.00, -1.00, 307.3, 12.3)">o</text><text xml:space="preserve" font-family="ArialMT,Arial" font-size="32.0" fill="#000000" transform="matrix(1.00, 0.00, -0.00, -1.00, 325.1, 12.3)">b</text><text xml:space="preserve" font-family="ArialMT,Arial" font-size="32.0" fill="#000000" transform="matrix(1.00, 0.00, -0.00, -1.00, 342.9, 12.3)">i</text><text xml:space="preserve" font-family="ArialMT,Arial" font-size="32.0" fill="#000000" transform="matrix(1.00, 0.00, -0.00, -1.00, 350.0, 12.3)">l</text><text xml:space="preserve" font-family="ArialMT,Arial" font-size="32.0" fill="#000000" transform="matrix(1.00, 0.00, -0.00, -1.00, 357.1, 12.3)">e</text><text xml:space="preserve" font-family="ArialMT,Arial" font-size="32.0" fill="#000000" transform="matrix(1.00, 0.00, -0.00, -1.00, 1045.9, 12.3)">@</text><text xml:space="preserve" font-family="ArialMT,Arial" font-size="32.0" fill="#000000" transform="matrix(1.00, 0.00, -0.00, -1.00, 1078.4, 12.3)">c</text><text xml:space="preserve" font-family="ArialMT,Arial" font-size="32.0" fill="#000000" transform="matrix(1.00, 0.00, -0.00, -1.00, 1094.4, 12.3)">o</text><text xml:space="preserve" font-family="ArialMT,Arial" font-size="32.0" fill="#000000" transform="matrix(1.00, 0.00, -0.00, -1.00, 1112.2, 12.3)">r</text><text xml:space="preserve" font-family="ArialMT,Arial" font-size="32.0" fill="#000000" transform="matrix(1.00, 0.00, -0.00, -1.00, 1122.8, 12.3)">i</text><text xml:space="preserve" font-family="ArialMT,Arial" font-size="32.0" fill="#000000" transform="matrix(1.00, 0.00, -0.00, -1.00, 1129.9, 12.3)">n</text><text xml:space="preserve" font-family="ArialMT,Arial" font-size="32.0" fill="#000000" transform="matrix(1.00, 0.00, -0.00, -1.00, 1147.7, 12.3)">n</text><text xml:space="preserve" font-family="ArialMT,Arial" font-size="32.0" fill="#000000" transform="matrix(1.00, 0.00, -0.00, -1.00, 1165.5, 12.3)">e</text><text xml:space="preserve" font-family="ArialMT,Arial" font-size="32.0" fill="#000000" transform="matrix(1.00, 0.00, -0.00, -1.00, 1183.3, 12.3)">k</text><text xml:space="preserve" font-family="ArialMT,Arial" font-size="32.0" fill="#000000" transform="matrix(1.00, 0.00, -0.00, -1.00, 1199.3, 12.3)">r</text><text xml:space="preserve" font-family="ArialMT,Arial" font-size="32.0" fill="#000000" transform="matrix(1.00, 0.00, -0.00, -1.00, 1210.0, 12.3)">y</text><text xml:space="preserve" font-family="ArialMT,Arial" font-size="32.0" fill="#000000" transform="matrix(1.00, 0.00, -0.00, -1.00, 1226.0, 12.3)">c</text><text xml:space="preserve" font-family="ArialMT,Arial" font-size="32.0" fill="#000000" transform="matrix(1.00, 0.00, -0.00, -1.00, 1242.0, 12.3)">h</text><image xlink:href="../../5D0E17D9-DDA0-4D32-A4D3-491832859A2B/assets/3FEB1C8E6C0035FD05C03206A5A714A3.png" width="1178.00" height="1075.00" transform="matrix(0.62, 0.00, -0.00, -0.62, 325.9, 719.2)"></image><image xlink:href="../../5D0E17D9-DDA0-4D32-A4D3-491832859A2B/assets/2D67DD3D47BD60EACF7C76AB32CB1DBB.png" width="551.00" height="150.00" transform="matrix(1.00, 0.00, -0.00, -1.00, 18.0, 716.6)" opacity="0.62"></image><path d="M 138.5 648.0 L 138.5 700.3 C 138.5 703.6 141.3 706.5 144.6 706.5 L 441.6 706.5 C 445.0 706.5 447.5 703.6 447.5 700.3 L 447.5 648.2 C 447.5 644.8 445.0 642.5 441.6 642.5 L 144.6 642.5 C 141.3 642.5 138.5 644.6 138.5 648.0 Z M 138.5 648.2 " fill="#FEFFFE"></path><path d="M -0.0 58.4 L -0.0 6.1 C -0.0 2.7 2.7 -0.1 6.1 -0.1 L 303.0 -0.1 C 306.4 -0.1 309.0 2.7 309.0 6.1 L 309.0 58.2 C 309.0 61.5 306.4 63.9 303.0 63.9 L 6.1 63.9 C 2.7 63.9 -0.0 61.7 -0.0 58.4 Z M 0.0 58.2 " fill="none" stroke="#000000" stroke-width="1.00" transform="matrix(1.00, 0.00, 0.00, -1.00, 138.5, 706.4)"></path><g><clipPath id="clip0x608000ab6b60"><path d="M 134.7 642.1 L 451.5 642.1 L 451.5 706.4 L 134.7 706.4 Z M 134.7 642.1 "></path></clipPath><g clip-path="url(#clip0x608000ab6b60)"><text xml:space="preserve" font-family="ComicSansMS,Comic Sans MS" font-size="24.0" fill="#000000" transform="matrix(1.00, 0.00, -0.00, -1.00, 143.0, 665.0)">S</text><text xml:space="preserve" font-family="ComicSansMS,Comic Sans MS" font-size="24.0" fill="#000000" transform="matrix(1.00, 0.00, -0.00, -1.00, 159.7, 665.0)">t</text><text xml:space="preserve" font-family="ComicSansMS,Comic Sans MS" font-size="24.0" fill="#000000" transform="matrix(1.00, 0.00, -0.00, -1.00, 171.0, 665.0)">e</text><text xml:space="preserve" font-family="ComicSansMS,Comic Sans MS" font-size="24.0" fill="#000000" transform="matrix(1.00, 0.00, -0.00, -1.00, 184.2, 665.0)">p</text><text xml:space="preserve" font-family="ComicSansMS,Comic Sans MS" font-size="24.0" fill="#000000" transform="matrix(1.00, 0.00, -0.00, -1.00, 197.0, 665.0)"> </text><text xml:space="preserve" font-family="ComicSansMS,Comic Sans MS" font-size="24.0" fill="#000000" transform="matrix(1.00, 0.00, -0.00, -1.00, 204.2, 665.0)">3</text><text xml:space="preserve" font-family="ComicSansMS,Comic Sans MS" font-size="24.0" fill="#000000" transform="matrix(1.00, 0.00, -0.00, -1.00, 218.8, 665.0)">:</text><text xml:space="preserve" font-family="ComicSansMS,Comic Sans MS" font-size="24.0" fill="#000000" transform="matrix(1.00, 0.00, -0.00, -1.00, 226.0, 665.0)"> </text><text xml:space="preserve" font-family="ComicSansMS,Comic Sans MS" font-size="24.0" fill="#000000" transform="matrix(1.00, 0.00, -0.00, -1.00, 233.1, 665.0)">G</text><text xml:space="preserve" font-family="ComicSansMS,Comic Sans MS" font-size="24.0" fill="#000000" transform="matrix(1.00, 0.00, -0.00, -1.00, 249.4, 665.0)">e</text><text xml:space="preserve" font-family="ComicSansMS,Comic Sans MS" font-size="24.0" fill="#000000" transform="matrix(1.00, 0.00, -0.00, -1.00, 262.6, 665.0)">t</text><text xml:space="preserve" font-family="ComicSansMS,Comic Sans MS" font-size="24.0" fill="#000000" transform="matrix(1.00, 0.00, -0.00, -1.00, 273.9, 665.0)"> </text><text xml:space="preserve" font-family="ComicSansMS,Comic Sans MS" font-size="24.0" fill="#000000" transform="matrix(1.00, 0.00, -0.00, -1.00, 281.1, 665.0)">t</text><text xml:space="preserve" font-family="ComicSansMS,Comic Sans MS" font-size="24.0" fill="#000000" transform="matrix(1.00, 0.00, -0.00, -1.00, 292.4, 665.0)">h</text><text xml:space="preserve" font-family="ComicSansMS,Comic Sans MS" font-size="24.0" fill="#000000" transform="matrix(1.00, 0.00, -0.00, -1.00, 306.2, 665.0)">e</text><text xml:space="preserve" font-family="ComicSansMS,Comic Sans MS" font-size="24.0" fill="#000000" transform="matrix(1.00, 0.00, -0.00, -1.00, 319.4, 665.0)"> </text><text xml:space="preserve" font-family="ComicSansMS,Comic Sans MS" font-size="24.0" fill="#000000" transform="matrix(1.00, 0.00, -0.00, -1.00, 326.6, 665.0)">r</text><text xml:space="preserve" font-family="ComicSansMS,Comic Sans MS" font-size="24.0" fill="#000000" transform="matrix(1.00, 0.00, -0.00, -1.00, 338.1, 665.0)">e</text><text xml:space="preserve" font-family="ComicSansMS,Comic Sans MS" font-size="24.0" fill="#000000" transform="matrix(1.00, 0.00, -0.00, -1.00, 351.2, 665.0)">s</text><text xml:space="preserve" font-family="ComicSansMS,Comic Sans MS" font-size="24.0" fill="#000000" transform="matrix(1.00, 0.00, -0.00, -1.00, 362.9, 665.0)">o</text><text xml:space="preserve" font-family="ComicSansMS,Comic Sans MS" font-size="24.0" fill="#000000" transform="matrix(1.00, 0.00, -0.00, -1.00, 375.5, 665.0)">u</text><text xml:space="preserve" font-family="ComicSansMS,Comic Sans MS" font-size="24.0" fill="#000000" transform="matrix(1.00, 0.00, -0.00, -1.00, 388.0, 665.0)">r</text><text xml:space="preserve" font-family="ComicSansMS,Comic Sans MS" font-size="24.0" fill="#000000" transform="matrix(1.00, 0.00, -0.00, -1.00, 399.6, 665.0)">c</text><text xml:space="preserve" font-family="ComicSansMS,Comic Sans MS" font-size="24.0" fill="#000000" transform="matrix(1.00, 0.00, -0.00, -1.00, 411.9, 665.0)">e</text><text xml:space="preserve" font-family="ComicSansMS,Comic Sans MS" font-size="24.0" fill="#000000" transform="matrix(1.00, 0.00, -0.00, -1.00, 425.0, 665.0)">s</text></g></g></g></svg>